<svg width="24" height="24" viewBox="0 0 24 24" fill="none" xmlns="http://www.w3.org/2000/svg">
<path d="M13.2336 0C14.5835 0.00359982 15.2687 0.0107994 15.8603 0.0275986L16.0931 0.0359981C16.3619 0.0455976 16.627 0.057597 16.9474 0.0719962C18.2242 0.131993 19.0953 0.333583 19.8597 0.629968C20.6516 0.934752 21.3188 1.34753 21.986 2.0135C22.5961 2.61334 23.0683 3.33894 23.3695 4.13979C23.6659 4.90415 23.8675 5.7753 23.9275 7.05324C23.9419 7.37242 23.9539 7.63761 23.9635 7.9076L23.9707 8.14038C23.9887 8.73075 23.9959 9.41592 23.9983 10.7658L23.9995 11.661V13.2329C24.0024 14.1082 23.9932 14.9834 23.9719 15.8584L23.9647 16.0912C23.9551 16.3612 23.9431 16.6263 23.9287 16.9455C23.8687 18.2235 23.6647 19.0934 23.3695 19.859C23.0691 20.6603 22.5969 21.386 21.986 21.9853C21.386 22.5952 20.6604 23.0673 19.8597 23.3688C19.0953 23.6652 18.2242 23.8668 16.9474 23.9268C16.6627 23.9402 16.3779 23.9522 16.0931 23.9628L15.8603 23.97C15.2687 23.9868 14.5835 23.9952 13.2336 23.9976L12.3385 23.9988H10.7677C9.8921 24.0018 9.01646 23.9926 8.14108 23.9712L7.90829 23.964C7.62343 23.9532 7.33864 23.9408 7.05393 23.9268C5.7772 23.8668 4.90604 23.6652 4.14048 23.3688C3.33972 23.0681 2.61442 22.5959 2.01539 21.9853C1.40467 21.3856 0.932114 20.66 0.63066 19.859C0.334275 19.0946 0.132686 18.2235 0.0726886 16.9455C0.0593199 16.6608 0.0473204 16.376 0.0366905 16.0912L0.0306909 15.8584C0.00857853 14.9834 -0.00142203 14.1082 0.000692365 13.2329V10.7658C-0.00265662 9.89061 0.00614386 9.01537 0.0270911 8.14038L0.0354906 7.9076C0.0450901 7.63761 0.0570895 7.37242 0.0714888 7.05324C0.131486 5.7753 0.333075 4.90535 0.62946 4.13979C0.930781 3.33811 1.40428 2.61229 2.01659 2.0135C2.61547 1.4033 3.34029 0.931137 4.14048 0.629968C4.90604 0.333583 5.776 0.131993 7.05393 0.0719962C7.37311 0.057597 7.6395 0.0455976 7.90829 0.0359981L8.14108 0.0287984C9.01606 0.00747887 9.8913 -0.00172155 10.7665 0.00119985L13.2336 0ZM12.0001 5.99969C10.4089 5.99969 8.88281 6.6318 7.75765 7.75696C6.63249 8.88212 6.00039 10.4082 6.00039 11.9994C6.00039 13.5906 6.63249 15.1166 7.75765 16.2418C8.88281 17.367 10.4089 17.9991 12.0001 17.9991C13.5913 17.9991 15.1173 17.367 16.2425 16.2418C17.3677 15.1166 17.9998 13.5906 17.9998 11.9994C17.9998 10.4082 17.3677 8.88212 16.2425 7.75696C15.1173 6.6318 13.5913 5.99969 12.0001 5.99969ZM12.0001 8.39957C12.4728 8.39949 12.9409 8.49253 13.3777 8.67336C13.8145 8.8542 14.2114 9.11929 14.5457 9.45351C14.88 9.78773 15.1453 10.1845 15.3262 10.6212C15.5072 11.058 15.6004 11.5261 15.6005 11.9988C15.6006 12.4715 15.5075 12.9396 15.3267 13.3764C15.1459 13.8132 14.8808 14.2101 14.5466 14.5444C14.2123 14.8787 13.8155 15.144 13.3788 15.325C12.9421 15.5059 12.474 15.5991 12.0013 15.5992C11.0465 15.5992 10.1309 15.2199 9.45582 14.5448C8.78073 13.8697 8.40146 12.9541 8.40146 11.9994C8.40146 11.0447 8.78073 10.129 9.45582 9.45393C10.1309 8.77883 11.0465 8.39957 12.0013 8.39957M18.301 4.19978C17.9031 4.19978 17.5216 4.35781 17.2403 4.6391C16.9591 4.92039 16.801 5.3019 16.801 5.69971C16.801 6.09751 16.9591 6.47902 17.2403 6.76031C17.5216 7.0416 17.9031 7.19963 18.301 7.19963C18.6988 7.19963 19.0803 7.0416 19.3616 6.76031C19.6429 6.47902 19.8009 6.09751 19.8009 5.69971C19.8009 5.3019 19.6429 4.92039 19.3616 4.6391C19.0803 4.35781 18.6988 4.19978 18.301 4.19978Z" fill="#F0A901"/>
</svg>
