<svg width="55" height="55" viewBox="0 0 55 55" fill="none" xmlns="http://www.w3.org/2000/svg">
<path d="M48.4086 48.2372V27.24C48.4086 15.6438 39.0075 6.24268 27.4113 6.24268C15.8152 6.24268 6.41406 15.6438 6.41406 27.24C6.41406 38.8361 15.8152 48.2372 27.4113 48.2372C34.2372 48.2372 40.3025 44.9798 44.1377 39.9359" stroke="#146D57" stroke-width="1.81598" stroke-linecap="round" stroke-linejoin="round"/>
<g clip-path="url(#clip0_844_353)">
<path d="M16.0605 30.0768L17.9378 29.4514C18.9409 29.1171 19.8523 28.5538 20.5999 27.8062C21.3475 27.0586 21.9108 26.1472 22.2451 25.1441L22.8705 23.2669C22.8705 23.2669 24.573 22.1319 27.4104 22.1319C30.2479 22.1319 31.9504 23.2669 31.9504 23.2669L32.5758 25.1441C32.9101 26.1472 33.4733 27.0586 34.2209 27.8062C34.9686 28.5538 35.88 29.1171 36.883 29.4514L38.7603 30.0768M24.573 25.5368V31.2118L19.7493 32.1765C19.514 32.2254 19.3023 32.3526 19.1486 32.5372C18.9948 32.7218 18.9081 32.9531 18.9026 33.1933C18.8971 33.4335 18.973 33.6684 19.1181 33.8599C19.2632 34.0515 19.4689 34.1882 19.7016 34.2479C21.1827 34.6247 24.4663 35.4907 27.4104 36.5065C30.4261 37.5461 33.0854 38.7424 33.0854 39.7242M30.2479 25.5368V31.2118L35.0716 32.1765C35.3068 32.2254 35.5186 32.3526 35.6723 32.5372C35.826 32.7218 35.9127 32.9531 35.9183 33.1933C35.9238 33.4335 35.8478 33.6684 35.7027 33.8599C35.5576 34.0515 35.352 34.1882 35.1193 34.2479C34.0138 34.5293 31.9038 35.0832 29.6804 35.7688M25.1404 37.3543C23.1769 38.1624 21.7355 39.0001 21.7355 39.7242M27.2402 19.8619C27.2402 19.8619 25.4242 18.7269 25.4242 17.3082C25.4242 16.782 25.6332 16.2774 26.0053 15.9053C26.3773 15.5332 26.882 15.3242 27.4082 15.3242C27.9343 15.3242 28.439 15.5332 28.811 15.9053C29.1831 16.2774 29.3921 16.782 29.3921 17.3082C29.3921 18.7269 27.5807 19.8619 27.5807 19.8619H27.2402Z" stroke="#146D57" stroke-width="1.81598" stroke-linecap="round"/>
</g>
<defs>
<clipPath id="clip0_844_353">
<rect width="27.2397" height="27.2397" fill="white" transform="translate(13.791 13.6196)"/>
</clipPath>
</defs>
</svg>
