<svg width="34" height="34" viewBox="0 0 34 34" fill="none" xmlns="http://www.w3.org/2000/svg">
<path d="M33 33V17C33 8.16368 25.8363 1 17 1C8.16368 1 1 8.16368 1 17C1 25.8363 8.16368 33 17 33C22.2013 33 26.8231 30.5178 29.7455 26.6744" stroke="#F0A901" stroke-width="1.38378" stroke-linecap="round" stroke-linejoin="round"/>
<g clip-path="url(#clip0_844_309)">
<path d="M8.26562 18.3836L9.69611 17.9071C10.4604 17.6523 11.1549 17.2231 11.7246 16.6534C12.2943 16.0837 12.7235 15.3892 12.9783 14.6249L13.4548 13.1944C13.4548 13.1944 14.7521 12.3296 16.9143 12.3296C19.0764 12.3296 20.3737 13.1944 20.3737 13.1944L20.8503 14.6249C21.105 15.3892 21.5342 16.0837 22.1039 16.6534C22.6736 17.2231 23.3681 17.6523 24.1324 17.9071L25.5629 18.3836M14.7521 14.9241V19.2485L11.0764 19.9836C10.8972 20.0209 10.7359 20.1178 10.6187 20.2584C10.5015 20.3991 10.4355 20.5753 10.4313 20.7584C10.4271 20.9414 10.4849 21.1205 10.5955 21.2664C10.7061 21.4123 10.8628 21.5165 11.0401 21.562C12.1688 21.8491 14.6708 22.509 16.9143 23.2831C19.2122 24.0753 21.2386 24.9868 21.2386 25.735M19.0764 14.9241V19.2485L22.7521 19.9836C22.9314 20.0209 23.0927 20.1178 23.2098 20.2584C23.327 20.3991 23.3931 20.5753 23.3973 20.7584C23.4015 20.9414 23.3436 21.1205 23.233 21.2664C23.1225 21.4123 22.9658 21.5165 22.7884 21.562C21.9461 21.7765 20.3383 22.1985 18.644 22.7209M15.1845 23.9291C13.6883 24.5449 12.5899 25.1832 12.5899 25.735M16.7845 10.5998C16.7845 10.5998 15.4008 9.73496 15.4008 8.65387C15.4008 8.25292 15.56 7.8684 15.8436 7.58488C16.1271 7.30137 16.5116 7.14209 16.9125 7.14209C17.3135 7.14209 17.698 7.30137 17.9815 7.58488C18.2651 7.8684 18.4243 8.25292 18.4243 8.65387C18.4243 9.73496 17.044 10.5998 17.044 10.5998H16.7845Z" stroke="#F0A901" stroke-width="1.38378" stroke-linecap="round" stroke-linejoin="round"/>
</g>
<defs>
<clipPath id="clip0_844_309">
<rect width="20.7568" height="20.7568" fill="white" transform="translate(6.53516 5.84326)"/>
</clipPath>
</defs>
</svg>
