<svg width="90" height="154" viewBox="0 0 90 154" fill="none" xmlns="http://www.w3.org/2000/svg">
<path d="M-32.7168 149.468C-33.4343 147.936 -35.2584 147.276 -36.7909 147.993C-38.3234 148.711 -38.9842 150.535 -38.2667 152.067C-37.5492 153.599 -35.7251 154.259 -34.1926 153.542C-32.6599 152.824 -31.9993 151 -32.7168 149.468ZM-38.9103 140.26C-39.2289 139.58 -40.0388 139.286 -40.7193 139.605C-41.3998 139.924 -41.6932 140.734 -41.3746 141.414C-41.056 142.094 -40.2461 142.387 -39.5656 142.069C-38.8851 141.75 -38.5917 140.94 -38.9103 140.26ZM-35.876 144.026C-36.464 142.771 -37.9587 142.23 -39.2147 142.818C-40.4706 143.406 -41.012 144.901 -40.424 146.156C-39.8361 147.412 -38.3413 147.953 -37.0853 147.364C-35.8294 146.776 -35.288 145.282 -35.876 144.026ZM26.8989 104.725C28.4899 105.301 30.2469 104.478 30.8232 102.887C31.3995 101.296 30.5769 99.5398 28.9859 98.9639C27.3949 98.3881 25.6379 99.211 25.0616 100.802C24.4853 102.393 25.3078 104.149 26.8989 104.725ZM24.4086 100.565C24.8809 99.2618 24.2068 97.8224 22.9029 97.3505C21.599 96.8786 20.1592 97.5529 19.6869 98.8566C19.2146 100.16 19.8887 101.6 21.1926 102.072C22.4965 102.544 23.9363 101.869 24.4086 100.565ZM17.1664 99.3912C17.8729 99.6469 18.653 99.2815 18.9089 98.5751C19.1648 97.8687 18.7996 97.0888 18.0931 96.8331C17.3866 96.5774 16.6064 96.9427 16.3505 97.6492C16.0947 98.3555 16.46 99.1355 17.1664 99.3912ZM-38.2749 70.8253C-37.8953 69.1764 -38.9245 67.5324 -40.5735 67.1534C-42.2226 66.7743 -43.8672 67.8036 -44.2468 69.4525C-44.6263 71.1013 -43.5972 72.7453 -41.9481 73.1244C-40.299 73.5034 -38.6544 72.474 -38.2749 70.8253ZM-45.0469 80.5214C-45.2154 81.2536 -44.7585 81.9835 -44.0262 82.1518C-43.294 82.3202 -42.5637 81.8631 -42.3952 81.131C-42.2267 80.3988 -42.6836 79.6689 -43.4158 79.5006C-44.1481 79.3323 -44.8783 79.7893 -45.0469 80.5214ZM-45.114 75.6851C-45.4251 77.0364 -44.5817 78.3836 -43.2303 78.6942C-41.8788 79.0049 -40.5312 78.1614 -40.2201 76.8101C-39.909 75.4589 -40.7524 74.1117 -42.1039 73.801C-43.4553 73.4904 -44.8029 74.3339 -45.114 75.6851ZM41.062 67.9717C41.0381 67.9707 41.0145 67.971 40.9909 67.9712C41.0132 67.9844 41.035 67.9972 41.0578 68.0108L41.062 67.9717ZM45.9393 72.7943C45.9685 72.8482 45.9968 72.9035 46.0257 72.958C46.0674 73.0184 46.1089 73.0793 46.1492 73.1415C46.2765 73.3432 46.4056 73.5475 46.5363 73.7545C46.5689 73.8063 46.6016 73.8582 46.6344 73.9104C46.6664 73.963 46.6956 74.0174 46.7265 74.0711C46.7874 74.1789 46.8487 74.2874 46.9103 74.3965C47.0329 74.6151 47.1615 74.8342 47.2723 75.0652C47.3868 75.2945 47.5026 75.5262 47.6196 75.7602C47.7258 75.9992 47.8329 76.2405 47.9411 76.484C48.3563 77.4652 48.7201 78.5097 49.0093 79.6029C49.2891 80.6964 49.4854 81.7812 49.616 82.8343C49.645 83.098 49.6737 83.3593 49.7021 83.6181C49.7209 83.8776 49.7395 84.1346 49.7579 84.3888C49.7799 84.6429 49.7823 84.8951 49.7926 85.1439C49.8005 85.3929 49.8126 85.6389 49.8089 85.8819C49.8084 86.1248 49.8078 86.3647 49.8072 86.6014C49.8017 86.8379 49.7912 87.071 49.7831 87.3008C49.7787 87.4156 49.7743 87.5296 49.77 87.6428C49.7622 87.7557 49.7544 87.8677 49.7468 87.9789C49.7306 88.201 49.7148 88.4197 49.6992 88.6346C49.6771 88.8488 49.6553 89.0593 49.634 89.266C49.6112 89.4725 49.5927 89.6755 49.5628 89.873C49.506 90.2684 49.46 90.6487 49.3928 91.0081C49.3302 91.3681 49.2728 91.711 49.2017 92.0321C49.1333 92.3538 49.0735 92.6576 49.0008 92.9383C48.9307 93.2194 48.8673 93.4811 48.8013 93.7201C48.7329 93.9586 48.6686 94.1759 48.6086 94.3705C48.5502 94.5655 48.4908 94.7368 48.4356 94.8842C48.3811 95.0318 48.3319 95.1556 48.2882 95.2547C48.201 95.4529 48.1361 95.5517 48.0963 95.5417C48.0564 95.5317 48.0435 95.4134 48.0552 95.198C48.0612 95.0904 48.0732 94.9585 48.0911 94.8037C48.11 94.6491 48.1318 94.4711 48.1562 94.271C48.181 94.0709 48.2108 93.8491 48.2454 93.6072C48.2764 93.3648 48.3101 93.1015 48.3463 92.8188C48.387 92.5371 48.4157 92.2338 48.4541 91.9138C48.4951 91.5943 48.5235 91.2548 48.5584 90.8994C48.5978 90.5445 48.6173 90.1709 48.6489 89.7831C48.6663 89.5893 48.6726 89.391 48.6835 89.1892C48.6936 88.9875 48.7039 88.7821 48.7144 88.573C48.7195 88.364 48.7247 88.1514 48.73 87.9354C48.7327 87.8275 48.7355 87.7187 48.7382 87.6091C48.7378 87.4995 48.7375 87.389 48.737 87.2778C48.7363 87.0555 48.7355 86.8299 48.7347 86.6013C48.7274 86.3729 48.7201 86.1415 48.7127 85.9072C48.7091 85.6728 48.6902 85.4364 48.6761 85.1971C48.6596 84.9579 48.6516 84.7154 48.6244 84.472C48.6017 84.2283 48.5786 83.982 48.5553 83.7334C48.5238 83.4859 48.4919 83.236 48.4598 82.9839C48.3191 81.9775 48.1238 80.944 47.8575 79.9025C47.8082 79.7163 47.7562 79.532 47.703 79.3487C47.7095 79.8958 47.6889 80.4324 47.6543 80.9533C47.6174 81.4951 47.566 82.0209 47.5063 82.5344C47.4792 82.7915 47.4455 83.0453 47.4127 83.2963C47.3817 83.5474 47.3438 83.7948 47.3073 84.0393C47.0101 85.9943 46.5959 87.7336 46.1382 89.1581C46.0294 89.5158 45.9067 89.8508 45.7976 90.1692C45.6776 90.4843 45.5708 90.783 45.4553 91.0568C45.3413 91.3311 45.2371 91.5866 45.1282 91.8167C45.0214 92.0475 44.9259 92.2587 44.828 92.4437C44.7324 92.6296 44.6457 92.7936 44.5673 92.934C44.4856 93.0731 44.4135 93.1891 44.3517 93.2812C44.2281 93.4652 44.1455 93.553 44.1081 93.5359C44.0708 93.5188 44.0805 93.3978 44.1324 93.184C44.1585 93.0772 44.1951 92.9472 44.2418 92.7954C44.2851 92.6421 44.3371 92.4665 44.3985 92.2705C44.4622 92.0753 44.5239 91.8551 44.5974 91.6168C44.673 91.3794 44.7445 91.1179 44.8266 90.8394C44.9101 90.5613 44.9857 90.2596 45.0752 89.9433C45.154 89.6235 45.2471 89.289 45.3276 88.9329C45.6715 87.5151 45.9899 85.8062 46.2208 83.892C46.249 83.6527 46.2791 83.4106 46.3027 83.1647C46.3281 82.9191 46.355 82.6709 46.3756 82.4192C46.4226 81.9162 46.463 81.4023 46.4906 80.8836C46.5441 79.8461 46.5465 78.7806 46.3901 77.7214C46.3153 77.1905 46.2065 76.6702 46.0641 76.166C45.9228 75.6615 45.7575 75.1704 45.5661 74.6975C45.3735 74.2249 45.1614 73.7687 44.9361 73.3291C44.835 73.1366 44.7314 72.9477 44.6263 72.7615C44.5905 72.7112 44.5541 72.6616 44.5192 72.6113C44.3951 72.437 44.273 72.2654 44.1529 72.0968C44.0313 71.9291 43.9008 71.7731 43.7789 71.6146C43.7173 71.5358 43.6563 71.4578 43.5958 71.3805C43.5656 71.3418 43.5356 71.3033 43.5057 71.265C43.4739 71.2283 43.4422 71.1919 43.4107 71.1556C43.285 71.0098 43.1618 70.867 43.0412 70.7274C42.9809 70.6574 42.9212 70.5883 42.8621 70.5199C42.7999 70.4545 42.7383 70.3899 42.6776 70.3261C42.433 70.072 42.209 69.8192 41.9734 69.605C41.8586 69.4943 41.7469 69.3869 41.6387 69.2827C41.5841 69.2311 41.5328 69.1772 41.478 69.1295C41.4679 69.1207 41.4583 69.1123 41.4483 69.1037C41.5206 69.2375 41.593 69.3759 41.668 69.5175C41.8172 69.79 41.9504 70.0863 42.0986 70.3914C42.1739 70.5435 42.2391 70.7035 42.3103 70.8647C42.3799 71.0265 42.4531 71.1906 42.5225 71.3596C42.5891 71.5297 42.6569 71.7028 42.7257 71.8786C42.7596 71.9668 42.7955 72.0551 42.8283 72.1452C42.8601 72.2357 42.8921 72.3268 42.9245 72.4187C42.9882 72.6027 43.0557 72.7887 43.1181 72.979C43.1778 73.1704 43.2382 73.3643 43.2993 73.5606C43.363 73.7564 43.4141 73.9583 43.4707 74.1614C43.5255 74.3648 43.5853 74.5697 43.6323 74.7799C43.6819 74.9896 43.7321 75.2015 43.7827 75.4155C43.8262 75.6311 43.8703 75.8487 43.9146 76.0683C44.0816 76.9487 44.2115 77.8687 44.2925 78.816C44.3677 79.7638 44.3903 80.6927 44.3697 81.5886C44.3618 81.8124 44.354 82.0344 44.3464 82.2541C44.3315 82.4735 44.3167 82.6908 44.3022 82.9058C44.2901 83.1209 44.2648 83.3328 44.244 83.5425C44.2213 83.752 44.2041 83.9596 44.1733 84.1631C44.1451 84.3669 44.1173 84.5681 44.0899 84.7667C44.0595 84.9648 44.0232 85.1592 43.9906 85.3512C43.9738 85.4471 43.9571 85.5424 43.9405 85.6368C43.9229 85.7311 43.9019 85.8241 43.8829 85.9166C43.8438 86.1013 43.8053 86.2832 43.7675 86.4619C43.7267 86.64 43.6813 86.814 43.6392 86.9851C43.5953 87.1558 43.5572 87.3243 43.5078 87.4867C43.4116 87.812 43.3287 88.1261 43.2261 88.4194C43.1277 88.7137 43.0375 88.9945 42.9344 89.2545C42.8338 89.515 42.7448 89.7623 42.6435 89.987C42.5451 90.2126 42.4556 90.4229 42.3654 90.6131C42.2724 90.8023 42.1857 90.9741 42.1059 91.1275C42.0656 91.2041 42.0285 91.2766 41.9904 91.3433C41.951 91.4093 41.9141 91.471 41.8796 91.5284C41.8097 91.6424 41.7476 91.7372 41.6938 91.8121C41.5864 91.9619 41.5122 92.0316 41.4747 92.0146C41.4374 91.9976 41.4386 91.8945 41.4745 91.715C41.4925 91.6253 41.5192 91.5165 41.5542 91.3896C41.5724 91.3265 41.5918 91.2586 41.6127 91.1861C41.6327 91.1132 41.654 91.0356 41.6766 90.9536C41.7222 90.7898 41.7752 90.609 41.835 90.4122C41.8905 90.2141 41.9507 89.9991 42.0153 89.7681C42.0846 89.539 42.1423 89.289 42.2124 89.0273C42.285 88.7664 42.3457 88.4861 42.4155 88.1942C42.4894 87.9033 42.5448 87.5932 42.6146 87.2737C42.6509 87.1142 42.6762 86.9489 42.7076 86.7819C42.7372 86.6145 42.7705 86.4447 42.7995 86.2711C42.8261 86.0971 42.8532 85.9202 42.8807 85.7403C42.8942 85.6505 42.9098 85.5602 42.922 85.4687C42.9334 85.3771 42.9449 85.2847 42.9565 85.1918C42.979 85.0058 43.0055 84.8177 43.0265 84.6263C43.0452 84.4346 43.0642 84.2404 43.0835 84.0437C43.1058 83.8475 43.1153 83.6475 43.1305 83.4459C43.1439 83.2441 43.1624 83.0404 43.1681 82.8337C43.1769 82.6272 43.1858 82.4186 43.1949 82.2079C43.1979 81.9971 43.201 81.7843 43.204 81.5695C43.2082 80.7107 43.1785 79.8215 43.1065 78.9138C43.0288 78.0064 42.9125 77.1245 42.7678 76.2779C42.7296 76.0666 42.6917 75.8572 42.6542 75.6497C42.6108 75.4434 42.5678 75.239 42.5252 75.0368C42.4858 74.8338 42.4342 74.636 42.388 74.439C42.3399 74.2426 42.2979 74.0469 42.2436 73.857C42.1925 73.6662 42.1419 73.4777 42.092 73.2917C42.0399 73.1064 41.983 72.9251 41.9304 72.7454C41.9037 72.6555 41.8772 72.5664 41.851 72.4779C41.8239 72.3896 41.7938 72.3032 41.7658 72.2167C41.7092 72.0438 41.6535 71.8737 41.5988 71.7065C41.5417 71.54 41.4811 71.378 41.4245 71.2177C41.3661 71.0581 41.3142 70.8992 41.2523 70.7478C41.131 70.4442 41.0256 70.1473 40.9051 69.8725C40.7884 69.596 40.6826 69.3295 40.5683 69.084C40.4564 68.8374 40.3584 68.6002 40.2525 68.3856C40.2241 68.3247 40.1962 68.2653 40.1689 68.2067C39.5527 68.5724 39.1161 69.3107 39.0173 70.047C38.8757 71.1036 39.2284 72.1542 39.4952 73.1862C40.7095 77.8853 40.1356 83.0239 37.9141 87.3401C38.5938 84.3119 39.2777 81.2257 39.0124 78.1337C38.7471 75.0418 37.3772 71.8863 34.7577 70.2219C34.0737 73.9119 33.387 77.6304 33.4332 81.3827C33.4795 85.1351 34.3084 88.9686 36.4252 92.0671C39.3785 96.3901 44.7055 99.179 46.1354 104.215C50.6587 99.0579 52.7931 91.8869 51.8256 85.097C51.1346 80.2473 48.8692 75.654 45.524 72.0811C45.6656 72.313 45.8041 72.5505 45.9393 72.7943ZM59.353 77.9517C60.0355 78.7704 61.0482 79.2211 61.9889 79.7224C66.2724 82.0057 69.6698 85.903 71.3467 90.4575C69.5755 87.9093 67.7646 85.3188 65.3072 83.4234C62.8498 81.528 59.5983 80.4031 56.6 81.2068C58.8556 84.2057 61.1305 87.2258 63.9263 89.7289C66.722 92.2321 70.1069 94.214 73.8217 94.7502C79.0047 95.4985 84.6631 93.4614 89.341 95.814C88.6016 88.9955 84.7625 82.5748 79.1058 78.6959C75.0654 75.9255 70.1488 74.4879 65.2533 74.5354C65.5197 74.5883 65.7884 74.6468 66.0594 74.7122C66.1189 74.7272 66.1788 74.7437 66.2385 74.7592C66.3113 74.7694 66.3842 74.78 66.4572 74.7924C66.692 74.835 66.9298 74.8781 67.1707 74.9218C67.2309 74.9328 67.2913 74.9439 67.352 74.955C67.4124 74.967 67.4722 74.9823 67.5326 74.9958C67.6533 75.0238 67.7747 75.0521 67.8968 75.0804C68.1408 75.138 68.3892 75.1914 68.6344 75.2661C68.8808 75.3367 69.1298 75.4081 69.3813 75.4803C69.6291 75.5637 69.8795 75.648 70.132 75.7331C71.1358 76.0907 72.1514 76.5291 73.1524 77.0553C74.1473 77.5887 75.0793 78.1777 75.9436 78.7935C76.1574 78.9505 76.3693 79.106 76.5793 79.2601C76.7831 79.4217 76.9851 79.5818 77.1848 79.7401C77.3869 79.8957 77.5743 80.0644 77.7647 80.2251C77.9534 80.3877 78.1429 80.5451 78.3193 80.7122C78.4979 80.8769 78.6743 81.0395 78.8483 81.2C79.0188 81.3641 79.1835 81.5294 79.3473 81.6907C79.4288 81.7716 79.5099 81.8519 79.5903 81.9316C79.6682 82.0136 79.7455 82.0951 79.8222 82.176C79.9749 82.338 80.1253 82.4975 80.2731 82.6544C80.4159 82.8156 80.5563 82.9739 80.6942 83.1294C80.8309 83.2858 80.968 83.4367 81.0932 83.5923C81.3461 83.9015 81.5951 84.1924 81.8145 84.4849C82.0373 84.7745 82.251 85.0486 82.4396 85.3181C82.6303 85.586 82.8137 85.8355 82.9713 86.0788C83.131 86.3204 83.2808 86.5442 83.4123 86.7544C83.5418 86.966 83.6582 87.1602 83.7611 87.3361C83.8653 87.511 83.9513 87.6704 84.0225 87.8108C84.0944 87.9507 84.1523 88.0707 84.1958 88.1698C84.2828 88.3681 84.3116 88.4827 84.2773 88.5053C84.243 88.5279 84.1471 88.4573 83.9963 88.3031C83.921 88.2259 83.8319 88.1279 83.73 88.0101C83.6289 87.8916 83.5125 87.7551 83.3816 87.6018C83.2509 87.4482 83.1077 87.2763 82.953 87.0872C82.7954 86.9005 82.6242 86.6977 82.4403 86.4799C82.2604 86.2594 82.0563 86.0331 81.8466 85.7885C81.6389 85.5422 81.408 85.2917 81.1698 85.0258C80.935 84.7568 80.6729 84.4898 80.4087 84.2043C80.2777 84.0605 80.1358 83.9216 79.9945 83.7772C79.8528 83.6334 79.7084 83.4869 79.5615 83.3379C79.4109 83.1928 79.2578 83.0452 79.1023 82.8952C79.0246 82.8202 78.9463 82.7447 78.8675 82.6686C78.7864 82.5947 78.7048 82.5203 78.6226 82.4454C78.4583 82.2956 78.2916 82.1437 78.1226 81.9897C77.9495 81.8406 77.7741 81.6895 77.5964 81.5365C77.4213 81.3806 77.2344 81.2346 77.0485 81.0832C76.8611 80.9337 76.677 80.7756 76.4793 80.631C76.2844 80.483 76.0874 80.3334 75.8884 80.1824C75.6847 80.0383 75.4791 79.8928 75.2716 79.746C74.4351 79.1692 73.5415 78.6141 72.5941 78.106C72.4235 78.0163 72.2525 77.93 72.0815 77.8453C72.489 78.2104 72.8704 78.5884 73.2307 78.9662C73.6049 79.3597 73.9574 79.753 74.2954 80.1443C74.4664 80.3381 74.6306 80.5346 74.7933 80.7284C74.9574 80.921 75.114 81.1162 75.2694 81.3083C76.5086 82.8492 77.5097 84.3302 78.2496 85.6306C78.4395 85.9526 78.6033 86.2694 78.764 86.565C78.915 86.8664 79.0628 87.1471 79.1863 87.4173C79.3112 87.6868 79.429 87.9362 79.5249 88.172C79.6227 88.4067 79.7136 88.6199 79.7837 88.8171C79.8559 89.0132 79.9181 89.1878 79.9685 89.3406C80.0157 89.4947 80.0525 89.6263 80.0785 89.7341C80.1304 89.9496 80.1392 90.0697 80.1014 90.0857C80.0635 90.1017 79.9808 90.0127 79.8586 89.8298C79.7975 89.7384 79.7264 89.6235 79.6462 89.4865C79.5627 89.351 79.4684 89.194 79.3655 89.0161C79.2648 88.8373 79.1444 88.6429 79.0186 88.4277C78.8948 88.2115 78.7505 87.982 78.6008 87.7332C78.4524 87.4837 78.2813 87.224 78.1089 86.9443C77.9266 86.67 77.7431 86.3753 77.5352 86.0752C76.7234 84.8632 75.6798 83.4732 74.4258 82.0088C74.2685 81.8261 74.1105 81.6403 73.9453 81.4566C73.7816 81.2719 73.6169 81.0843 73.4455 80.8988C73.1068 80.5241 72.7554 80.1468 72.3919 79.7757C71.6638 79.0348 70.8805 78.3125 69.9943 77.7116C69.5526 77.4077 69.0957 77.136 68.6279 76.8999C68.1607 76.6629 67.687 76.4525 67.2091 76.2737C66.7307 76.096 66.2511 75.9437 65.7748 75.8124C65.5645 75.7567 65.3553 75.7052 65.147 75.6567C65.0858 75.6492 65.0246 75.6423 64.9639 75.634C64.7515 75.6076 64.5425 75.5815 64.337 75.5559C64.1312 75.5321 63.928 75.5227 63.7288 75.5052C63.6291 75.4973 63.5303 75.4894 63.4324 75.4817C63.3835 75.4778 63.3348 75.4739 63.2863 75.47C63.2378 75.4686 63.1895 75.4672 63.1414 75.4659C62.949 75.46 62.7605 75.4542 62.576 75.4484C62.4837 75.4456 62.3923 75.4427 62.302 75.44C62.2117 75.4416 62.1225 75.4433 62.0344 75.445C61.6817 75.4532 61.3439 75.4473 61.0267 75.4759C60.8676 75.4856 60.7128 75.4952 60.5629 75.5044C60.4879 75.5098 60.4135 75.5111 60.3412 75.5191C60.328 75.5206 60.3153 75.5221 60.3021 75.5235C60.4496 75.5608 60.6005 75.601 60.7557 75.6416C61.0573 75.716 61.3658 75.8183 61.6908 75.9154C61.8537 75.9627 62.0157 76.023 62.1827 76.0795C62.3491 76.1377 62.5195 76.1947 62.691 76.2579C62.8614 76.3239 63.0347 76.391 63.2109 76.4592C63.2987 76.4939 63.388 76.5271 63.4766 76.564C63.5648 76.6017 63.6536 76.6398 63.7431 76.6781C63.9218 76.7556 64.1046 76.8315 64.287 76.9143C64.4683 76.9998 64.652 77.0865 64.8381 77.1742C65.0255 77.2596 65.2087 77.3586 65.3965 77.4541C65.5835 77.5513 65.7748 77.6459 65.9616 77.7534C66.1497 77.8586 66.3397 77.965 66.5316 78.0724C66.7199 78.1861 66.91 78.3008 67.1018 78.4166C67.8634 78.8889 68.6291 79.4154 69.3818 79.9963C70.131 80.5817 70.8306 81.1933 71.4766 81.8142C71.6363 81.9714 71.7945 82.1272 71.9513 82.2814C72.1028 82.4407 72.2529 82.5985 72.4015 82.7547C72.5519 82.909 72.6907 83.071 72.8312 83.228C72.9703 83.3864 73.1115 83.5395 73.2407 83.6998C73.3717 83.8583 73.5011 84.0148 73.6288 84.1693C73.7542 84.3256 73.873 84.4838 73.9922 84.6377C74.0515 84.715 74.1104 84.7917 74.1687 84.8677C74.2264 84.9444 74.2807 85.0227 74.3361 85.0993C74.4457 85.253 74.5536 85.4043 74.6597 85.553C74.7633 85.7035 74.8607 85.8546 74.9583 86.0013C75.0544 86.149 75.1528 86.291 75.239 86.4372C75.4135 86.728 75.5889 87.0015 75.7356 87.2753C75.8859 87.5467 76.0316 87.8031 76.1535 88.0548C76.2775 88.3051 76.3994 88.5378 76.4964 88.7643C76.596 88.9893 76.6903 89.1975 76.7695 89.3925C76.846 89.589 76.9139 89.7689 76.9729 89.9315C77.002 90.0129 77.0303 90.0892 77.0538 90.1624C77.0757 90.236 77.0961 90.3049 77.1151 90.3691C77.1517 90.4976 77.1796 90.6075 77.1985 90.6978C77.236 90.8782 77.2373 90.98 77.1995 90.996C77.1617 91.012 77.0865 90.9414 76.9786 90.7936C76.9247 90.7196 76.8625 90.6264 76.7928 90.5149C76.7586 90.4588 76.7218 90.3986 76.6825 90.3342C76.6424 90.2701 76.5996 90.2021 76.5544 90.13C76.4647 89.9856 76.3673 89.8243 76.2628 89.6472C76.1543 89.4725 76.0367 89.2827 75.9102 89.0789C75.7883 88.8731 75.6432 88.6613 75.4978 88.4329C75.3547 88.203 75.1893 87.9688 75.0215 87.72C74.8572 87.4689 74.6661 87.2184 74.478 86.9509C74.3851 86.8164 74.2804 86.686 74.1786 86.55C74.0753 86.415 73.9728 86.2757 73.8644 86.137C73.7543 85.9997 73.6423 85.8601 73.5284 85.7182C73.4713 85.6475 73.4153 85.5751 73.3562 85.5042C73.2964 85.4338 73.2362 85.363 73.1755 85.2916C73.0537 85.1492 72.9329 85.0026 72.8062 84.8577C72.6777 84.7143 72.5475 84.5689 72.4156 84.4218C72.2862 84.2726 72.1452 84.1304 72.0069 83.9829C71.8673 83.8366 71.7297 83.6853 71.5813 83.5413C71.4352 83.3952 71.2876 83.2475 71.1385 83.0984C70.9853 82.9536 70.8305 82.8074 70.6744 82.66C70.0444 82.0762 69.3694 81.4968 68.6518 80.9359C67.9308 80.3796 67.2024 79.8689 66.4808 79.4031C66.2992 79.2883 66.1192 79.1746 65.941 79.0619C65.7597 78.9543 65.58 78.8479 65.4023 78.7425C65.226 78.6343 65.0454 78.5385 64.869 78.4394C64.6918 78.342 64.5192 78.2406 64.3425 78.1521C64.1673 78.0607 63.9943 77.9705 63.8235 77.8815C63.6517 77.7946 63.4797 77.7139 63.3115 77.6311C63.2273 77.59 63.1437 77.5492 63.0608 77.5087C62.9775 77.4689 62.8934 77.4326 62.8108 77.3948C62.6451 77.3196 62.4821 77.2456 62.3218 77.1728C62.1606 77.1022 62.0002 77.0373 61.8439 76.9706C61.6869 76.9057 61.5345 76.8365 61.3813 76.7797C61.0755 76.6637 60.7855 76.5405 60.5015 76.4435C60.2188 76.3425 59.9509 76.2402 59.6928 76.1583C59.4353 76.0741 59.1943 75.9858 58.9647 75.9186C58.9005 75.8984 58.8379 75.8787 58.7762 75.8592C58.6288 76.5602 58.8774 77.3811 59.353 77.9517ZM59.2329 75.0726L59.207 75.0431C59.1902 75.06 59.1744 75.0776 59.1585 75.095C59.1834 75.0875 59.2075 75.0802 59.2329 75.0726ZM11.6571 106.172L11.6312 106.143C11.6143 106.16 11.5985 106.177 11.5826 106.195C11.6075 106.187 11.6317 106.18 11.6571 106.172ZM31.53 109.796C27.4896 107.025 22.573 105.588 17.6776 105.635C17.944 105.688 18.2127 105.747 18.4838 105.812C18.5433 105.827 18.6031 105.843 18.6628 105.859C18.7356 105.869 18.8085 105.88 18.8816 105.892C19.1163 105.935 19.3542 105.978 19.5951 106.021C19.6553 106.032 19.7157 106.044 19.7764 106.055C19.8368 106.067 19.8966 106.082 19.957 106.095C20.0777 106.123 20.199 106.152 20.3211 106.18C20.5652 106.238 20.8136 106.291 21.0587 106.366C21.3052 106.436 21.5542 106.508 21.8057 106.58C22.0536 106.663 22.3038 106.748 22.5564 106.833C23.5602 107.19 24.5758 107.629 25.5768 108.155C26.5718 108.688 27.5038 109.277 28.368 109.893C28.5818 110.05 28.7938 110.206 29.0037 110.36C29.2076 110.521 29.4094 110.681 29.6093 110.84C29.8113 110.995 29.9988 111.164 30.1891 111.325C30.3778 111.487 30.5672 111.645 30.7437 111.812C30.9223 111.976 31.0987 112.139 31.2727 112.3C31.4432 112.464 31.6078 112.629 31.7716 112.79C31.8532 112.871 31.9342 112.951 32.0146 113.031C32.0925 113.113 32.1698 113.195 32.2465 113.275C32.3993 113.438 32.5496 113.597 32.6974 113.754C32.8402 113.915 32.9806 114.073 33.1184 114.229C33.2551 114.385 33.3921 114.536 33.5174 114.692C33.7703 115.001 34.0193 115.292 34.2387 115.584C34.4615 115.874 34.6752 116.148 34.8638 116.418C35.0545 116.686 35.2379 116.935 35.3954 117.178C35.5552 117.42 35.705 117.644 35.8364 117.854C35.9658 118.066 36.0824 118.26 36.1852 118.436C36.2894 118.611 36.3754 118.77 36.4466 118.91C36.5184 119.05 36.5764 119.17 36.6199 119.269C36.7069 119.468 36.7357 119.582 36.7014 119.605C36.6671 119.627 36.5712 119.557 36.4205 119.403C36.3452 119.325 36.2561 119.227 36.1542 119.11C36.0531 118.991 35.9367 118.855 35.8058 118.701C35.6751 118.548 35.5319 118.376 35.3771 118.187C35.2195 118 35.0483 117.797 34.8645 117.579C34.6845 117.359 34.4805 117.133 34.2708 116.888C34.063 116.642 33.8322 116.391 33.594 116.125C33.3592 115.856 33.0971 115.589 32.8329 115.304C32.7018 115.16 32.5599 115.021 32.4186 114.877C32.2769 114.733 32.1326 114.586 31.9856 114.437C31.8351 114.292 31.682 114.145 31.5264 113.995C31.4487 113.92 31.3704 113.844 31.2916 113.768C31.2105 113.694 31.1289 113.62 31.0467 113.545C30.8824 113.395 30.7157 113.243 30.5467 113.089C30.3736 112.94 30.1982 112.789 30.0206 112.636C29.8455 112.48 29.6585 112.334 29.4726 112.183C29.2853 112.033 29.1011 111.875 28.9035 111.73C28.7086 111.582 28.5116 111.433 28.3127 111.282C28.1089 111.138 27.9033 110.992 27.6958 110.845C26.8593 110.268 25.9657 109.713 25.0183 109.205C24.8477 109.116 24.6767 109.029 24.5057 108.945C24.9132 109.31 25.2946 109.688 25.655 110.065C26.0291 110.459 26.3817 110.852 26.7196 111.244C26.8907 111.437 27.0549 111.634 27.2175 111.828C27.3816 112.02 27.5382 112.215 27.6936 112.408C28.9329 113.948 29.934 115.43 30.6739 116.73C30.8637 117.052 31.0276 117.369 31.1883 117.664C31.3393 117.966 31.4871 118.246 31.6106 118.517C31.7355 118.786 31.8532 119.035 31.9492 119.271C32.047 119.506 32.138 119.719 32.208 119.916C32.2802 120.112 32.3424 120.287 32.3928 120.44C32.44 120.594 32.4768 120.726 32.5027 120.833C32.5547 121.049 32.5635 121.169 32.5257 121.185C32.4878 121.201 32.4051 121.112 32.2829 120.929C32.2218 120.838 32.1507 120.723 32.0705 120.586C31.987 120.45 31.8927 120.293 31.7898 120.115C31.6891 119.937 31.5687 119.742 31.4429 119.527C31.3191 119.311 31.1748 119.081 31.0251 118.832C30.8768 118.583 30.7056 118.323 30.5332 118.044C30.3509 117.769 30.1674 117.475 29.9595 117.174C29.1477 115.962 28.1041 114.572 26.8501 113.108C26.6928 112.925 26.5349 112.74 26.3697 112.556C26.2059 112.371 26.0413 112.184 25.8699 111.998C25.5312 111.623 25.1798 111.246 24.8163 110.875C24.0882 110.134 23.3048 109.412 22.4187 108.811C21.9769 108.507 21.5201 108.235 21.0522 107.999C20.585 107.762 20.1114 107.552 19.6334 107.373C19.155 107.195 18.6754 107.043 18.1991 106.912C17.9889 106.856 17.7796 106.805 17.5713 106.756C17.51 106.748 17.4489 106.742 17.3882 106.733C17.1758 106.707 16.9668 106.681 16.7614 106.655C16.5556 106.631 16.3524 106.622 16.1531 106.604C16.0534 106.597 15.9545 106.589 15.8567 106.581C15.8078 106.577 15.7591 106.573 15.7106 106.569C15.6621 106.568 15.6138 106.567 15.5657 106.565C15.3733 106.559 15.1848 106.553 15.0004 106.548C14.908 106.545 14.8166 106.542 14.7263 106.539C14.636 106.541 14.5468 106.543 14.4587 106.544C14.106 106.552 13.7681 106.547 13.451 106.575C13.2917 106.585 13.1371 106.594 12.9871 106.604C12.9122 106.609 12.8378 106.61 12.7654 106.618C12.7522 106.62 12.7395 106.621 12.7263 106.623C12.8738 106.66 13.0247 106.7 13.1799 106.741C13.4815 106.815 13.79 106.918 14.1149 107.015C14.2779 107.062 14.4399 107.122 14.6069 107.179C14.7732 107.237 14.9437 107.294 15.1151 107.357C15.2855 107.423 15.4589 107.49 15.6349 107.559C15.7228 107.593 15.8121 107.626 15.9007 107.663C15.9889 107.701 16.0777 107.739 16.1672 107.777C16.3459 107.855 16.5286 107.931 16.7111 108.014C16.8923 108.099 17.0761 108.186 17.2622 108.274C17.4495 108.359 17.6328 108.458 17.8207 108.553C18.0077 108.651 18.199 108.745 18.3857 108.853C18.5738 108.958 18.7638 109.064 18.9557 109.172C19.1439 109.285 19.3341 109.4 19.5258 109.516C20.2874 109.988 21.0531 110.515 21.8058 111.096C22.555 111.681 23.2546 112.293 23.9007 112.914C24.0603 113.071 24.2186 113.226 24.3753 113.381C24.5269 113.54 24.677 113.698 24.8255 113.854C24.9759 114.008 25.1148 114.17 25.2553 114.327C25.3943 114.486 25.5356 114.639 25.6647 114.799C25.7957 114.958 25.9251 115.114 26.0528 115.269C26.1782 115.425 26.297 115.583 26.4163 115.737C26.4756 115.814 26.5344 115.891 26.5928 115.967C26.6504 116.044 26.7047 116.122 26.7601 116.199C26.8697 116.352 26.9777 116.503 27.0838 116.652C27.1874 116.803 27.2848 116.954 27.3823 117.1C27.4784 117.248 27.5768 117.39 27.663 117.536C27.8375 117.827 28.013 118.101 28.1596 118.375C28.3099 118.646 28.4557 118.902 28.5774 119.154C28.7014 119.404 28.8233 119.637 28.9204 119.864C29.02 120.089 29.1143 120.297 29.1935 120.492C29.27 120.688 29.3379 120.868 29.3968 121.031C29.426 121.112 29.4543 121.188 29.4777 121.262C29.4996 121.335 29.5201 121.404 29.5391 121.468C29.5757 121.597 29.6036 121.707 29.6224 121.797C29.66 121.977 29.6613 122.079 29.6235 122.095C29.5856 122.111 29.5105 122.041 29.4025 121.893C29.3486 121.819 29.2864 121.726 29.2166 121.614C29.1825 121.558 29.1457 121.498 29.1064 121.433C29.0662 121.369 29.0235 121.301 28.9783 121.229C28.8886 121.085 28.7912 120.924 28.6867 120.746C28.5782 120.572 28.4605 120.382 28.3341 120.178C28.2122 119.972 28.0671 119.761 27.9217 119.532C27.7785 119.302 27.6132 119.068 27.4453 118.819C27.281 118.568 27.09 118.318 26.9019 118.05C26.8089 117.916 26.7043 117.785 26.6024 117.649C26.4991 117.514 26.3966 117.375 26.2883 117.236C26.1781 117.099 26.0661 116.959 25.9523 116.817C25.8951 116.747 25.8392 116.674 25.7801 116.603C25.7203 116.533 25.6601 116.462 25.5994 116.391C25.4776 116.248 25.3569 116.102 25.2301 115.957C25.1016 115.813 24.9714 115.668 24.8395 115.521C24.7101 115.372 24.5691 115.23 24.4309 115.082C24.2912 114.936 24.1537 114.784 24.0052 114.64C23.8591 114.494 23.7114 114.347 23.5624 114.198C23.4091 114.053 23.2543 113.907 23.0983 113.759C22.4683 113.175 21.7932 112.596 21.0757 112.035C20.3547 111.479 19.6263 110.968 18.9047 110.502C18.7231 110.388 18.5432 110.274 18.3649 110.161C18.1835 110.054 18.0039 109.947 17.8262 109.842C17.6499 109.734 17.4693 109.638 17.2929 109.539C17.1157 109.441 16.943 109.34 16.7665 109.251C16.5913 109.16 16.4182 109.07 16.2475 108.981C16.0757 108.894 15.9037 108.813 15.7355 108.73C15.6513 108.689 15.5677 108.649 15.4848 108.608C15.4014 108.568 15.3174 108.532 15.2347 108.494C15.0691 108.419 14.9061 108.345 14.7458 108.272C14.5846 108.202 14.4242 108.137 14.2677 108.07C14.1107 108.005 13.9584 107.936 13.8051 107.879C13.4994 107.763 13.2093 107.64 12.9253 107.543C12.6428 107.442 12.3748 107.34 12.1166 107.258C11.8592 107.173 11.6182 107.085 11.3885 107.018C11.3243 106.998 11.2617 106.978 11.2 106.959C11.0526 107.66 11.3011 108.481 11.7768 109.051C12.4593 109.87 13.472 110.32 14.4127 110.822C18.6962 113.105 22.0936 117.002 23.7706 121.557C21.9994 119.009 20.1885 116.418 17.7311 114.523C15.2736 112.627 12.0222 111.502 9.02383 112.306C11.2795 115.305 13.5544 118.325 16.3501 120.828C19.1457 123.332 22.5308 125.313 26.2455 125.85C31.4284 126.598 37.087 124.561 41.7648 126.913C41.0258 120.095 37.1868 113.674 31.53 109.796ZM-17.6678 129.627C-21.7082 126.856 -26.6247 125.419 -31.5202 125.466C-31.2538 125.519 -30.9851 125.578 -30.7141 125.643C-30.6546 125.658 -30.5947 125.674 -30.5351 125.69C-30.4623 125.7 -30.3893 125.711 -30.3163 125.723C-30.0816 125.766 -29.8437 125.809 -29.6028 125.853C-29.5426 125.864 -29.4822 125.875 -29.4216 125.886C-29.3612 125.898 -29.3014 125.913 -29.2409 125.927C-29.1203 125.955 -28.9988 125.983 -28.8767 126.011C-28.6327 126.069 -28.3843 126.122 -28.1391 126.197C-27.8927 126.268 -27.6437 126.339 -27.3921 126.411C-27.1442 126.495 -26.8939 126.579 -26.6414 126.664C-25.6376 127.022 -24.622 127.46 -23.621 127.986C-22.6261 128.519 -21.6941 129.108 -20.8298 129.724C-20.616 129.881 -20.4041 130.037 -20.1942 130.191C-19.9904 130.352 -19.7885 130.513 -19.5887 130.671C-19.3866 130.826 -19.1992 130.995 -19.0089 131.156C-18.8201 131.318 -18.6307 131.476 -18.4542 131.643C-18.2756 131.808 -18.0992 131.97 -17.9252 132.131C-17.7548 132.295 -17.5901 132.46 -17.4263 132.621C-17.3448 132.702 -17.2637 132.783 -17.1833 132.862C-17.1054 132.944 -17.0281 133.026 -16.9514 133.107C-16.7986 133.269 -16.6483 133.428 -16.5005 133.585C-16.3577 133.746 -16.2173 133.905 -16.0795 134.06C-15.9427 134.217 -15.8057 134.367 -15.6804 134.523C-15.4276 134.832 -15.1785 135.123 -14.9592 135.416C-14.7364 135.705 -14.5226 135.979 -14.3341 136.249C-14.1434 136.517 -13.96 136.766 -13.8024 137.01C-13.6427 137.251 -13.4928 137.475 -13.3614 137.685C-13.232 137.897 -13.1155 138.091 -13.0127 138.267C-12.9085 138.442 -12.8224 138.601 -12.7513 138.742C-12.6794 138.881 -12.6214 139.001 -12.5779 139.101C-12.491 139.299 -12.462 139.413 -12.4964 139.436C-12.5308 139.459 -12.6267 139.388 -12.7774 139.234C-12.8527 139.157 -12.9418 139.059 -13.0437 138.941C-13.1448 138.822 -13.2612 138.686 -13.3921 138.533C-13.5228 138.379 -13.666 138.207 -13.8208 138.018C-13.9784 137.831 -14.1495 137.628 -14.3334 137.411C-14.5134 137.19 -14.7174 136.964 -14.9271 136.719C-15.1349 136.473 -15.3657 136.223 -15.6039 135.956C-15.8387 135.687 -16.1008 135.42 -16.365 135.135C-16.4961 134.991 -16.638 134.852 -16.7793 134.708C-16.9211 134.564 -17.0654 134.418 -17.2123 134.269C-17.3628 134.124 -17.5159 133.976 -17.6715 133.826C-17.7492 133.751 -17.8275 133.675 -17.9064 133.599C-17.9874 133.525 -18.069 133.451 -18.1512 133.376C-18.3155 133.226 -18.4822 133.074 -18.6512 132.92C-18.8244 132.771 -18.9997 132.62 -19.1774 132.467C-19.3525 132.311 -19.5395 132.165 -19.7253 132.014C-19.9128 131.864 -20.0969 131.706 -20.2946 131.562C-20.4895 131.414 -20.6866 131.264 -20.8854 131.113C-21.0892 130.969 -21.2948 130.823 -21.5023 130.677C-22.3388 130.1 -23.2323 129.545 -24.1798 129.037C-24.3504 128.947 -24.5214 128.861 -24.6924 128.776C-24.2849 129.141 -23.9035 129.519 -23.5431 129.897C-23.1691 130.29 -22.8164 130.684 -22.4785 131.075C-22.3074 131.269 -22.1432 131.465 -21.9806 131.659C-21.8165 131.852 -21.6599 132.047 -21.5045 132.239C-20.2653 133.78 -19.2641 135.261 -18.5243 136.561C-18.3344 136.883 -18.1706 137.2 -18.0098 137.496C-17.8589 137.797 -17.711 138.078 -17.5875 138.348C-17.4627 138.618 -17.3449 138.867 -17.249 139.103C-17.1511 139.337 -17.0602 139.551 -16.9901 139.748C-16.9179 139.944 -16.8557 140.119 -16.8053 140.271C-16.7581 140.426 -16.7214 140.557 -16.6953 140.665C-16.6434 140.88 -16.6346 141.001 -16.6725 141.016C-16.7103 141.032 -16.793 140.943 -16.9152 140.761C-16.9763 140.669 -17.0474 140.554 -17.1276 140.417C-17.2111 140.282 -17.3054 140.125 -17.4083 139.947C-17.509 139.768 -17.6295 139.574 -17.7553 139.358C-17.879 139.142 -18.0233 138.913 -18.173 138.664C-18.3214 138.414 -18.4925 138.155 -18.6649 137.875C-18.8472 137.601 -19.0307 137.306 -19.2386 137.006C-20.0504 135.794 -21.0941 134.404 -22.348 132.94C-22.5053 132.757 -22.6633 132.571 -22.8285 132.387C-22.9922 132.203 -23.1568 132.015 -23.3283 131.83C-23.667 131.455 -24.0183 131.078 -24.3818 130.707C-25.1099 129.966 -25.8933 129.243 -26.7794 128.642C-27.2212 128.339 -27.678 128.067 -28.1459 127.831C-28.6131 127.594 -29.0868 127.383 -29.5647 127.205C-30.0431 127.027 -30.5227 126.875 -30.999 126.743C-31.2092 126.688 -31.4184 126.636 -31.6267 126.588C-31.688 126.58 -31.7492 126.573 -31.8099 126.565C-32.0223 126.538 -32.2313 126.512 -32.4368 126.487C-32.6426 126.463 -32.8458 126.454 -33.0451 126.436C-33.1448 126.428 -33.2435 126.42 -33.3414 126.413C-33.3904 126.409 -33.4391 126.405 -33.4876 126.401C-33.5361 126.4 -33.5844 126.398 -33.6324 126.397C-33.8249 126.391 -34.0134 126.385 -34.1978 126.379C-34.2902 126.376 -34.3816 126.374 -34.4719 126.371C-34.5622 126.372 -34.6513 126.374 -34.7395 126.376C-35.0921 126.384 -35.43 126.378 -35.7471 126.407C-35.9064 126.417 -36.061 126.426 -36.211 126.435C-36.2859 126.441 -36.3603 126.442 -36.4326 126.45C-36.4459 126.451 -36.4586 126.453 -36.4717 126.454C-36.3242 126.492 -36.1734 126.532 -36.0181 126.572C-35.7165 126.647 -35.4081 126.749 -35.0831 126.846C-34.9201 126.893 -34.7581 126.954 -34.5912 127.01C-34.4249 127.068 -34.2544 127.125 -34.0829 127.189C-33.9125 127.255 -33.7392 127.322 -33.563 127.39C-33.4752 127.425 -33.3858 127.458 -33.2973 127.495C-33.2091 127.532 -33.1202 127.57 -33.0307 127.609C-32.8521 127.686 -32.6693 127.762 -32.4869 127.845C-32.3056 127.93 -32.1219 128.017 -31.9358 128.105C-31.7485 128.19 -31.5652 128.289 -31.3773 128.385C-31.1904 128.482 -30.9991 128.577 -30.8123 128.684C-30.6243 128.789 -30.4343 128.896 -30.2423 129.003C-30.0541 129.117 -29.8639 129.232 -29.6722 129.347C-28.9106 129.82 -28.1449 130.346 -27.3922 130.927C-26.643 131.512 -25.9434 132.124 -25.2973 132.745C-25.1377 132.902 -24.9794 133.058 -24.8227 133.212C-24.6711 133.371 -24.521 133.529 -24.3725 133.685C-24.2221 133.84 -24.0832 134.002 -23.9427 134.159C-23.8036 134.317 -23.6624 134.47 -23.5333 134.631C-23.4022 134.789 -23.2728 134.946 -23.1451 135.1C-23.0198 135.256 -22.901 135.415 -22.7817 135.568C-22.7224 135.646 -22.6636 135.722 -22.6052 135.798C-22.5475 135.875 -22.4932 135.953 -22.4379 136.03C-22.3283 136.184 -22.2204 136.335 -22.1142 136.484C-22.0106 136.634 -21.9133 136.785 -21.8157 136.932C-21.7196 137.08 -21.6212 137.222 -21.535 137.368C-21.3605 137.659 -21.185 137.932 -21.0383 138.206C-20.8881 138.477 -20.7423 138.734 -20.6206 138.985C-20.4966 139.236 -20.3747 139.468 -20.2776 139.695C-20.178 139.92 -20.0837 140.128 -20.0045 140.323C-19.928 140.52 -19.8602 140.7 -19.8012 140.862C-19.772 140.943 -19.7437 141.02 -19.7203 141.093C-19.6985 141.167 -19.6779 141.236 -19.6588 141.3C-19.6223 141.428 -19.5943 141.538 -19.5755 141.628C-19.538 141.809 -19.5367 141.911 -19.5745 141.927C-19.6124 141.943 -19.6875 141.872 -19.7954 141.724C-19.8494 141.65 -19.9116 141.557 -19.9813 141.446C-20.0155 141.389 -20.0523 141.329 -20.0916 141.265C-20.1317 141.201 -20.1744 141.133 -20.2196 141.061C-20.3094 140.916 -20.4068 140.755 -20.5113 140.578C-20.6197 140.403 -20.7375 140.213 -20.8639 140.01C-20.9858 139.804 -21.1309 139.592 -21.2763 139.363C-21.4195 139.134 -21.5848 138.899 -21.7527 138.651C-21.917 138.399 -22.108 138.149 -22.2961 137.882C-22.3891 137.747 -22.4937 137.617 -22.5956 137.481C-22.6989 137.346 -22.8014 137.206 -22.9097 137.068C-23.0199 136.93 -23.1319 136.791 -23.2457 136.649C-23.3028 136.578 -23.3588 136.506 -23.418 136.435C-23.4778 136.364 -23.538 136.294 -23.5986 136.222C-23.7204 136.08 -23.8411 135.933 -23.9679 135.788C-24.0964 135.645 -24.2266 135.5 -24.3585 135.352C-24.4879 135.203 -24.6289 135.061 -24.7671 134.914C-24.9068 134.767 -25.0443 134.616 -25.1928 134.472C-25.3389 134.326 -25.4865 134.178 -25.6356 134.029C-25.7889 133.884 -25.9436 133.738 -26.0997 133.591C-26.7297 133.007 -27.4048 132.427 -28.1223 131.867C-28.8433 131.31 -29.5718 130.8 -30.2934 130.334C-30.4749 130.219 -30.6549 130.105 -30.8331 129.993C-31.0145 129.885 -31.1941 129.778 -31.3718 129.673C-31.5481 129.565 -31.7288 129.469 -31.9051 129.37C-32.0824 129.273 -32.255 129.171 -32.4316 129.083C-32.6068 128.991 -32.7798 128.901 -32.9506 128.812C-33.1224 128.725 -33.2944 128.644 -33.4625 128.562C-33.5467 128.521 -33.6303 128.48 -33.7133 128.439C-33.7966 128.4 -33.8807 128.363 -33.9634 128.325C-34.129 128.25 -34.292 128.176 -34.4523 128.103C-34.6135 128.033 -34.7739 127.968 -34.9303 127.901C-35.0873 127.836 -35.2396 127.767 -35.3929 127.71C-35.6987 127.594 -35.9887 127.471 -36.2727 127.374C-36.5553 127.273 -36.8232 127.171 -37.0813 127.089C-37.3388 127.005 -37.5798 126.916 -37.8094 126.849C-37.8736 126.829 -37.9362 126.809 -37.9979 126.79C-38.1453 127.491 -37.8967 128.312 -37.4211 128.882C-36.7386 129.701 -35.7259 130.152 -34.7852 130.653C-30.5017 132.936 -27.1043 136.834 -25.4273 141.388C-27.1985 138.84 -29.0094 136.249 -31.4668 134.354C-33.9242 132.459 -37.1757 131.334 -40.1741 132.137C-37.9185 135.136 -35.6435 138.156 -32.8478 140.66C-30.0521 143.163 -26.6671 145.145 -22.9524 145.681C-17.7695 146.429 -12.1109 144.392 -7.43302 146.745C-8.17204 139.926 -12.0111 133.506 -17.6678 129.627ZM-37.5407 126.003L-37.5666 125.974C-37.5834 125.991 -37.5993 126.008 -37.6152 126.026C-37.5903 126.018 -37.5661 126.011 -37.5407 126.003ZM-27.3034 81.8709C-27.3277 81.8518 -27.3514 81.8333 -27.3763 81.8139L-27.3873 81.8592C-27.3592 81.864 -27.3313 81.8674 -27.3034 81.8709ZM-32.0233 76.3274C-32.1544 76.0322 -32.2815 75.7307 -32.4037 75.4224C-32.4298 75.3543 -32.4548 75.2848 -32.4805 75.216C-32.5206 75.1383 -32.5601 75.06 -32.5981 74.9805C-32.7175 74.7231 -32.8386 74.4622 -32.9611 74.198C-32.9915 74.1319 -33.0222 74.0656 -33.053 73.999C-33.0826 73.932 -33.1088 73.8634 -33.137 73.7954C-33.1924 73.6588 -33.2481 73.5214 -33.3041 73.3832C-33.4153 73.1064 -33.5335 72.8283 -33.6288 72.5387C-33.7289 72.2506 -33.83 71.9595 -33.9322 71.6655C-34.0209 71.3672 -34.1103 71.0661 -34.2006 70.7623C-34.5404 69.5409 -34.8097 68.2528 -34.9836 66.9186C-35.1463 65.5855 -35.2117 64.2754 -35.2047 63.0128C-35.1985 62.6973 -35.1924 62.3845 -35.1863 62.0748C-35.1688 61.7658 -35.1513 61.4597 -35.1341 61.1569C-35.1212 60.8537 -35.0854 60.5558 -35.0595 60.2606C-35.0307 59.9656 -35.0073 59.6735 -34.9657 59.3873C-34.9279 59.1007 -34.8904 58.8177 -34.8536 58.5385C-34.8107 58.2602 -34.7627 57.9868 -34.718 57.7169C-34.6952 57.5821 -34.6726 57.4483 -34.6501 57.3154C-34.6236 57.1834 -34.5974 57.0524 -34.5713 56.9224C-34.5182 56.6628 -34.4661 56.4072 -34.4148 56.156C-34.3559 55.9066 -34.298 55.6615 -34.2411 55.4209C-34.1827 55.1807 -34.1297 54.944 -34.0642 54.7155C-33.9367 54.2577 -33.8242 53.816 -33.6899 53.4023C-33.5608 52.9871 -33.4406 52.5913 -33.3076 52.2232C-33.1776 51.8541 -33.0605 51.5047 -32.9318 51.1848C-32.8061 50.8637 -32.6911 50.5647 -32.5767 50.2927C-32.4595 50.0218 -32.3503 49.7753 -32.2498 49.5549C-32.151 49.3337 -32.0548 49.1406 -31.967 48.9752C-31.8802 48.8094 -31.8031 48.6707 -31.7364 48.5605C-31.6031 48.34 -31.5114 48.2334 -31.4659 48.2513C-31.4205 48.2692 -31.4234 48.4108 -31.4702 48.6631C-31.4937 48.7892 -31.528 48.9431 -31.5728 49.1229C-31.6188 49.3025 -31.6718 49.5092 -31.7313 49.7416C-31.7911 49.974 -31.8602 50.231 -31.9382 50.5112C-32.0119 50.7926 -32.0919 51.0979 -32.1779 51.426C-32.2691 51.7523 -32.3494 52.1057 -32.4437 52.4774C-32.541 52.8482 -32.6265 53.2445 -32.7221 53.6584C-32.8229 54.0711 -32.9031 54.5091 -32.9998 54.9617C-33.0499 55.1877 -33.0878 55.4209 -33.1315 55.6573C-33.1743 55.8937 -33.2179 56.1345 -33.2623 56.3795C-33.3003 56.6254 -33.339 56.8755 -33.3783 57.1295C-33.398 57.2565 -33.4179 57.3844 -33.4379 57.5133C-33.4542 57.6427 -33.4706 57.7731 -33.4872 57.9044C-33.5203 58.1668 -33.554 58.4331 -33.588 58.7031C-33.6145 58.9736 -33.6412 59.2478 -33.6684 59.5254C-33.7001 59.8025 -33.714 60.0844 -33.7339 60.3689C-33.751 60.6537 -33.7787 60.9411 -33.784 61.2324C-33.7944 61.5235 -33.805 61.8175 -33.8156 62.1145C-33.8163 62.4114 -33.8169 62.7111 -33.8176 63.0136C-33.8057 64.2225 -33.7335 65.4719 -33.5787 66.7416C-33.549 66.9689 -33.5159 67.1943 -33.4812 67.4188C-33.4052 66.7722 -33.2987 66.1421 -33.1781 65.5328C-33.0516 64.8992 -32.9105 64.2866 -32.7613 63.6898C-32.69 63.3907 -32.6113 63.0963 -32.5343 62.8052C-32.4593 62.5137 -32.3767 62.2275 -32.2962 61.9447C-31.6462 59.6833 -30.8912 57.6945 -30.1332 56.0836C-29.95 55.6781 -29.7539 55.3016 -29.5765 54.9427C-29.3867 54.5892 -29.2149 54.2531 -29.0367 53.9477C-28.8601 53.6415 -28.6981 53.356 -28.5344 53.1011C-28.3731 52.8452 -28.2281 52.6104 -28.0842 52.4072C-27.9429 52.2025 -27.8155 52.0223 -27.7015 51.8685C-27.5838 51.717 -27.481 51.591 -27.394 51.4919C-27.2199 51.2936 -27.109 51.2027 -27.0675 51.2285C-27.0261 51.2544 -27.0561 51.3958 -27.1502 51.64C-27.1973 51.7621 -27.2604 51.91 -27.3387 52.0819C-27.4133 52.256 -27.5015 52.4553 -27.6039 52.6773C-27.7089 52.8978 -27.8155 53.1482 -27.9387 53.418C-28.0642 53.6866 -28.1886 53.9843 -28.3282 54.3004C-28.4692 54.6157 -28.6047 54.9602 -28.7587 55.3196C-28.9006 55.6849 -29.0616 56.0653 -29.2112 56.4733C-29.8341 58.0936 -30.4712 60.0614 -31.0369 62.2847C-31.1068 62.5629 -31.1793 62.8439 -31.2449 63.1304C-31.3125 63.4164 -31.3822 63.7051 -31.4451 63.999C-31.5776 64.5852 -31.7039 65.1855 -31.8158 65.7933C-32.0378 67.0093 -32.2038 68.2662 -32.1813 69.54C-32.1744 70.1779 -32.1257 70.8084 -32.0348 71.4252C-31.9454 72.042 -31.8255 72.6468 -31.672 73.2342C-31.5171 73.8213 -31.3368 74.3921 -31.1383 74.9453C-31.0484 75.1879 -30.9551 75.4266 -30.8596 75.6624C-30.825 75.7271 -30.7897 75.7913 -30.7562 75.856C-30.6365 76.0807 -30.5186 76.3018 -30.4028 76.5192C-30.285 76.7356 -30.1549 76.9397 -30.0354 77.1454C-29.9748 77.2477 -29.9147 77.3492 -29.8552 77.4496C-29.8255 77.4999 -29.796 77.55 -29.7665 77.5998C-29.7346 77.6479 -29.7029 77.6958 -29.6713 77.7434C-29.5452 77.9346 -29.4218 78.1219 -29.3009 78.3052C-29.2404 78.397 -29.1805 78.4878 -29.1214 78.5775C-29.058 78.6641 -28.9952 78.7498 -28.9333 78.8343C-28.6836 79.1716 -28.458 79.5043 -28.2129 79.793C-28.0943 79.9411 -27.979 80.085 -27.8673 80.2245C-27.8108 80.2938 -27.7585 80.3652 -27.7011 80.4299C-27.6906 80.4418 -27.6805 80.4532 -27.67 80.465C-27.7348 80.2961 -27.799 80.1217 -27.866 79.943C-28.0003 79.5987 -28.112 79.2287 -28.2402 78.8461C-28.3058 78.6551 -28.3581 78.4563 -28.4176 78.2552C-28.4749 78.0535 -28.5363 77.8487 -28.5922 77.6386C-28.6448 77.4277 -28.6982 77.2131 -28.7525 76.9951C-28.779 76.8859 -28.8078 76.7762 -28.8327 76.6649C-28.8564 76.5532 -28.8802 76.4407 -28.9042 76.3274C-28.9512 76.1005 -29.0025 75.8708 -29.047 75.6366C-29.088 75.4017 -29.1296 75.1636 -29.1717 74.9225C-29.2168 74.6818 -29.2462 74.4357 -29.282 74.1875C-29.3155 73.939 -29.3546 73.6881 -29.378 73.4329C-29.4044 73.1778 -29.4311 72.9201 -29.4581 72.6599C-29.4765 72.3989 -29.495 72.1353 -29.5138 71.8694C-29.576 70.8051 -29.5885 69.6996 -29.539 68.5694C-29.4827 67.4395 -29.3671 66.3399 -29.2056 65.286C-29.1621 65.023 -29.1189 64.7624 -29.0762 64.5042C-29.0251 64.2476 -28.9744 63.9935 -28.9243 63.742C-28.8772 63.49 -28.8148 63.2439 -28.7582 62.9996C-28.6994 62.7558 -28.6472 62.5135 -28.5797 62.2781C-28.5153 62.042 -28.4517 61.8088 -28.3888 61.5787C-28.3226 61.3497 -28.2501 61.1258 -28.1821 60.9042C-28.1476 60.7936 -28.1133 60.6838 -28.0793 60.5748C-28.0442 60.4662 -28.0052 60.3597 -27.9687 60.2534C-27.8942 60.0414 -27.821 59.8328 -27.749 59.6276C-27.6736 59.4237 -27.5934 59.2255 -27.5175 59.03C-27.4396 58.8352 -27.3689 58.6422 -27.2857 58.4581C-27.1224 58.089 -26.9765 57.731 -26.8107 57.4007C-26.6495 57.0685 -26.5 56.7509 -26.3386 56.46C-26.1801 56.1679 -26.0371 55.8898 -25.8832 55.6402C-25.7326 55.389 -25.5947 55.1546 -25.4592 54.9439C-25.3205 54.7349 -25.192 54.5454 -25.0742 54.3767C-25.015 54.2926 -24.9602 54.2126 -24.905 54.1398C-24.8483 54.068 -24.7953 54.0008 -24.7459 53.9383C-24.6459 53.8146 -24.5582 53.7122 -24.4833 53.632C-24.3335 53.4718 -24.2353 53.4007 -24.1938 53.4265C-24.1523 53.4523 -24.1695 53.5738 -24.2394 53.7801C-24.2744 53.8832 -24.3226 54.0076 -24.3832 54.1519C-24.4143 54.2236 -24.4477 54.3007 -24.4834 54.3831C-24.5182 54.4661 -24.5552 54.5542 -24.5944 54.6476C-24.6733 54.8339 -24.7635 55.0391 -24.8641 55.2621C-24.9599 55.4874 -25.0639 55.732 -25.1755 55.9946C-25.2923 56.2543 -25.3987 56.5405 -25.5215 56.8384C-25.647 57.1353 -25.7615 57.4567 -25.8886 57.7904C-26.0203 58.1223 -26.1331 58.4799 -26.2644 58.8461C-26.3317 59.0287 -26.3868 59.2199 -26.4494 59.4121C-26.5099 59.6052 -26.5752 59.8003 -26.636 60.0008C-26.6941 60.202 -26.7531 60.4066 -26.8131 60.6146C-26.8427 60.7186 -26.8748 60.8227 -26.9033 60.9288C-26.9307 61.0351 -26.9585 61.1423 -26.9864 61.2502C-27.0415 61.4663 -27.1014 61.6842 -27.1556 61.9068C-27.207 62.1301 -27.2592 62.3563 -27.312 62.5854C-27.3684 62.8135 -27.4102 63.0481 -27.459 63.2837C-27.5057 63.5198 -27.5586 63.7573 -27.5971 64.0004C-27.6391 64.2426 -27.6816 64.4874 -27.7245 64.7346C-27.7604 64.9829 -27.7966 65.2336 -27.8331 65.4865C-27.9695 66.4993 -28.0706 67.5529 -28.1247 68.6351C-28.1719 69.7176 -28.1696 70.7761 -28.1286 71.7972C-28.1158 72.0523 -28.1032 72.3054 -28.0906 72.5559C-28.0711 72.806 -28.0516 73.0536 -28.0323 73.2988C-28.0169 73.5443 -27.9862 73.7857 -27.9619 74.0251C-27.9352 74.2642 -27.9156 74.5016 -27.8807 74.734C-27.8495 74.967 -27.8188 75.1971 -27.7884 75.4242C-27.7552 75.6509 -27.7159 75.8735 -27.6813 76.0936C-27.6636 76.2038 -27.6461 76.313 -27.6286 76.4214C-27.6102 76.5297 -27.5879 76.6363 -27.5681 76.7427C-27.5278 76.9553 -27.4881 77.1645 -27.4491 77.3703C-27.4073 77.5755 -27.3606 77.7759 -27.3183 77.9737C-27.2739 78.171 -27.2369 78.3665 -27.1871 78.5545C-27.0905 78.9313 -27.0116 79.2978 -26.9114 79.6405C-26.8161 79.9846 -26.7321 80.3152 -26.6348 80.6224C-26.5405 80.9306 -26.4613 81.2254 -26.3692 81.4948C-26.3449 81.5711 -26.3212 81.6455 -26.2978 81.7188C-25.5149 81.3815 -24.8866 80.5771 -24.6574 79.7234C-24.3285 78.4984 -24.5839 77.2047 -24.7406 75.9462C-25.454 70.2156 -23.9901 64.24 -20.7081 59.487C-21.9737 62.9562 -23.2532 66.4931 -23.4135 70.1822C-23.5663 73.6964 -22.5439 77.4309 -19.9952 79.8213C-21.1988 80.3539 -22.2654 81.1833 -23.0225 82.2649C-23.8256 83.4124 -24.2893 84.7609 -24.9984 85.9688C-26.4267 88.4017 -28.9455 90.6254 -28.5557 93.419C-28.3204 95.1052 -27.0471 96.4314 -25.8393 97.6314C-24.276 99.1846 -22.6935 100.753 -20.8111 101.899C-18.3777 103.381 -15.5616 104.087 -12.7832 104.719L-12.3982 105.184C-17.8556 108.654 -24.709 109.873 -31.0235 108.465L-13.632 104.619C-16.7396 103.667 -20.1844 103.976 -23.1513 102.65C-24.6963 101.959 -26.0584 100.845 -27.6951 100.414C-29.3317 99.983 -31.4636 100.591 -31.874 102.233C-32.0963 103.122 -31.8044 104.216 -32.4553 104.862C-33.0021 105.404 -33.8927 105.291 -34.6416 105.471C-35.8749 105.768 -36.7388 106.906 -37.1906 108.092C-38.4235 111.325 -37.0342 115.346 -34.0679 117.128C-32.8675 117.849 -31.4899 118.218 -30.2357 118.841C-27.7096 120.096 -25.3167 122.454 -22.5563 121.871C-20.8901 121.519 -19.6547 120.157 -18.5408 118.868C-17.099 117.201 -15.6434 115.514 -14.6297 113.557C-13.3193 111.026 -12.8095 108.169 -12.3705 105.353L-12.3074 105.293L-12.2238 105.394C-12.2463 105.355 -12.268 105.316 -12.2903 105.277L-11.806 104.816C-9.38367 106.966 -7.40871 109.608 -5.993 112.522C-4.57501 115.436 -3.7267 118.619 -3.52707 121.857L-11.9853 106.182C-12.0521 109.431 -10.8147 112.659 -11.2805 115.876C-11.5229 117.55 -12.2235 119.165 -12.1911 120.857C-12.1586 122.549 -10.9913 124.433 -9.29975 124.378C-8.38347 124.349 -7.4108 123.769 -6.61196 124.218C-5.94068 124.596 -5.80664 125.483 -5.42821 126.155C-4.80711 127.259 -3.43633 127.788 -2.0646 127.913C-0.196286 128.083 1.76297 127.565 3.34106 126.563C3.73718 126.313 4.10443 126.033 4.44078 125.728C4.78032 125.422 5.08601 125.09 5.35288 124.738C5.88505 124.033 6.27199 123.239 6.45815 122.394C6.76036 121.026 6.61775 119.596 6.80299 118.208C6.98888 116.81 7.47 115.358 7.70023 113.949C7.93235 112.541 7.91829 111.177 7.18652 109.954C6.30432 108.478 4.63052 107.702 3.07465 106.994C1.06209 106.08 -0.952135 105.135 -3.11358 104.697C-5.90573 104.129 -8.79456 104.42 -11.6229 104.768L-12.3783 104.322C-12.189 104.48 -12.0031 104.641 -11.8189 104.804C-11.9969 104.925 -12.1765 105.043 -12.3578 105.159C-15.6526 99.3928 -16.484 92.2674 -14.5908 85.8998L-11.9623 103.512C-10.7969 100.478 -10.8651 97.0209 -9.33546 94.1532C-8.53901 92.66 -7.33207 91.3784 -6.78839 89.7757C-6.24467 88.1732 -6.7033 86.0048 -8.31286 85.4821C-9.18466 85.199 -10.2963 85.4146 -10.8952 84.7208C-11.3984 84.1379 -11.2236 83.2574 -11.3514 82.4981C-11.5618 81.2475 -12.6376 80.3072 -13.7887 79.7747C-15.5432 78.9631 -17.599 78.9511 -19.4184 79.5924C-18.1094 75.5322 -16.8294 71.4367 -16.333 67.2025C-15.8131 62.7678 -16.2042 58.1175 -18.2274 54.1375C-21.0502 48.5846 -26.9084 44.4786 -27.8246 38.3168C-33.9512 43.7103 -37.5673 51.8452 -37.4654 60.0051C-37.3931 65.833 -35.4234 71.5996 -32.0233 76.3274ZM21.6331 23.116C19.8331 25.9542 18.4382 29.3411 17.999 32.7037C17.5591 36.0655 18.0824 39.3952 20.0344 42.0831C22.5128 37.7956 24.5689 33.2977 26.1596 28.6566C26.5702 32.7135 25.482 36.8894 23.1398 40.2383C25.3224 37.7768 27.0632 34.9639 28.3299 31.9627C29.5948 28.9605 30.3731 25.7663 30.5943 22.5192C31.6494 26.7861 30.967 31.2878 29.0458 35.2125C27.1202 39.1312 23.9363 42.4883 19.8902 44.3071L18.4854 44.6652C20.7411 44.3695 22.8494 43.611 24.7695 42.5178C25.7341 41.9717 26.6512 41.3416 27.5147 40.6416C28.3781 39.9415 29.2012 39.1737 29.9585 38.3481C33.0016 35.0457 35.1759 30.8639 36.1533 26.5515C37.1261 22.2378 37.1405 17.8319 36.6175 13.389C36.0936 8.94884 35.0326 4.4723 33.8336 0.0905642C33.99 4.49596 32.0307 8.70261 29.5501 12.3686C27.0705 16.0269 24.0353 19.3266 21.6331 23.116ZM48.6578 23.4557C47.3206 24.1951 46.1587 25.0928 45.5961 26.4964C44.9117 28.1865 45.3781 30.0616 45.8553 31.7788C46.47 33.9999 47.1132 36.2424 48.2503 38.232C49.7208 40.8042 51.9432 42.8395 54.1648 44.7924L54.3406 45.6869C54.2265 42.1922 54.895 38.661 56.2553 35.4033C57.6126 32.1439 59.6499 29.1492 62.2359 26.7235C59.89 32.5072 57.6452 38.2946 55.5167 44.0958C58.0906 41.9056 59.7812 38.7247 62.6423 36.9159C63.3839 36.4433 64.1951 36.0767 64.9838 35.6826C65.7728 35.2886 66.5365 34.8645 67.1998 34.2893C67.8621 33.7129 68.3711 32.8778 68.5733 32.0242C68.7766 31.1719 68.6693 30.297 68.0876 29.6387C67.4577 28.9253 66.3474 28.535 66.1806 27.5955C66.0409 26.806 66.666 26.1024 66.9623 25.3538C67.4475 24.1188 66.9962 22.7003 66.2589 21.6076C65.2526 20.1169 63.6847 19.0743 61.946 18.6018C60.2084 18.1295 58.295 18.2242 56.6278 19.0093C55.274 19.6405 54.1234 20.6439 52.8259 21.3914C51.5205 22.1456 49.999 22.7193 48.6578 23.4557ZM61.0656 39.9094C59.1275 42.147 57.9496 44.9276 56.8706 47.6703L56.0935 48.1394C56.3302 48.0444 56.5685 47.9544 56.8078 47.8671C56.8306 48.089 56.8503 48.3111 56.8672 48.5333C53.4253 48.6078 49.9673 47.9914 46.7424 46.7521C43.5207 45.5145 40.5385 43.6578 38.0725 41.2455C43.9331 43.2243 49.7627 45.2635 55.5575 47.3599C53.3624 44.7962 50.1653 43.1607 48.3085 40.338C47.3422 38.8669 46.7874 37.1183 45.5994 35.8224C44.4146 34.5282 42.1839 33.8842 40.8779 35.1442C40.1701 35.8256 39.7962 36.9705 38.8547 37.2012C38.0617 37.394 37.339 36.8056 36.5733 36.5613C35.3116 36.1581 33.8911 36.727 32.8148 37.5699C31.3412 38.7152 30.3498 40.4081 29.9342 42.2069C29.5226 44.01 29.6859 45.9169 30.5248 47.5183C31.2021 48.8131 32.2335 49.8757 33.0163 51.1046C34.5878 53.5804 35.4765 56.9741 38.2615 57.8915C39.939 58.4451 41.7738 57.875 43.4527 57.3121C45.6316 56.5872 47.8289 55.8663 49.7838 54.6835C52.3126 53.1562 54.3139 50.922 56.2575 48.7041L56.8707 48.5825C57.1145 51.9223 56.7089 55.2901 55.7237 58.457C54.7413 61.6273 53.1798 64.5982 51.0949 67.1569C52.5406 61.2579 54.0851 55.3412 55.75 49.4281C53.3593 51.798 51.9864 55.0974 49.3636 57.1942C47.9993 58.2891 46.3235 59.0181 45.1637 60.3349C43.9971 61.6474 43.5862 63.9121 44.925 65.0465C45.6506 65.6621 46.7996 65.8993 47.1034 66.7975C47.358 67.551 46.8506 68.3185 46.6837 69.0928C46.4066 70.3664 47.0819 71.6812 47.9854 72.6374C49.218 73.9421 50.9259 74.7349 52.6898 74.9736C53.5719 75.0928 54.4681 75.0734 55.3274 74.9084C56.1876 74.744 57.0147 74.4372 57.753 73.9755C58.9456 73.2263 59.9047 72.1658 61.0348 71.3309C62.1826 70.4983 63.5586 69.8231 64.7493 69.027C65.3433 68.6277 65.8869 68.1942 66.3277 67.6896C66.771 67.187 67.1106 66.6122 67.2934 65.9264C67.7322 64.269 67.069 62.505 66.4132 60.8728C65.5644 58.7611 64.7237 56.6265 63.4254 54.7436C61.7489 52.3107 59.3943 50.4301 57.0391 48.6409L57.0152 48.5538L57.1482 48.5275C57.1012 48.5285 57.0555 48.5294 57.0088 48.5304L56.8251 47.861C59.9822 46.72 63.3627 46.2621 66.702 46.4773C70.0398 46.6899 73.3347 47.5739 76.3307 49.0868C70.2493 48.8574 64.1326 48.7278 57.9833 48.6997C60.9166 50.3659 64.4577 50.8661 67.1474 52.9001C68.549 53.9587 69.6773 55.3943 71.2253 56.2176C72.7735 57.0394 75.0344 56.9691 75.794 55.4533C76.209 54.6346 76.1573 53.4819 76.9483 53.0102C77.6136 52.615 78.4785 52.9574 79.2641 52.9743C79.9114 52.9885 80.5126 52.7729 81.041 52.4231C81.5708 52.0746 82.0302 51.5937 82.3888 51.0726C82.8775 50.3612 83.2173 49.5596 83.4154 48.7177C83.6125 47.875 83.6639 46.9883 83.5775 46.1102C83.4074 44.3573 82.6793 42.6306 81.4236 41.346C80.4072 40.3062 79.127 39.5673 78.0318 38.611C75.8236 36.6874 74.0392 33.691 71.1203 33.5446C70.2376 33.5002 69.3996 33.7416 68.6013 34.1207C67.8035 34.5001 67.0397 35.0118 66.3195 35.521C64.4487 36.8334 62.561 38.1754 61.0656 39.9094ZM10.4197 74.9657C10.1823 76.4168 9.55635 77.8117 9.55218 79.28C9.54895 80.748 10.4959 82.3967 11.9281 82.3697C12.7036 82.3576 13.5427 81.8694 14.208 82.2713C14.7667 82.6097 14.8553 83.3835 15.1553 83.9721C15.6496 84.9408 16.7562 85.4159 17.8187 85.5402C19.2693 85.7049 20.7507 85.2905 21.9882 84.4686C23.2239 83.6516 24.2144 82.4322 24.6652 80.9976C25.0301 79.8364 25.0668 78.5991 25.3387 77.4128C25.8844 75.0228 27.3889 72.5205 26.3401 70.3095C25.706 68.9738 24.3017 68.2155 22.9833 67.5465C21.2766 66.6822 19.5435 65.8152 17.6753 65.3887C15.261 64.8334 12.7431 65.0453 10.2881 65.3136L9.6378 64.9196C9.8003 65.0581 9.95978 65.1999 10.1176 65.3435C9.96185 65.4466 9.80478 65.5475 9.64644 65.6464C6.85991 60.6054 6.11819 54.4112 7.78967 48.8831C8.57099 53.9959 9.3101 59.109 10.0075 64.2193C11.0549 61.5954 11.0271 58.59 12.3956 56.1155C13.1091 54.827 14.1853 53.7333 14.6821 52.3482C15.1789 50.9654 14.7932 49.0654 13.364 48.589C12.5903 48.3305 11.6028 48.5005 11.0721 47.8921C10.6262 47.3795 10.7832 46.6154 10.6703 45.9532C10.4846 44.8619 9.52344 44.0311 8.49276 43.5598C5.67908 42.267 2.00921 43.2272 0.281884 45.7033C-0.418444 46.7044 -0.813338 47.8795 -1.42611 48.9335C-2.66215 51.0537 -4.84395 53.0136 -4.46595 55.4377C-4.23869 56.8989 -3.11418 58.0443 -2.05283 59.0776C-0.679478 60.4194 0.701262 61.7757 2.33442 62.7717C4.44525 64.0605 6.8809 64.6823 9.28261 65.2606L9.61132 65.668C7.22758 67.1473 4.56455 68.1504 1.8226 68.64C-0.920471 69.1322 -3.74312 69.1113 -6.45813 68.537C-1.49215 67.3576 3.51154 66.2279 8.54794 65.1657C5.86081 64.3129 2.87652 64.5697 0.305137 63.4269C-1.0351 62.8336 -2.22167 61.8686 -3.64642 61.5098C-5.07071 61.1458 -6.91505 61.704 -7.24967 63.1348C-7.43141 63.9104 -7.16818 64.8568 -7.72249 65.4261C-8.18775 65.9038 -8.95576 65.8185 -9.59835 65.9886C-10.6564 66.2671 -11.382 67.2709 -11.7521 68.3085C-12.2572 69.724 -12.1971 71.2989 -11.6979 72.7053C-11.1979 74.1111 -10.2595 75.3493 -8.99623 76.1009C-7.97289 76.7054 -6.80505 77.013 -5.74037 77.5366C-3.59599 78.6028 -1.58594 80.6272 0.750949 80.1183C2.16385 79.8069 3.22379 78.631 4.18595 77.5137C5.43086 76.0676 6.69379 74.6151 7.58809 72.9217C8.74403 70.7339 9.22206 68.2571 9.63354 65.8156L9.68887 65.764L9.76014 65.8524C9.74115 65.818 9.72264 65.7844 9.70375 65.7501L10.1289 65.3538C12.204 67.2495 13.866 69.5744 15.0196 72.1303C16.1743 74.6845 16.821 77.4682 16.8848 80.2784C14.6409 75.688 12.3318 71.1075 9.95746 66.5385C9.86245 69.3608 10.8766 72.1797 10.4197 74.9657ZM33.2105 61.991C33.908 60.6571 34.0541 59.0876 33.7166 57.6199C33.3794 56.1529 32.5586 54.7838 31.3307 53.8673C30.3378 53.1218 29.1528 52.6712 28.0984 52.0112C25.9761 50.6861 24.0422 48.4236 21.544 48.6914C20.0379 48.8511 18.8397 49.9305 17.76 50.9559C16.3625 52.2812 14.958 53.6326 13.9288 55.2508C12.5985 57.3432 11.9532 59.7821 11.3697 62.1885L10.7753 62.6668C15.8645 59.768 22.2579 59.1645 27.8638 61.0586C22.6857 61.6183 17.5354 62.2343 12.4112 62.9182C15.0353 63.9712 18.0481 63.9771 20.507 65.3793C21.7871 66.1072 22.8665 67.1914 24.2407 67.7108C25.6146 68.2297 27.5113 67.9048 28.0228 66.5269C28.2998 65.7799 28.1492 64.8068 28.7754 64.3115C29.3017 63.8956 30.066 64.0779 30.734 63.9982C31.8346 63.8649 32.699 62.9686 33.2105 61.991ZM-9.21972 101.976C-6.18563 103.14 -2.72741 103.071 0.139819 104.599C1.6312 105.393 2.91461 106.599 4.53409 107.116C5.3423 107.376 6.29295 107.373 7.0921 107.097C7.89219 106.823 8.53696 106.271 8.75753 105.456C8.99473 104.571 8.74619 103.473 9.38818 102.839C9.92406 102.303 10.7629 102.422 11.4637 102.23C12.0414 102.075 12.5236 101.699 12.9085 101.219C13.292 100.734 13.5772 100.141 13.7677 99.54C14.2858 97.9005 14.2048 96.0893 13.7595 94.4939C13.5316 93.6911 13.2109 92.9428 12.7984 92.2822C12.5941 91.9542 12.3608 91.6425 12.1118 91.3657C11.8573 91.0838 11.585 90.8341 11.2844 90.6136C10.3169 89.9032 9.15066 89.5155 8.0643 88.8528C6.97324 88.1866 5.89109 87.223 4.71923 86.4739C4.57228 86.38 4.42549 86.2901 4.27628 86.2042C4.12503 86.1177 3.97295 86.0358 3.81969 85.9594C3.51463 85.8068 3.19934 85.675 2.87987 85.5733C2.24044 85.3698 1.57755 85.2857 0.879 85.3832C-0.807582 85.6188 -2.13441 86.8922 -3.33489 88.1001C-4.88878 89.6635 -6.45778 91.246 -7.60468 93.1283C-9.08732 95.5616 -9.79396 98.3773 -10.4271 101.155L-11.1026 101.715C-8.19834 100.01 -4.93735 98.9384 -1.59556 98.532C0.0739093 98.3278 1.77498 98.2958 3.41521 98.416C5.05692 98.5355 6.64911 98.8058 8.17068 99.214C5.4243 99.778 2.52968 100.222 -0.411624 100.659L-9.21972 101.976ZM-80.2814 105.403C-78.548 106.159 -76.7188 106.571 -74.8645 106.81C-73.0104 107.047 -71.1285 107.115 -69.2636 107.163L-68.3687 107.9C-68.7373 107.483 -69.0947 107.052 -69.4403 106.605C-69.7842 106.159 -70.1016 105.7 -70.4148 105.227C-71.0462 104.28 -71.5912 103.286 -72.0937 102.247C-72.3462 101.727 -72.5659 101.202 -72.7831 100.664C-72.9979 100.127 -73.2015 99.5797 -73.3763 99.03C-73.5547 98.4789 -73.72 97.9195 -73.8707 97.3534C-74.0133 96.7913 -74.1421 96.2225 -74.2569 95.6482C-74.7046 93.3582 -74.891 91.0009 -74.8018 88.6828C-74.7143 86.3632 -74.3676 84.0722 -73.7733 81.8758C-73.4514 83.8531 -73.1266 85.826 -72.7641 87.8126C-72.59 88.7996 -72.3949 89.7977 -72.2069 90.7834L-71.9074 92.2685C-71.8061 92.7627 -71.7079 93.2537 -71.5976 93.749L-71.2736 95.2258C-71.1658 95.7162 -71.0448 96.21 -70.9304 96.699C-70.7052 97.6762 -70.4493 98.6555 -70.2001 99.6233C-69.681 101.564 -69.1311 103.479 -68.5018 105.361C-68.3113 104.292 -68.1803 103.216 -68.1047 102.131C-68.0563 101.59 -68.019 101.047 -67.9852 100.503C-67.9546 99.9592 -67.9043 99.4182 -67.8629 98.8762C-67.6799 96.7125 -67.3802 94.5689 -66.4946 92.6143C-65.5756 90.5753 -64.0791 88.831 -63.4331 86.7212C-62.792 84.6125 -63.4406 81.7929 -65.5568 81.1364C-66.7035 80.7823 -68.1567 81.0937 -68.9523 80.1904C-69.6209 79.4303 -69.4054 78.2575 -69.5811 77.2602C-69.8719 75.6111 -71.2904 74.3973 -72.8036 73.7095C-74.8679 72.7745 -77.2416 72.6838 -79.4214 73.3011C-79.9664 73.4554 -80.4992 73.654 -81.012 73.8945C-81.5252 74.14 -82.0186 74.4284 -82.4841 74.7573C-83.4151 75.409 -84.2352 76.249 -84.8809 77.2316C-85.1422 77.6287 -85.3746 78.0564 -85.5917 78.4867C-85.8082 78.9215 -86.0107 79.3547 -86.2059 79.8117C-86.5975 80.7192 -86.9756 81.6292 -87.4274 82.5282C-88.3447 84.3106 -89.6008 86.1298 -90.5475 88.0343C-91.4814 89.9629 -92.1102 91.9817 -91.7154 94.1558C-91.2476 96.7669 -89.394 98.6132 -87.632 100.193C-87.3458 100.447 -87.0594 100.702 -86.7739 100.956C-86.4836 101.211 -86.1919 101.463 -85.8986 101.71C-85.3117 102.205 -84.7178 102.682 -84.1126 103.13C-83.5107 103.576 -82.8825 104.003 -82.245 104.385C-81.6064 104.768 -80.9532 105.111 -80.2814 105.403ZM-44.91 139.357C-44.6655 139.15 -44.427 138.928 -44.1954 138.692C-43.7324 138.219 -43.2971 137.688 -42.8982 137.105C-42.7971 136.957 -42.7029 136.813 -42.6122 136.666C-42.5209 136.519 -42.4321 136.369 -42.3458 136.216C-42.1732 135.91 -42.011 135.592 -41.8599 135.263C-41.7098 134.936 -41.5672 134.592 -41.4436 134.249C-41.3236 133.912 -41.2158 133.567 -41.1213 133.212C-41.0448 132.926 -40.9765 132.636 -40.9145 132.343C-40.8525 132.05 -40.7956 131.752 -40.7522 131.471C-40.6611 130.9 -40.5889 130.322 -40.5221 129.741L-40.473 129.306L-40.4306 128.887C-40.4012 128.607 -40.3719 128.328 -40.3426 128.049C-40.2815 127.494 -40.2081 126.924 -40.1244 126.406C-40.0373 125.874 -39.9282 125.337 -39.8074 124.796L-39.7165 124.401L-39.6233 124.013L-39.4304 123.233C-39.3028 122.724 -39.175 122.214 -39.0477 121.705C-38.9262 121.21 -38.8133 120.709 -38.7193 120.223C-38.6252 119.754 -38.5497 119.289 -38.5034 118.829C-38.4918 118.714 -38.482 118.599 -38.4742 118.484C-38.4664 118.37 -38.4607 118.254 -38.4563 118.149C-38.448 117.934 -38.4481 117.72 -38.4582 117.508C-38.4682 117.295 -38.488 117.085 -38.5191 116.876C-38.5345 116.771 -38.5528 116.667 -38.574 116.563L-38.608 116.408L-38.6454 116.263C-38.7509 115.876 -38.9062 115.497 -39.1215 115.126C-39.3837 114.667 -39.7057 114.307 -40.0821 113.969C-40.4576 113.634 -40.8856 113.331 -41.3422 113.061C-42.2484 112.548 -43.2817 112.126 -44.2824 111.72C-45.5693 111.215 -46.8592 110.701 -48.1835 110.22C-49.497 109.759 -50.8384 109.341 -52.2366 109.033C-54.0456 108.636 -55.8924 108.449 -57.7566 108.393C-59.6216 108.337 -61.5034 108.414 -63.367 108.521L-63.4607 108.459L-63.3533 108.33C-63.398 108.368 -63.4414 108.405 -63.4859 108.443L-64.2053 107.965C-63.9402 107.518 -63.6636 107.082 -63.3761 106.658C-63.0808 106.233 -62.7692 105.819 -62.4505 105.418C-61.8204 104.616 -61.1084 103.859 -60.3774 103.154C-60.0141 102.802 -59.6234 102.459 -59.2324 102.131C-58.8398 101.803 -58.4391 101.488 -58.0308 101.186C-57.2042 100.58 -56.3397 100.023 -55.4541 99.5225C-54.5588 99.0183 -53.6324 98.565 -52.6885 98.167C-51.7447 97.7693 -50.7621 97.4159 -49.7735 97.1213C-49.2779 96.9735 -48.7784 96.839 -48.2751 96.718C-47.7714 96.5965 -47.2591 96.4848 -46.7467 96.3885C-45.7205 96.1947 -44.6826 96.0543 -43.6367 95.9667C-50.1197 99.387 -56.457 103.084 -62.4058 107.834C-60.3103 107.46 -58.3231 106.742 -56.292 106.136C-54.2688 105.527 -52.2466 105.043 -50.1139 105.028C-49.0063 105.021 -47.8934 105.139 -46.785 105.217C-45.6767 105.297 -44.5729 105.337 -43.485 105.201C-42.9411 105.134 -42.3974 104.997 -41.8957 104.809C-41.3917 104.618 -40.939 104.384 -40.5524 104.098C-39.7783 103.524 -39.3453 102.807 -39.5251 101.959C-39.5764 101.731 -39.6729 101.502 -39.7821 101.272C-39.8896 101.042 -40.0031 100.804 -40.1005 100.572C-40.1969 100.339 -40.2734 100.107 -40.2976 99.8807C-40.3224 99.6547 -40.2942 99.4326 -40.1738 99.2115C-39.9751 98.8434 -39.5928 98.6123 -39.1584 98.4213C-38.7238 98.2301 -38.2393 98.0811 -37.8242 97.8618C-37.4841 97.6831 -37.1974 97.4602 -36.959 97.2054C-36.7197 96.9494 -36.5339 96.668 -36.3778 96.3495C-36.0694 95.7174 -35.9421 95.0164 -35.9205 94.298C-35.9151 94.0556 -35.9237 93.8131 -35.9455 93.571C-35.9565 93.45 -35.9708 93.3291 -35.9883 93.2082C-36.0045 93.0856 -36.0231 92.9616 -36.0454 92.8388C-36.1338 92.3466 -36.273 91.8588 -36.4578 91.3808C-36.6403 90.899 -36.8623 90.4172 -37.1284 89.9572C-37.3937 89.4957 -37.7012 89.053 -38.0372 88.6199C-38.7122 87.7587 -39.5346 86.9959 -40.4568 86.3666C-41.3786 85.7366 -42.4074 85.2551 -43.5055 84.977C-45.2829 84.5263 -47.1465 84.5674 -48.954 84.2577C-50.7743 83.9456 -52.658 83.2827 -54.4904 82.9116C-56.3213 82.5406 -58.1086 82.465 -59.7219 83.3425C-61.6765 84.4041 -62.6878 86.5755 -63.5475 88.622C-64.6573 91.2679 -65.7273 93.9934 -66.0332 96.8718C-66.0813 97.3364 -66.1124 97.8012 -66.1263 98.2655C-66.133 98.7307 -66.124 99.1953 -66.1014 99.6586C-66.0898 99.8903 -66.0759 100.122 -66.0569 100.353C-66.0347 100.584 -66.0093 100.815 -65.981 101.045C-65.9244 101.506 -65.8565 101.965 -65.7787 102.421C-65.6918 102.878 -65.5953 103.332 -65.4917 103.783C-65.438 104.008 -65.3844 104.233 -65.3309 104.457C-65.2724 104.681 -65.2093 104.904 -65.1466 105.126C-65.0203 105.571 -64.889 106.012 -64.7546 106.45C-64.6148 106.887 -64.4629 107.32 -64.3152 107.75C-64.4368 108.102 -64.5691 108.455 -64.6821 108.811C-64.5401 108.531 -64.3758 108.256 -64.2167 107.984C-64.015 108.174 -63.8163 108.365 -63.6202 108.558C-64.4195 109.261 -65.259 109.942 -66.126 110.599C-66.9836 111.255 -67.8751 111.884 -68.7952 112.48C-70.6181 113.665 -72.562 114.721 -74.5671 115.571C-78.5878 117.29 -82.9184 118.227 -87.2708 118.174C-80.2175 114.73 -73.1103 111.242 -65.8372 108.512C-67.9366 108.189 -70.0906 108.278 -72.2301 108.317C-74.3694 108.35 -76.4945 108.334 -78.5341 107.658C-79.5962 107.306 -80.6165 106.772 -81.6452 106.274C-82.6722 105.776 -83.6951 105.321 -84.7919 105.135C-85.8868 104.95 -87.109 105.193 -88.0969 105.844C-88.5865 106.172 -89.0119 106.606 -89.3329 107.134C-89.4931 107.398 -89.6268 107.686 -89.7281 107.997C-89.7788 108.152 -89.8213 108.313 -89.855 108.479C-89.8865 108.643 -89.9077 108.812 -89.9199 108.987C-89.9462 109.365 -89.9279 109.756 -89.8965 110.148C-89.8643 110.538 -89.8235 110.941 -89.7891 111.304C-89.7254 112.044 -89.7376 112.75 -90.0779 113.347C-90.6393 114.316 -91.8117 114.399 -92.7256 114.891C-93.1017 115.094 -93.4344 115.373 -93.7257 115.708C-94.0156 116.034 -94.262 116.403 -94.4702 116.813C-94.6781 117.22 -94.8473 117.667 -94.979 118.121C-95.1094 118.557 -95.2033 119.008 -95.2633 119.456C-95.2838 119.609 -95.3008 119.762 -95.3143 119.916C-95.3278 120.068 -95.3379 120.226 -95.3446 120.368C-95.358 120.658 -95.3578 120.949 -95.3449 121.24C-95.3319 121.53 -95.3061 121.82 -95.2679 122.108C-95.2299 122.392 -95.181 122.653 -95.1194 122.923C-95.0581 123.191 -94.9849 123.456 -94.9004 123.718C-94.8582 123.848 -94.8129 123.98 -94.7654 124.107C-94.7186 124.228 -94.669 124.349 -94.6168 124.468C-94.4079 124.946 -94.1548 125.413 -93.8643 125.851C-93.2937 126.675 -92.5572 127.454 -91.7191 128.028C-91.2972 128.326 -90.8435 128.596 -90.3623 128.833C-89.8836 129.063 -89.3816 129.247 -88.8526 129.403C-87.9975 129.652 -87.1045 129.81 -86.2056 129.958C-85.3074 130.105 -84.399 130.25 -83.5265 130.455C-82.6458 130.665 -81.7614 130.957 -80.8759 131.268C-80.4304 131.425 -79.9819 131.584 -79.5472 131.738C-79.1053 131.892 -78.6691 132.035 -78.2299 132.169C-76.4757 132.698 -74.725 133.037 -72.9874 132.476C-72.4633 132.305 -71.9835 132.062 -71.5438 131.76C-71.1098 131.454 -70.7139 131.093 -70.3464 130.693C-70.1626 130.493 -69.9859 130.284 -69.815 130.068C-69.644 129.852 -69.4868 129.626 -69.33 129.397C-69.0189 128.94 -68.7251 128.466 -68.4428 127.994C-66.9944 125.551 -65.6103 122.964 -64.8698 120.176C-63.9099 116.567 -64.0673 112.821 -64.0569 109.205L-63.5768 108.601C-62.0741 110.052 -60.7132 111.561 -59.4625 113.186C-58.8468 113.99 -58.2503 114.838 -57.7056 115.698C-57.4301 116.132 -57.1624 116.579 -56.9076 117.026C-56.7798 117.252 -56.6557 117.474 -56.5327 117.705C-56.4094 117.936 -56.2889 118.169 -56.1712 118.403C-56.0536 118.637 -55.9387 118.873 -55.8269 119.109C-55.7717 119.228 -55.7165 119.346 -55.6611 119.465C-55.6072 119.587 -55.5532 119.709 -55.4991 119.831C-55.2859 120.32 -55.0844 120.814 -54.8948 121.313C-54.5179 122.333 -54.1855 123.365 -53.9153 124.459C-53.8471 124.73 -53.782 125.001 -53.7202 125.274C-53.6591 125.549 -53.6045 125.833 -53.5513 126.114C-53.4987 126.395 -53.4491 126.677 -53.403 126.96C-53.3564 127.243 -53.3134 127.526 -53.2792 127.821C-53.2079 128.403 -53.1501 128.989 -53.1062 129.576C-53.0716 130.176 -53.0523 130.78 -53.0466 131.383L-53.6784 129.889C-53.7822 129.64 -53.8932 129.4 -54.003 129.16L-54.3326 128.44C-54.7665 127.473 -55.2278 126.559 -55.6793 125.635C-56.5982 123.821 -57.5343 122.057 -58.4764 120.358L-61.2731 115.314C-62.1973 113.643 -63.0792 111.985 -63.9361 110.284C-64.0662 112.351 -63.7052 114.441 -63.3821 116.528C-63.0592 118.615 -62.7712 120.721 -63.0624 122.847C-63.3665 125.063 -64.2788 127.196 -64.3133 129.433C-64.3146 129.573 -64.3095 129.714 -64.3 129.856C-64.2926 129.998 -64.2795 130.141 -64.261 130.284C-64.2242 130.569 -64.1655 130.854 -64.0865 131.134C-64.0091 131.414 -63.9045 131.687 -63.7932 131.952C-63.6808 132.217 -63.5491 132.472 -63.3993 132.711C-63.1007 133.189 -62.7245 133.604 -62.2942 133.911C-61.8664 134.219 -61.3722 134.418 -60.8194 134.452C-60.2205 134.49 -59.5849 134.335 -58.9765 134.259C-58.3679 134.183 -57.7863 134.187 -57.296 134.569C-56.8841 134.891 -56.6648 135.388 -56.4992 135.937C-56.4125 136.21 -56.3589 136.507 -56.2913 136.796C-56.2261 137.087 -56.1568 137.375 -56.0656 137.648C-55.755 138.54 -55.2389 139.282 -54.5717 139.859C-53.9082 140.437 -53.1138 140.856 -52.3154 141.109C-50.1389 141.805 -47.7676 141.404 -45.6766 139.947C-45.4164 139.766 -45.1569 139.566 -44.91 139.357Z" fill="#146D57"/>
</svg>
