<svg width="116" height="166" viewBox="0 0 116 166" fill="none" xmlns="http://www.w3.org/2000/svg">
<path d="M76.3327 159.936C75.1192 158.757 73.1796 158.786 72.0005 160C70.8214 161.214 70.8493 163.153 72.0629 164.332C73.2764 165.511 75.216 165.482 76.3951 164.268C77.5743 163.054 77.5463 161.115 76.3327 159.936ZM67.2799 153.518C66.741 152.994 65.8798 153.007 65.3562 153.546C64.8327 154.085 64.8451 154.946 65.3839 155.47C65.9228 155.993 66.784 155.98 67.3076 155.441C67.8311 154.902 67.8187 154.041 67.2799 153.518ZM71.4513 155.966C70.4568 155 68.8673 155.023 67.901 156.018C66.9348 157.013 66.9577 158.602 67.9522 159.568C68.9467 160.534 70.5362 160.511 71.5024 159.516C72.4687 158.521 72.4458 156.931 71.4513 155.966ZM116.241 96.9815C117.933 96.9566 119.285 95.5649 119.261 93.8731C119.236 92.1812 117.845 90.8299 116.153 90.8548C114.461 90.8797 113.11 92.2714 113.134 93.9632C113.158 95.6551 114.55 97.0064 116.241 96.9815ZM112.44 93.9734C112.42 92.587 111.28 91.4796 109.893 91.4999C108.507 91.5203 107.399 92.6608 107.419 94.0473C107.439 95.4338 108.579 96.5412 109.965 96.5208C111.352 96.5004 112.46 95.3599 112.44 93.9734ZM105.251 95.4398C106.002 95.4287 106.602 94.8108 106.591 94.0595C106.581 93.3082 105.963 92.7082 105.212 92.7193C104.46 92.7303 103.86 93.3483 103.871 94.0995C103.882 94.8508 104.5 95.4508 105.251 95.4398ZM43.2865 88.3573C43.0575 86.6809 41.513 85.5079 39.8365 85.7373C38.1601 85.9668 36.9865 87.5118 37.2154 89.1882C37.4444 90.8646 38.9889 92.0376 40.6654 91.8081C42.3419 91.5787 43.5154 90.0336 43.2865 88.3573ZM40.3868 99.8232C40.4885 100.568 41.1743 101.088 41.9187 100.987C42.6631 100.885 43.1842 100.199 43.0825 99.4543C42.9809 98.7099 42.2951 98.1891 41.5507 98.2909C40.8063 98.3928 40.2852 99.0789 40.3868 99.8232ZM38.6114 95.3241C38.799 96.6979 40.0649 97.6592 41.4387 97.4711C42.8126 97.2831 43.7742 96.017 43.5866 94.6432C43.399 93.2694 42.1332 92.3081 40.7594 92.4961C39.3855 92.6842 38.4239 93.9503 38.6114 95.3241ZM116.472 57.5945C116.449 57.602 116.427 57.6107 116.405 57.6191C116.431 57.6236 116.456 57.6279 116.482 57.6325L116.472 57.5945ZM122.741 60.3775C122.787 60.4175 122.834 60.4592 122.88 60.4999C122.94 60.5417 123.001 60.5839 123.06 60.6278C123.251 60.7713 123.444 60.9168 123.639 61.064C123.688 61.1009 123.737 61.1379 123.786 61.1751C123.835 61.213 123.881 61.2535 123.929 61.2927C124.025 61.372 124.12 61.4518 124.217 61.532C124.409 61.693 124.606 61.8523 124.792 62.0292C124.98 62.203 125.17 62.3787 125.363 62.5561C125.547 62.7421 125.732 62.9298 125.92 63.1192C126.656 63.8898 127.366 64.7378 128.023 65.6577C128.672 66.5813 129.24 67.5263 129.735 68.4649C129.855 68.7013 129.975 68.9354 130.093 69.1675C130.202 69.4035 130.311 69.6372 130.418 69.8685C130.529 70.0983 130.62 70.3333 130.718 70.5623C130.813 70.7924 130.912 71.0182 130.994 71.2467C131.08 71.4741 131.164 71.6987 131.248 71.9202C131.326 72.1434 131.399 72.3651 131.473 72.5828C131.509 72.6917 131.546 72.7999 131.582 72.9073C131.614 73.0156 131.647 73.1231 131.679 73.2299C131.742 73.4433 131.805 73.6534 131.867 73.8599C131.922 74.0681 131.976 74.2727 132.029 74.4735C132.081 74.6747 132.136 74.8711 132.178 75.0664C132.264 75.4563 132.356 75.8282 132.421 76.1881C132.489 76.547 132.557 76.8879 132.604 77.2135C132.654 77.5385 132.706 77.8438 132.737 78.132C132.771 78.4197 132.805 78.6869 132.828 78.9339C132.848 79.1811 132.865 79.4071 132.878 79.6104C132.892 79.8134 132.897 79.9946 132.898 80.152C132.899 80.3093 132.897 80.4426 132.891 80.5507C132.88 80.767 132.854 80.8824 132.813 80.8871C132.773 80.8919 132.719 80.7858 132.653 80.5802C132.621 80.4774 132.585 80.3498 132.547 80.1988C132.51 80.0475 132.467 79.8733 132.42 79.6774C132.372 79.4815 132.321 79.2636 132.268 79.0251C132.211 78.7874 132.149 78.5293 132.083 78.2521C132.021 77.9742 131.941 77.6804 131.863 77.3676C131.789 77.0542 131.695 76.7267 131.602 76.382C131.513 76.0361 131.399 75.6798 131.291 75.306C131.239 75.1186 131.174 74.9308 131.113 74.7383C131.051 74.5461 130.988 74.3503 130.924 74.1511C130.855 73.9538 130.784 73.7531 130.713 73.5493C130.677 73.4474 130.641 73.3447 130.605 73.2411C130.566 73.1388 130.526 73.0356 130.486 72.9318C130.407 72.7241 130.326 72.5134 130.245 72.2999C130.157 72.0889 130.068 71.8751 129.978 71.6586C129.892 71.4407 129.79 71.2262 129.693 71.0075C129.592 70.7896 129.499 70.5656 129.387 70.3476C129.28 70.1278 129.171 69.9056 129.061 69.6813C128.944 69.4611 128.826 69.2386 128.706 69.0143C128.219 68.1229 127.67 67.2256 127.052 66.3458C126.94 66.1891 126.826 66.0352 126.711 65.8826C126.911 66.3919 127.082 66.9011 127.234 67.4005C127.392 67.9202 127.53 68.4302 127.656 68.9315C127.721 69.1816 127.78 69.4309 127.838 69.6772C127.898 69.923 127.95 70.1678 128.002 70.4094C128.417 72.343 128.645 74.1162 128.722 75.6105C128.747 75.9835 128.751 76.3403 128.761 76.6766C128.761 77.0138 128.766 77.331 128.755 77.628C128.746 77.9249 128.739 78.2007 128.719 78.4545C128.7 78.7081 128.686 78.9395 128.66 79.1472C128.636 79.3549 128.613 79.5389 128.59 79.698C128.563 79.857 128.536 79.9911 128.511 80.099C128.461 80.3149 128.414 80.4263 128.373 80.4235C128.332 80.4207 128.299 80.3041 128.272 80.0858C128.258 79.9766 128.246 79.8421 128.236 79.6836C128.222 79.525 128.209 79.3423 128.197 79.1373C128.187 78.9322 128.167 78.7044 128.151 78.4555C128.138 78.2067 128.112 77.9369 128.09 77.6473C128.07 77.3577 128.034 77.0487 128.006 76.7213C127.966 76.3943 127.935 76.0485 127.884 75.687C127.703 74.2392 127.396 72.5283 126.934 70.6564C126.876 70.4226 126.818 70.1855 126.753 69.9472C126.69 69.7085 126.627 69.4668 126.557 69.2241C126.423 68.7372 126.279 68.2422 126.121 67.7473C125.804 66.7581 125.429 65.7609 124.907 64.8256C124.649 64.3556 124.364 63.9076 124.052 63.4864C123.741 63.0648 123.412 62.664 123.066 62.2895C122.719 61.9157 122.359 61.5641 121.992 61.2328C121.83 61.0886 121.666 60.9487 121.502 60.8117C121.45 60.7774 121.399 60.7439 121.348 60.7092C121.17 60.5901 120.995 60.4729 120.823 60.3577C120.65 60.244 120.473 60.1443 120.303 60.0392C120.217 59.9873 120.133 59.936 120.049 59.8851C120.007 59.8596 119.965 59.8342 119.924 59.809C119.881 59.786 119.838 59.7631 119.796 59.7403C119.627 59.6485 119.461 59.5586 119.299 59.4707C119.218 59.4267 119.137 59.3832 119.058 59.3401C118.977 59.301 118.896 59.2624 118.817 59.2242C118.498 59.0732 118.199 58.9161 117.903 58.7992C117.756 58.7363 117.614 58.6754 117.476 58.6163C117.406 58.5874 117.339 58.5551 117.271 58.5299C117.259 58.5253 117.247 58.5209 117.234 58.5163C117.349 58.6158 117.466 58.7196 117.586 58.8255C117.822 59.0275 118.052 59.2574 118.298 59.4903C118.423 59.6058 118.54 59.7324 118.664 59.8579C118.786 59.9847 118.913 60.1122 119.038 60.2457C119.16 60.3812 119.285 60.5191 119.411 60.6591C119.474 60.7295 119.539 60.7994 119.602 60.872C119.664 60.9455 119.726 61.0193 119.789 61.0938C119.913 61.2433 120.042 61.3933 120.168 61.5492C120.292 61.707 120.417 61.867 120.544 62.029C120.672 62.1895 120.792 62.3603 120.917 62.5301C121.04 62.7009 121.168 62.8714 121.287 63.0513C121.407 63.2298 121.529 63.4103 121.652 63.5925C121.769 63.7787 121.888 63.9666 122.007 64.1563C122.475 64.9205 122.922 65.7349 123.333 66.5922C123.739 67.4519 124.089 68.3126 124.387 69.1577C124.459 69.3698 124.531 69.5802 124.601 69.7884C124.665 69.9988 124.728 70.2073 124.791 70.4135C124.856 70.619 124.907 70.8261 124.962 71.0295C125.015 71.2335 125.072 71.4337 125.115 71.635C125.161 71.8355 125.206 72.0336 125.251 72.229C125.293 72.425 125.328 72.6197 125.365 72.8108C125.383 72.9064 125.402 73.0014 125.419 73.0956C125.436 73.19 125.45 73.2844 125.465 73.3777C125.494 73.5643 125.522 73.748 125.55 73.9285C125.575 74.1095 125.594 74.2883 125.615 74.4632C125.635 74.6384 125.659 74.8095 125.67 74.9789C125.695 75.3171 125.729 75.6403 125.737 75.9508C125.749 76.2609 125.764 76.5555 125.76 76.8351C125.758 77.1144 125.762 77.3772 125.747 77.6232C125.735 77.869 125.726 78.0974 125.709 78.3072C125.689 78.5171 125.668 78.7084 125.648 78.8802C125.638 78.966 125.629 79.047 125.617 79.1229C125.603 79.1986 125.59 79.2693 125.578 79.3352C125.553 79.4666 125.529 79.5772 125.505 79.6663C125.458 79.8445 125.413 79.936 125.372 79.9333C125.331 79.9306 125.296 79.8338 125.266 79.6532C125.251 79.5629 125.237 79.4517 125.225 79.3207C125.22 79.2552 125.214 79.1848 125.208 79.1096C125.2 79.0344 125.193 78.9543 125.185 78.8696C125.17 78.7002 125.155 78.5124 125.141 78.3072C125.123 78.1023 125.103 77.8798 125.082 77.6409C125.066 77.4022 125.031 77.1479 125.004 76.8783C124.979 76.6086 124.937 76.325 124.899 76.0272C124.865 75.7291 124.807 75.4194 124.759 75.0959C124.737 74.9339 124.702 74.7704 124.672 74.6031C124.64 74.436 124.611 74.2655 124.577 74.0929C124.54 73.9207 124.503 73.7456 124.465 73.5677C124.446 73.4789 124.428 73.3889 124.407 73.299C124.386 73.2093 124.364 73.1189 124.342 73.0279C124.297 72.846 124.255 72.6607 124.207 72.4742C124.157 72.2884 124.106 72.1 124.054 71.9092C124.005 71.7178 123.943 71.5274 123.886 71.3335C123.827 71.14 123.772 70.943 123.704 70.7476C123.64 70.5514 123.574 70.3532 123.508 70.1529C123.436 69.9547 123.364 69.7546 123.29 69.5527C122.99 68.748 122.648 67.927 122.259 67.1035C121.865 66.2825 121.444 65.4989 121.009 64.7584C120.898 64.5743 120.789 64.3918 120.68 64.2111C120.566 64.0336 120.454 63.8577 120.342 63.6836C120.234 63.5078 120.115 63.341 120.002 63.1732C119.888 63.0065 119.779 62.8383 119.661 62.68C119.546 62.5196 119.432 62.3613 119.319 62.205C119.205 62.0501 119.087 61.9008 118.975 61.7513C118.918 61.6767 118.862 61.6027 118.806 61.5293C118.749 61.4563 118.69 61.3861 118.633 61.3152C118.519 61.1736 118.407 61.0342 118.297 60.8971C118.184 60.7617 118.07 60.6316 117.96 60.5018C117.849 60.3732 117.745 60.243 117.633 60.1233C117.412 59.8823 117.208 59.6419 116.998 59.4276C116.791 59.2104 116.598 58.9986 116.404 58.8095C116.212 58.6185 116.037 58.4314 115.862 58.2682C115.813 58.2213 115.766 58.1756 115.72 58.1305C115.273 58.6907 115.126 59.5358 115.295 60.2593C115.536 61.2976 116.238 62.1552 116.853 63.0259C119.653 66.9904 120.936 71.9994 120.387 76.8226C119.95 73.7499 119.497 70.6214 118.154 67.8238C116.811 65.0261 114.412 62.5602 111.373 61.9313C112.04 65.6244 112.715 69.3451 114.087 72.8379C115.459 76.3307 117.591 79.6224 120.668 81.7705C124.961 84.7675 130.93 85.4894 134.051 89.6931C136.455 83.268 135.912 75.8059 132.603 69.7985C130.239 65.5078 126.494 62.0143 122.1 59.8575C122.315 60.0243 122.528 60.1973 122.741 60.3775ZM137.112 60.4507C138.04 60.9747 139.147 61.0375 140.204 61.1733C145.019 61.7917 149.576 64.2335 152.757 67.8991C150.198 66.1432 147.587 64.3618 144.618 63.4594C141.649 62.557 138.209 62.6564 135.69 64.4698C138.861 66.4756 142.058 68.4944 145.559 69.8454C149.06 71.1964 152.928 71.8511 156.592 71.0372C161.704 69.9016 166.274 65.9928 171.482 66.5364C168.376 60.4216 162.512 55.7764 155.848 54.152C151.089 52.9919 145.982 53.3885 141.42 55.1664C141.688 55.1215 141.96 55.0811 142.237 55.0463C142.298 55.0392 142.359 55.0334 142.421 55.0269C142.492 55.0106 142.564 54.9947 142.637 54.9804C142.872 54.9371 143.109 54.8932 143.35 54.8488C143.41 54.8378 143.471 54.8267 143.531 54.8156C143.592 54.8055 143.653 54.7986 143.715 54.7898C143.838 54.7733 143.961 54.7568 144.085 54.7401C144.334 54.7075 144.585 54.6694 144.841 54.6525C145.096 54.6313 145.354 54.6099 145.615 54.5883C145.877 54.5785 146.141 54.5687 146.407 54.5589C147.472 54.5379 148.577 54.5882 149.7 54.7258C150.819 54.8723 151.899 55.0932 152.926 55.363C153.181 55.4341 153.434 55.5045 153.685 55.5743C153.933 55.6532 154.179 55.7315 154.422 55.8088C154.666 55.8827 154.901 55.9741 155.136 56.057C155.37 56.1422 155.603 56.2223 155.827 56.3161C156.052 56.4069 156.275 56.4965 156.494 56.585C156.712 56.6781 156.924 56.7744 157.135 56.8672C157.24 56.914 157.344 56.9604 157.447 57.0064C157.549 57.0556 157.65 57.1044 157.751 57.1529C157.951 57.2503 158.148 57.3463 158.342 57.4406C158.532 57.5407 158.72 57.6391 158.904 57.7357C159.087 57.8336 159.269 57.9261 159.441 58.0273C159.787 58.2269 160.123 58.4109 160.431 58.6067C160.742 58.7986 161.039 58.9793 161.311 59.1646C161.584 59.3476 161.844 59.516 162.078 59.6876C162.313 59.8571 162.532 60.0133 162.729 60.1633C162.925 60.3153 163.103 60.4558 163.262 60.5838C163.421 60.7105 163.558 60.8291 163.674 60.9352C163.791 61.0405 163.888 61.1323 163.963 61.2096C164.115 61.3642 164.182 61.4612 164.158 61.4944C164.134 61.5277 164.02 61.4957 163.824 61.4049C163.726 61.3594 163.608 61.2992 163.471 61.2251C163.335 61.1501 163.177 61.0637 163.001 60.9667C162.824 60.8693 162.629 60.7593 162.418 60.6373C162.204 60.5184 161.972 60.3894 161.723 60.2507C161.477 60.1083 161.206 59.969 160.923 59.8145C160.642 59.6577 160.337 59.5052 160.02 59.3408C159.705 59.1724 159.366 59.0155 159.017 58.842C158.844 58.754 158.662 58.6744 158.479 58.5894C158.295 58.505 158.108 58.4192 157.918 58.3318C157.726 58.2494 157.531 58.1656 157.332 58.0804C157.233 58.0378 157.133 57.9949 157.032 57.9516C156.93 57.9112 156.828 57.8706 156.724 57.8296C156.517 57.7478 156.308 57.6646 156.095 57.5805C155.881 57.5024 155.663 57.4232 155.443 57.343C155.224 57.2593 154.997 57.1889 154.77 57.1131C154.542 57.0396 154.313 56.957 154.077 56.8918C153.843 56.8224 153.605 56.7523 153.366 56.6815C153.124 56.6189 152.88 56.5556 152.634 56.4918C151.648 56.2485 150.616 56.0459 149.55 55.9061C149.358 55.8827 149.168 55.8626 148.978 55.8439C149.488 56.0411 149.979 56.2595 150.45 56.4852C150.939 56.7207 151.408 56.9637 151.862 57.21C152.091 57.3306 152.314 57.4563 152.535 57.5799C152.757 57.7019 152.972 57.829 153.186 57.9536C154.89 58.9558 156.351 59.9864 157.503 60.9405C157.795 61.1744 158.06 61.4127 158.315 61.6322C158.563 61.8606 158.801 62.0708 159.012 62.2797C159.224 62.4876 159.423 62.6791 159.596 62.8657C159.77 63.0505 159.931 63.2177 160.066 63.3773C160.203 63.5351 160.323 63.6764 160.425 63.8014C160.523 63.9289 160.604 64.0389 160.667 64.1305C160.792 64.3136 160.842 64.4229 160.813 64.4512C160.783 64.4795 160.674 64.4256 160.495 64.2979C160.405 64.234 160.298 64.1517 160.175 64.052C160.049 63.9549 159.905 63.8414 159.746 63.7115C159.588 63.5799 159.407 63.4408 159.213 63.2841C159.021 63.1257 158.804 62.9622 158.576 62.7825C158.349 62.6017 158.097 62.4194 157.837 62.2189C157.569 62.027 157.293 61.8163 156.993 61.6093C155.804 60.7633 154.336 59.8329 152.645 58.9074C152.433 58.7923 152.219 58.6744 152 58.5612C151.781 58.4464 151.561 58.3293 151.335 58.2165C150.885 57.9861 150.423 57.7576 149.952 57.5393C149.009 57.1042 148.02 56.7061 146.979 56.4579C146.458 56.3301 145.934 56.2378 145.413 56.1827C144.892 56.1265 144.375 56.0975 143.865 56.0995C143.354 56.1027 142.852 56.1301 142.36 56.176C142.144 56.1983 141.93 56.2243 141.718 56.2527C141.658 56.2673 141.598 56.2826 141.538 56.2963C141.33 56.3468 141.126 56.3965 140.925 56.4453C140.724 56.4958 140.53 56.559 140.338 56.6132C140.242 56.6411 140.147 56.6688 140.052 56.6962C140.005 56.7099 139.958 56.7235 139.912 56.737C139.866 56.7529 139.82 56.7687 139.775 56.7845C139.593 56.847 139.414 56.9084 139.24 56.9683C139.152 56.9984 139.066 57.0281 138.98 57.0575C138.897 57.091 138.814 57.1241 138.732 57.1569C138.405 57.2895 138.087 57.4036 137.8 57.5426C137.655 57.6081 137.514 57.6718 137.377 57.7336C137.309 57.7651 137.239 57.7927 137.175 57.8258C137.163 57.8319 137.151 57.8378 137.14 57.8438C137.291 57.8264 137.446 57.8106 137.606 57.7936C137.914 57.7564 138.239 57.7428 138.577 57.7185C138.746 57.7051 138.919 57.7041 139.095 57.6978C139.271 57.6933 139.451 57.6862 139.634 57.6847C139.817 57.686 140.002 57.6874 140.191 57.6888C140.286 57.6901 140.381 57.6895 140.477 57.6927C140.573 57.6968 140.669 57.7009 140.767 57.705C140.961 57.7143 141.159 57.7205 141.359 57.7333C141.559 57.7491 141.761 57.7651 141.966 57.7812C142.172 57.7948 142.378 57.8225 142.588 57.8453C142.797 57.87 143.009 57.8907 143.222 57.925C143.435 57.9569 143.651 57.9891 143.868 58.0216C144.084 58.0612 144.303 58.1012 144.523 58.1416C145.403 58.3136 146.305 58.5348 147.215 58.8115C148.123 59.0937 148.994 59.4179 149.818 59.7698C150.023 59.8603 150.226 59.9499 150.427 60.0387C150.625 60.134 150.821 60.2284 151.016 60.3218C151.211 60.4129 151.398 60.5152 151.585 60.6123C151.771 60.7112 151.958 60.8043 152.135 60.9086C152.314 61.0104 152.49 61.111 152.664 61.2102C152.837 61.312 153.004 61.4178 153.17 61.5196C153.253 61.5708 153.335 61.6217 153.417 61.6721C153.498 61.7235 153.576 61.7775 153.655 61.8295C153.812 61.9344 153.967 62.0377 154.119 62.1392C154.269 62.2432 154.413 62.35 154.556 62.4527C154.699 62.5568 154.841 62.6548 154.973 62.761C155.24 62.9711 155.5 63.1647 155.735 63.3689C155.971 63.5695 156.198 63.7577 156.401 63.9499C156.606 64.14 156.802 64.3145 156.973 64.492C157.146 64.6671 157.308 64.8284 157.451 64.9828C157.592 65.1394 157.72 65.2837 157.832 65.4148C157.888 65.4806 157.942 65.542 157.99 65.6021C158.036 65.6632 158.08 65.7204 158.12 65.7737C158.2 65.8809 158.265 65.9738 158.315 66.0516C158.414 66.207 158.451 66.3018 158.421 66.3301C158.391 66.3585 158.296 66.3191 158.143 66.219C158.066 66.169 157.975 66.1038 157.87 66.0242C157.819 65.9839 157.763 65.9406 157.703 65.8942C157.643 65.8486 157.579 65.8 157.511 65.7486C157.376 65.6454 157.228 65.529 157.068 65.4004C156.904 65.2754 156.727 65.1396 156.537 64.9938C156.35 64.8444 156.139 64.6978 155.922 64.5356C155.707 64.3714 155.469 64.2109 155.224 64.0376C154.982 63.861 154.714 63.6944 154.444 63.5108C154.309 63.418 154.165 63.333 154.022 63.2419C153.877 63.1522 153.732 63.0583 153.582 62.9669C153.43 62.8776 153.276 62.7866 153.119 62.6943C153.041 62.6484 152.963 62.6004 152.882 62.5551C152.801 62.5105 152.72 62.4656 152.638 62.4203C152.474 62.3303 152.309 62.2359 152.139 62.1452C151.968 62.0567 151.795 61.9668 151.619 61.8759C151.445 61.7822 151.263 61.6992 151.082 61.6102C150.899 61.5228 150.717 61.43 150.527 61.3479C150.339 61.263 150.148 61.1772 149.956 61.0905C149.762 61.0093 149.565 60.9275 149.367 60.8449C148.571 60.522 147.735 60.2192 146.865 59.9488C145.994 59.6838 145.132 59.4642 144.292 59.284C144.081 59.241 143.873 59.1983 143.666 59.1561C143.459 59.1197 143.253 59.0837 143.049 59.0482C142.846 59.0093 142.643 58.9838 142.443 58.9535C142.243 58.9252 142.046 58.8915 141.849 58.8713C141.653 58.8479 141.459 58.8247 141.268 58.802C141.076 58.7815 140.887 58.767 140.7 58.7491C140.607 58.7405 140.514 58.7319 140.423 58.7234C140.331 58.7157 140.239 58.7116 140.148 58.7054C139.967 58.6938 139.788 58.6823 139.613 58.671C139.437 58.6621 139.264 58.6582 139.094 58.6511C138.924 58.646 138.757 58.6352 138.594 58.6364C138.267 58.6362 137.952 58.6237 137.652 58.6336C137.352 58.6392 137.065 58.6384 136.795 58.6532C136.524 58.6656 136.267 58.6684 136.029 58.6869C135.962 58.6907 135.896 58.6944 135.832 58.6981C135.942 59.4059 136.465 60.0855 137.112 60.4507ZM135.98 57.8007L135.945 57.7822C135.936 57.8041 135.927 57.8261 135.918 57.848C135.939 57.8322 135.959 57.8168 135.98 57.8007ZM102.5 103.732L102.465 103.714C102.455 103.736 102.447 103.758 102.438 103.78C102.459 103.764 102.479 103.748 102.5 103.732ZM122.368 100.084C117.608 98.9235 112.501 99.3201 107.94 101.098C108.208 101.053 108.48 101.013 108.757 100.978C108.817 100.971 108.879 100.965 108.941 100.959C109.012 100.942 109.084 100.926 109.157 100.912C109.392 100.869 109.629 100.825 109.87 100.78C109.93 100.769 109.991 100.758 110.051 100.747C110.112 100.737 110.173 100.73 110.235 100.721C110.357 100.705 110.481 100.688 110.605 100.672C110.854 100.639 111.105 100.601 111.361 100.584C111.616 100.563 111.874 100.541 112.135 100.52C112.397 100.51 112.66 100.5 112.927 100.49C113.992 100.469 115.097 100.52 116.22 100.657C117.339 100.804 118.419 101.025 119.445 101.295C119.701 101.366 119.954 101.436 120.205 101.506C120.453 101.585 120.699 101.663 120.942 101.74C121.186 101.814 121.421 101.906 121.655 101.989C121.89 102.074 122.122 102.154 122.347 102.248C122.572 102.338 122.795 102.428 123.014 102.517C123.232 102.61 123.444 102.706 123.654 102.799C123.759 102.846 123.864 102.892 123.967 102.938C124.069 102.987 124.17 103.036 124.27 103.084C124.471 103.182 124.668 103.278 124.861 103.372C125.052 103.472 125.24 103.571 125.423 103.667C125.607 103.765 125.788 103.858 125.961 103.959C126.307 104.158 126.642 104.342 126.951 104.538C127.262 104.73 127.559 104.911 127.831 105.096C128.104 105.279 128.364 105.448 128.597 105.619C128.832 105.789 129.052 105.945 129.249 106.095C129.445 106.247 129.623 106.387 129.781 106.515C129.941 106.642 130.077 106.761 130.194 106.867C130.31 106.972 130.407 107.064 130.483 107.141C130.634 107.296 130.702 107.393 130.678 107.426C130.654 107.459 130.539 107.427 130.344 107.336C130.246 107.291 130.128 107.231 129.991 107.157C129.854 107.082 129.697 106.995 129.52 106.898C129.344 106.801 129.149 106.691 128.937 106.569C128.724 106.45 128.492 106.321 128.243 106.182C127.996 106.04 127.725 105.901 127.443 105.746C127.161 105.589 126.857 105.437 126.54 105.272C126.225 105.104 125.885 104.947 125.537 104.774C125.364 104.686 125.182 104.606 124.998 104.521C124.815 104.437 124.628 104.351 124.438 104.263C124.246 104.181 124.05 104.097 123.852 104.012C123.752 103.969 123.652 103.926 123.552 103.883C123.45 103.843 123.347 103.802 123.244 103.761C123.037 103.679 122.827 103.596 122.615 103.512C122.4 103.434 122.183 103.355 121.962 103.274C121.743 103.191 121.517 103.12 121.289 103.045C121.061 102.971 120.833 102.888 120.597 102.823C120.362 102.754 120.125 102.684 119.885 102.613C119.644 102.55 119.4 102.487 119.154 102.423C118.167 102.18 117.135 101.977 116.069 101.837C115.878 101.814 115.688 101.794 115.498 101.775C116.008 101.972 116.499 102.191 116.969 102.417C117.459 102.652 117.928 102.895 118.382 103.141C118.611 103.262 118.834 103.388 119.055 103.511C119.276 103.633 119.492 103.76 119.705 103.885C121.41 104.887 122.871 105.918 124.023 106.872C124.315 107.106 124.58 107.344 124.835 107.563C125.083 107.792 125.32 108.002 125.532 108.211C125.744 108.419 125.942 108.61 126.116 108.797C126.29 108.982 126.451 109.149 126.586 109.309C126.723 109.466 126.843 109.608 126.944 109.733C127.043 109.86 127.124 109.97 127.186 110.062C127.311 110.245 127.362 110.354 127.332 110.383C127.303 110.411 127.194 110.357 127.015 110.229C126.925 110.165 126.818 110.083 126.695 109.983C126.568 109.886 126.425 109.773 126.265 109.643C126.108 109.511 125.926 109.372 125.733 109.215C125.54 109.057 125.324 108.893 125.096 108.714C124.869 108.533 124.617 108.351 124.357 108.15C124.089 107.958 123.813 107.748 123.512 107.541C122.324 106.695 120.856 105.764 119.164 104.839C118.953 104.724 118.739 104.606 118.52 104.492C118.301 104.378 118.081 104.26 117.855 104.148C117.405 103.917 116.943 103.689 116.472 103.471C115.528 103.036 114.54 102.637 113.498 102.389C112.978 102.261 112.454 102.169 111.933 102.114C111.412 102.058 110.895 102.029 110.384 102.031C109.874 102.034 109.372 102.061 108.88 102.107C108.663 102.13 108.45 102.156 108.238 102.184C108.178 102.199 108.118 102.214 108.058 102.228C107.85 102.278 107.646 102.328 107.444 102.376C107.243 102.427 107.05 102.49 106.858 102.544C106.761 102.572 106.666 102.6 106.572 102.627C106.525 102.641 106.478 102.655 106.431 102.668C106.385 102.684 106.34 102.7 106.294 102.716C106.112 102.778 105.934 102.84 105.759 102.9C105.672 102.93 105.586 102.959 105.5 102.989C105.416 103.022 105.333 103.055 105.252 103.088C104.925 103.221 104.607 103.335 104.32 103.474C104.175 103.54 104.033 103.603 103.896 103.665C103.828 103.696 103.759 103.724 103.694 103.757C103.682 103.763 103.671 103.769 103.659 103.775C103.81 103.758 103.966 103.742 104.125 103.725C104.434 103.688 104.758 103.674 105.097 103.65C105.266 103.636 105.439 103.635 105.615 103.629C105.791 103.625 105.971 103.618 106.153 103.616C106.336 103.617 106.522 103.619 106.711 103.62C106.805 103.622 106.901 103.621 106.996 103.624C107.092 103.628 107.189 103.632 107.286 103.636C107.481 103.646 107.678 103.652 107.878 103.665C108.078 103.681 108.281 103.697 108.486 103.713C108.691 103.726 108.898 103.754 109.107 103.777C109.317 103.801 109.529 103.822 109.742 103.856C109.955 103.888 110.17 103.92 110.388 103.953C110.604 103.993 110.822 104.033 111.043 104.073C111.922 104.245 112.825 104.466 113.734 104.743C114.642 105.025 115.513 105.349 116.337 105.701C116.542 105.792 116.745 105.881 116.947 105.97C117.145 106.065 117.341 106.16 117.535 106.253C117.73 106.344 117.918 106.447 118.105 106.544C118.291 106.643 118.477 106.736 118.655 106.84C118.833 106.942 119.01 107.042 119.184 107.142C119.356 107.243 119.524 107.349 119.69 107.451C119.772 107.502 119.855 107.553 119.936 107.603C120.017 107.655 120.096 107.709 120.175 107.761C120.332 107.866 120.486 107.969 120.638 108.071C120.788 108.175 120.933 108.281 121.076 108.384C121.218 108.488 121.36 108.586 121.493 108.692C121.759 108.902 122.02 109.096 122.254 109.3C122.491 109.501 122.718 109.689 122.921 109.881C123.125 110.071 123.322 110.246 123.493 110.423C123.666 110.599 123.827 110.76 123.971 110.914C124.112 111.071 124.239 111.215 124.352 111.346C124.408 111.412 124.461 111.473 124.509 111.533C124.556 111.595 124.599 111.652 124.64 111.705C124.719 111.812 124.784 111.905 124.834 111.983C124.933 112.138 124.97 112.233 124.941 112.262C124.911 112.29 124.816 112.251 124.662 112.15C124.586 112.1 124.494 112.035 124.39 111.956C124.338 111.915 124.282 111.872 124.223 111.826C124.162 111.78 124.098 111.731 124.031 111.68C123.895 111.577 123.747 111.46 123.587 111.332C123.424 111.207 123.246 111.071 123.056 110.925C122.869 110.776 122.658 110.629 122.441 110.467C122.226 110.303 121.989 110.142 121.743 109.969C121.501 109.792 121.234 109.626 120.963 109.442C120.828 109.349 120.684 109.264 120.541 109.173C120.396 109.084 120.251 108.99 120.101 108.898C119.949 108.809 119.795 108.718 119.638 108.626C119.56 108.58 119.482 108.532 119.401 108.486C119.321 108.442 119.239 108.397 119.157 108.352C118.993 108.262 118.828 108.167 118.658 108.077C118.487 107.988 118.314 107.898 118.139 107.807C117.965 107.714 117.782 107.631 117.601 107.542C117.419 107.454 117.236 107.361 117.046 107.279C116.858 107.194 116.668 107.109 116.476 107.022C116.281 106.941 116.084 106.859 115.886 106.776C115.09 106.453 114.254 106.151 113.384 105.88C112.513 105.615 111.651 105.396 110.811 105.215C110.601 105.172 110.392 105.13 110.186 105.088C109.978 105.051 109.772 105.015 109.569 104.98C109.365 104.941 109.163 104.915 108.963 104.885C108.762 104.857 108.565 104.823 108.368 104.803C108.172 104.779 107.979 104.756 107.787 104.733C107.596 104.713 107.406 104.698 107.22 104.681C107.127 104.672 107.034 104.663 106.942 104.655C106.85 104.647 106.759 104.643 106.668 104.637C106.486 104.625 106.308 104.614 106.132 104.602C105.956 104.594 105.783 104.59 105.613 104.583C105.443 104.578 105.277 104.567 105.113 104.568C104.786 104.568 104.471 104.555 104.171 104.565C103.871 104.571 103.584 104.57 103.314 104.585C103.043 104.597 102.787 104.6 102.548 104.618C102.481 104.622 102.415 104.626 102.351 104.63C102.461 105.337 102.984 106.017 103.631 106.382C104.559 106.906 105.666 106.969 106.723 107.105C111.538 107.723 116.095 110.165 119.276 113.831C116.717 112.075 114.107 110.293 111.137 109.391C108.168 108.489 104.729 108.588 102.209 110.401C105.381 112.407 108.578 114.426 112.079 115.777C115.58 117.128 119.447 117.783 123.111 116.969C128.223 115.833 132.794 111.924 138.001 112.468C134.896 106.353 129.032 101.708 122.368 100.084ZM83.3806 136.051C78.6209 134.891 73.514 135.288 68.9525 137.066C69.2203 137.021 69.4924 136.981 69.769 136.946C69.8299 136.939 69.8917 136.933 69.9531 136.926C70.0247 136.91 70.0968 136.894 70.1694 136.88C70.404 136.837 70.6417 136.793 70.8825 136.748C70.9427 136.737 71.0032 136.726 71.0637 136.715C71.1245 136.705 71.1858 136.698 71.2471 136.689C71.3699 136.673 71.4935 136.656 71.6177 136.639C71.8663 136.607 72.1175 136.569 72.3733 136.552C72.6287 136.531 72.8869 136.509 73.1477 136.488C73.4091 136.478 73.673 136.468 73.9392 136.458C75.0047 136.437 76.1097 136.487 77.2322 136.625C78.3515 136.772 79.4317 136.992 80.458 137.262C80.7135 137.333 80.9668 137.404 81.2176 137.474C81.4655 137.552 81.711 137.631 81.9539 137.708C82.198 137.782 82.433 137.873 82.6679 137.956C82.902 138.042 83.1349 138.122 83.3591 138.215C83.5845 138.306 83.807 138.396 84.0266 138.484C84.2441 138.577 84.4566 138.674 84.6669 138.767C84.7718 138.813 84.8761 138.86 84.9795 138.906C85.0814 138.955 85.1826 139.004 85.2829 139.052C85.4832 139.15 85.6802 139.246 85.874 139.34C86.0646 139.44 86.252 139.538 86.4359 139.635C86.6192 139.733 86.8008 139.825 86.973 139.927C87.319 140.126 87.6549 140.31 87.9636 140.506C88.2745 140.698 88.5715 140.879 88.8433 141.064C89.1165 141.247 89.3763 141.415 89.6099 141.587C89.8448 141.756 90.0642 141.913 90.2615 142.063C90.4575 142.215 90.6352 142.355 90.7937 142.483C90.953 142.61 91.09 142.729 91.2062 142.835C91.323 142.94 91.4197 143.032 91.4955 143.109C91.647 143.264 91.7147 143.361 91.6905 143.394C91.6664 143.427 91.5517 143.395 91.3561 143.304C91.2584 143.259 91.1403 143.199 91.0033 143.124C90.8668 143.05 90.7096 142.963 90.5329 142.866C90.3563 142.769 90.1615 142.659 89.9498 142.537C89.7363 142.418 89.5044 142.289 89.2553 142.15C89.0089 142.008 88.738 141.868 88.4552 141.714C88.1737 141.557 87.8692 141.405 87.5522 141.24C87.2373 141.072 86.8977 140.915 86.5495 140.741C86.376 140.653 86.1942 140.574 86.0109 140.489C85.8274 140.404 85.6405 140.319 85.4503 140.231C85.2582 140.149 85.0627 140.065 84.8641 139.98C84.7649 139.937 84.6649 139.894 84.5642 139.851C84.4623 139.811 84.3596 139.77 84.2562 139.729C84.0496 139.647 83.8398 139.564 83.6272 139.48C83.4125 139.402 83.195 139.323 82.9747 139.242C82.7557 139.159 82.5291 139.088 82.3017 139.013C82.0735 138.939 81.8453 138.856 81.6092 138.791C81.3745 138.722 81.1373 138.652 80.8978 138.581C80.6563 138.518 80.4124 138.455 80.1664 138.391C79.1798 138.148 78.1476 137.945 77.0816 137.805C76.8903 137.782 76.6999 137.762 76.5099 137.743C77.0203 137.94 77.5109 138.159 77.9816 138.385C78.4708 138.62 78.9399 138.863 79.3944 139.109C79.6231 139.23 79.8462 139.356 80.067 139.479C80.2886 139.601 80.5042 139.728 80.7175 139.853C82.4221 140.855 83.8828 141.886 85.0352 142.84C85.3268 143.074 85.5923 143.312 85.8472 143.532C86.0952 143.76 86.3328 143.97 86.544 144.179C86.7562 144.387 86.9547 144.578 87.1279 144.765C87.3025 144.95 87.463 145.117 87.5984 145.277C87.7354 145.435 87.8554 145.576 87.9566 145.701C88.0553 145.828 88.1363 145.938 88.1988 146.03C88.3237 146.213 88.3744 146.322 88.3447 146.351C88.3149 146.379 88.2061 146.325 88.027 146.197C87.9375 146.133 87.8304 146.051 87.7068 145.951C87.5808 145.854 87.437 145.741 87.2778 145.611C87.1203 145.479 86.9388 145.34 86.7449 145.183C86.5526 145.025 86.3364 144.862 86.1083 144.682C85.8812 144.501 85.6292 144.319 85.3689 144.118C85.1013 143.926 84.8253 143.716 84.5247 143.509C83.3362 142.663 81.868 141.732 80.1768 140.807C79.965 140.692 79.7514 140.574 79.5319 140.461C79.3134 140.346 79.093 140.229 78.867 140.116C78.4176 139.886 77.9554 139.657 77.484 139.439C76.5407 139.004 75.5524 138.606 74.5108 138.357C73.9901 138.23 73.4666 138.137 72.9455 138.082C72.4246 138.026 71.9072 137.997 71.3969 137.999C70.8866 138.002 70.3841 138.03 69.8921 138.075C69.6758 138.098 69.462 138.124 69.25 138.152C69.19 138.167 69.1303 138.182 69.0706 138.196C68.8626 138.246 68.6579 138.296 68.4567 138.345C68.2558 138.395 68.0624 138.458 67.8698 138.513C67.7738 138.541 67.6787 138.568 67.5844 138.596C67.5372 138.609 67.4903 138.623 67.4436 138.637C67.3977 138.652 67.3521 138.668 67.3066 138.684C67.1246 138.747 66.9463 138.808 66.7717 138.868C66.6843 138.898 66.5978 138.928 66.5124 138.957C66.4286 138.99 66.3457 139.024 66.2639 139.056C65.937 139.189 65.6189 139.303 65.3325 139.442C65.1871 139.508 65.0458 139.571 64.9088 139.633C64.8406 139.665 64.7715 139.692 64.7067 139.725C64.6949 139.731 64.6835 139.737 64.6717 139.743C64.8229 139.726 64.9782 139.71 65.1377 139.693C65.4461 139.656 65.7708 139.642 66.1091 139.618C66.2783 139.604 66.4512 139.603 66.6273 139.597C66.8034 139.593 66.983 139.586 67.1658 139.584C67.3485 139.585 67.5344 139.587 67.7232 139.588C67.8177 139.589 67.913 139.589 68.0089 139.592C68.1047 139.596 68.2013 139.6 68.2986 139.604C68.4931 139.614 68.6909 139.62 68.8908 139.633C69.0906 139.648 69.2931 139.664 69.4982 139.681C69.7037 139.694 69.9101 139.722 70.1196 139.745C70.3289 139.769 70.5413 139.79 70.754 139.824C70.9671 139.856 71.1825 139.888 71.4 139.921C71.6163 139.961 71.8348 140.001 72.0551 140.041C72.9346 140.213 73.8371 140.434 74.7468 140.711C75.6547 140.993 76.5256 141.317 77.3497 141.669C77.5546 141.76 77.7578 141.849 77.959 141.938C78.1571 142.033 78.3534 142.128 78.5476 142.221C78.7429 142.312 78.9301 142.415 79.1171 142.512C79.3033 142.611 79.4895 142.704 79.6671 142.808C79.8458 142.91 80.0223 143.01 80.1963 143.11C80.3689 143.211 80.5361 143.317 80.7021 143.419C80.7849 143.47 80.8671 143.521 80.9486 143.572C81.0297 143.623 81.1082 143.677 81.187 143.729C81.344 143.834 81.4985 143.937 81.6504 144.039C81.8006 144.143 81.9451 144.249 82.0884 144.352C82.2305 144.456 82.3728 144.554 82.5052 144.66C82.7714 144.87 83.0323 145.064 83.2664 145.268C83.5031 145.469 83.7302 145.657 83.9332 145.849C84.1378 146.039 84.3341 146.214 84.5052 146.391C84.678 146.567 84.8399 146.728 84.983 146.882C85.1241 147.039 85.2513 147.183 85.364 147.314C85.4201 147.38 85.4736 147.441 85.5214 147.501C85.5679 147.563 85.6115 147.62 85.6521 147.673C85.7318 147.78 85.7969 147.873 85.8464 147.951C85.9454 148.106 85.9826 148.201 85.9529 148.229C85.9232 148.258 85.828 148.218 85.6747 148.118C85.5981 148.068 85.5069 148.003 85.4022 147.924C85.3503 147.883 85.2946 147.84 85.235 147.794C85.1748 147.748 85.1108 147.699 85.043 147.648C84.9079 147.545 84.7598 147.428 84.5993 147.3C84.436 147.175 84.2587 147.039 84.0683 146.893C83.8814 146.744 83.6707 146.597 83.4538 146.435C83.2385 146.271 83.001 146.11 82.7559 145.937C82.5133 145.76 82.246 145.594 81.9753 145.41C81.8408 145.317 81.6967 145.232 81.5533 145.141C81.4088 145.052 81.2636 144.958 81.1133 144.866C80.9616 144.777 80.8074 144.686 80.6507 144.594C80.5723 144.548 80.4943 144.5 80.4138 144.455C80.333 144.41 80.2516 144.365 80.1696 144.32C80.0053 144.23 79.8405 144.135 79.6706 144.045C79.4996 143.956 79.3264 143.866 79.151 143.775C78.9771 143.682 78.7949 143.599 78.6134 143.51C78.431 143.422 78.2488 143.329 78.059 143.247C77.8706 143.162 77.6802 143.077 77.488 142.99C77.2934 142.909 77.0969 142.827 76.8987 142.744C76.1028 142.421 75.2663 142.119 74.3967 141.848C73.5254 141.583 72.6633 141.364 71.8235 141.183C71.6131 141.14 71.4045 141.098 71.1979 141.055C70.9902 141.019 70.7845 140.983 70.581 140.948C70.3779 140.909 70.1749 140.883 69.9749 140.853C69.7747 140.825 69.5773 140.791 69.3808 140.771C69.1846 140.747 68.9908 140.724 68.7996 140.701C68.6081 140.681 68.4187 140.666 68.2322 140.648C68.1389 140.64 68.0462 140.631 67.9543 140.623C67.8623 140.615 67.7708 140.611 67.6801 140.605C67.4986 140.593 67.3199 140.582 67.1443 140.57C66.9685 140.561 66.7955 140.558 66.6256 140.551C66.4558 140.545 66.2889 140.535 66.1254 140.536C65.7983 140.536 65.4835 140.523 65.1836 140.533C64.8835 140.539 64.5967 140.538 64.3264 140.553C64.0558 140.565 63.7991 140.568 63.5606 140.586C63.4934 140.59 63.4279 140.594 63.3633 140.598C63.4737 141.305 63.9968 141.985 64.6437 142.35C65.5719 142.874 66.6785 142.937 67.7358 143.073C72.5502 143.691 77.1076 146.133 80.2887 149.798C77.73 148.043 75.1191 146.261 72.1497 145.359C69.1804 144.456 65.7412 144.556 63.2218 146.369C66.3932 148.375 69.5901 150.394 73.0911 151.745C76.5921 153.096 80.4595 153.751 84.1234 152.937C89.2355 151.801 93.806 147.892 99.0139 148.436C95.9083 142.321 90.0444 137.676 83.3806 136.051ZM63.5123 139.7L63.4777 139.682C63.4679 139.703 63.4593 139.725 63.4506 139.747C63.4712 139.732 63.4913 139.716 63.5123 139.7ZM57.4584 94.802C57.4289 94.7929 57.4002 94.7839 57.37 94.7745L57.3758 94.8209C57.4038 94.8154 57.4311 94.8087 57.4584 94.802ZM51.0813 91.2892C50.8542 91.0595 50.6285 90.8226 50.4052 90.5775C50.3566 90.5231 50.3086 90.4669 50.2602 90.4117C50.1952 90.3532 50.1305 90.294 50.0668 90.2331C49.864 90.0346 49.6584 89.8335 49.4503 89.6298C49.3984 89.5788 49.3462 89.5276 49.2939 89.4762C49.2424 89.4241 49.1937 89.3692 49.1432 89.3155C49.043 89.2075 48.9423 89.0986 48.841 88.9892C48.639 88.7697 48.4299 88.5515 48.2382 88.3145C48.0427 88.0805 47.845 87.8441 47.6453 87.6053C47.4568 87.3577 47.2665 87.1078 47.0744 86.8556C46.3242 85.8337 45.6162 84.7245 44.9811 83.5383C44.3569 82.3492 43.8318 81.1471 43.3913 79.9638C43.2853 79.6666 43.1803 79.3719 43.0763 79.0801C42.9832 78.7849 42.8912 78.4925 42.8 78.2032C42.7047 77.9151 42.6327 77.6238 42.5524 77.3386C42.4749 77.0525 42.3933 76.771 42.3309 76.4886C42.2648 76.2072 42.1996 75.9293 42.1352 75.6551C42.0767 75.3797 42.0248 75.107 41.971 74.8388C41.9446 74.7046 41.9184 74.5715 41.8924 74.4393C41.8704 74.3064 41.8485 74.1746 41.8269 74.0438C41.7846 73.7822 41.7429 73.5248 41.7019 73.2716C41.6686 73.0175 41.636 72.7678 41.604 72.5227C41.5735 72.2774 41.5393 72.0373 41.5197 71.8004C41.4768 71.327 41.4256 70.8742 41.4047 70.4396C41.3784 70.0057 41.3506 69.593 41.3447 69.2016C41.3356 68.8104 41.3213 68.4422 41.3284 68.0974C41.3323 67.7526 41.3339 67.4323 41.3446 67.1374C41.3583 66.8426 41.3732 66.5734 41.3891 66.3316C41.4031 66.0897 41.4247 65.8752 41.4482 65.6894C41.4707 65.5036 41.4937 65.3466 41.517 65.2199C41.5636 64.9665 41.6116 64.8343 41.6605 64.8349C41.7093 64.8356 41.7568 64.969 41.8023 65.2216C41.825 65.3478 41.8474 65.5038 41.8692 65.6879C41.8897 65.8721 41.9134 66.0842 41.9401 66.3226C41.9664 66.5611 41.9928 66.826 42.0191 67.1156C42.0498 67.4048 42.0831 67.7188 42.1189 68.0561C42.1491 68.3934 42.1992 68.7524 42.2426 69.1334C42.2829 69.5147 42.3433 69.9155 42.4005 70.3365C42.4523 70.7582 42.5324 71.1961 42.6023 71.6537C42.6354 71.8828 42.6826 72.1142 42.7254 72.3508C42.7691 72.5871 42.8136 72.8277 42.8589 73.0726C42.9104 73.316 42.9627 73.5635 43.016 73.8151C43.0424 73.9407 43.0691 74.0675 43.0961 74.1951C43.1267 74.3219 43.1575 74.4496 43.1885 74.5783C43.2504 74.8354 43.3133 75.0964 43.377 75.3609C43.4481 75.6233 43.5201 75.8892 43.5931 76.1584C43.6616 76.4287 43.7484 76.6973 43.8304 76.9705C43.9153 77.2428 43.9912 77.5214 44.0894 77.7958C44.1828 78.0716 44.277 78.3504 44.3722 78.6319C44.4767 78.9098 44.5822 79.1903 44.6887 79.4734C45.128 80.5998 45.6379 81.7427 46.2322 82.8753C46.3405 83.0774 46.4513 83.2764 46.5633 83.474C46.4054 82.8424 46.2819 82.2155 46.1788 81.6029C46.0728 80.9656 45.9878 80.3427 45.916 79.7318C45.8767 79.4268 45.8461 79.1236 45.8151 78.8241C45.782 78.5249 45.7579 78.228 45.7331 77.935C45.5401 75.59 45.5419 73.4627 45.6804 71.6877C45.7081 71.2437 45.7582 70.8221 45.797 70.4236C45.8494 70.0259 45.891 69.6507 45.9495 69.302C46.0062 68.9531 46.0566 68.6288 46.1195 68.3324C46.1797 68.0359 46.2322 67.765 46.2948 67.524C46.3544 67.2826 46.4097 67.0689 46.4619 66.8847C46.5184 66.7013 46.5698 66.5471 46.6161 66.4236C46.7087 66.1765 46.7802 66.0522 46.8282 66.0617C46.8761 66.0713 46.8981 66.2141 46.8966 66.4758C46.8957 66.6067 46.8891 66.7673 46.8768 66.9558C46.8687 67.145 46.8568 67.3627 46.8396 67.6065C46.8194 67.8499 46.8085 68.1219 46.7888 68.4179C46.7665 68.7135 46.7556 69.0359 46.737 69.3809C46.7167 69.7258 46.712 70.0959 46.6952 70.4866C46.6919 70.8784 46.676 71.2912 46.6807 71.7257C46.6719 73.4616 46.7728 75.5275 47.0312 77.8071C47.0642 78.092 47.096 78.3805 47.1361 78.6717C47.1742 78.963 47.2112 79.2577 47.2564 79.5548C47.3401 80.1499 47.4346 80.7561 47.5451 81.3642C47.7681 82.58 48.058 83.8142 48.53 84.9975C48.7624 85.5916 49.0313 86.164 49.3346 86.7087C49.6367 87.2539 49.963 87.777 50.3145 88.272C50.6673 88.7661 51.0381 89.2361 51.4196 89.6832C51.5896 89.8783 51.7613 90.0684 51.9341 90.2552C51.9894 90.3034 52.0452 90.351 52.0994 90.3996C52.2909 90.5673 52.4794 90.7324 52.6648 90.8947C52.8515 91.0554 53.0455 91.2001 53.2301 91.3502C53.323 91.4245 53.4151 91.4981 53.5063 91.5709C53.5519 91.6074 53.5973 91.6438 53.6424 91.6799C53.6893 91.7136 53.736 91.7472 53.7824 91.7805C53.968 91.9147 54.1498 92.0461 54.3277 92.1747C54.4168 92.2391 54.5049 92.3029 54.592 92.3658C54.682 92.4244 54.771 92.4823 54.8589 92.5394C55.2117 92.7664 55.5406 92.9976 55.8721 93.1809C56.0354 93.2774 56.1941 93.3711 56.348 93.4621C56.4254 93.5068 56.4996 93.5551 56.5762 93.5953C56.5903 93.6027 56.6037 93.6097 56.6178 93.6171C56.4973 93.482 56.3755 93.3417 56.2496 93.1983C56.0021 92.9239 55.7665 92.6174 55.5112 92.3049C55.3822 92.1496 55.2629 91.9822 55.1361 91.8152C55.0111 91.6469 54.8811 91.4771 54.7545 91.3004C54.6306 91.1218 54.5046 90.94 54.3766 90.7554C54.3132 90.6626 54.2474 90.5702 54.1847 90.4749C54.123 90.3789 54.0609 90.2821 53.9983 90.1847C53.874 89.9891 53.7447 89.7924 53.6202 89.5891C53.4986 89.384 53.3755 89.176 53.2507 88.9655C53.1232 88.7563 53.0086 88.5366 52.8873 88.3171C52.7679 88.0966 52.6425 87.8759 52.5303 87.6454C52.4152 87.4163 52.299 87.1847 52.1817 86.9509C52.072 86.7133 51.9613 86.4734 51.8496 86.2314C51.4145 85.2581 51.0114 84.2286 50.6575 83.1541C50.31 82.0775 50.0287 81.0082 49.8066 79.9654C49.7542 79.704 49.7022 79.445 49.6507 79.1885C49.6077 78.9304 49.5651 78.6748 49.5229 78.4219C49.4777 78.1695 49.4489 77.9172 49.4154 77.6688C49.384 77.4199 49.347 77.1749 49.3267 76.9308C49.3034 76.6872 49.2804 76.4466 49.2576 76.2091C49.2384 75.9715 49.227 75.7364 49.2121 75.5051C49.2052 75.3894 49.1983 75.2746 49.1916 75.1607C49.1859 75.0467 49.1847 74.9333 49.1812 74.8209C49.1758 74.5962 49.1704 74.3752 49.1651 74.1579C49.1634 73.9405 49.1682 73.7267 49.1699 73.517C49.1738 73.3073 49.1716 73.1017 49.1842 72.9001C49.2062 72.4971 49.2159 72.1106 49.254 71.743C49.2871 71.3752 49.3145 71.0253 49.3624 70.6961C49.4072 70.3667 49.4424 70.0561 49.498 69.7681C49.5499 69.4799 49.5958 69.2118 49.6479 68.9668C49.7036 68.7222 49.7568 68.4995 49.8071 68.3001C49.8328 68.2004 49.8557 68.1062 49.8815 68.0185C49.9091 67.9314 49.9349 67.8497 49.9589 67.7738C50.0086 67.6227 50.0544 67.4958 50.0961 67.3944C50.1794 67.1915 50.2461 67.0902 50.294 67.0997C50.3419 67.1091 50.3689 67.2288 50.3766 67.4465C50.3804 67.5553 50.3794 67.6887 50.3737 67.8451C50.3701 67.9232 50.3661 68.0071 50.3619 68.0968C50.3588 68.1867 50.3554 68.2823 50.3518 68.3834C50.344 68.5856 50.3323 68.8094 50.3171 69.0537C50.3074 69.2983 50.2967 69.5638 50.2854 69.8489C50.2681 70.1332 50.2699 70.4385 50.2606 70.7606C50.2483 71.0827 50.255 71.4238 50.2544 71.7809C50.2487 72.138 50.2698 72.5123 50.2767 72.9013C50.2785 73.0959 50.2947 73.2942 50.3042 73.4961C50.3159 73.6981 50.324 73.9037 50.3381 74.1127C50.3551 74.3215 50.3723 74.5337 50.3899 74.7495C50.399 74.8573 50.4058 74.966 50.4167 75.0752C50.4287 75.1844 50.4407 75.2945 50.4528 75.4053C50.4779 75.6268 50.4989 75.8519 50.5271 76.0792C50.5581 76.3063 50.5894 76.5363 50.6212 76.7693C50.6492 77.0026 50.6932 77.2367 50.731 77.4744C50.7709 77.7117 50.8055 77.9526 50.8556 78.1935C50.9021 78.4349 50.949 78.6789 50.9964 78.9253C51.0508 79.1702 51.1057 79.4175 51.1611 79.6669C51.3922 80.6624 51.6708 81.6835 52.0034 82.7148C52.3426 83.7438 52.7195 84.7329 53.1195 85.6733C53.2217 85.9074 53.3231 86.1396 53.4236 86.3694C53.5305 86.5963 53.6364 86.8211 53.7412 87.0435C53.8427 87.2677 53.9568 87.4826 54.0643 87.6978C54.1739 87.912 54.2763 88.1271 54.3913 88.332C54.5029 88.5389 54.6132 88.7432 54.722 88.9449C54.8333 89.1451 54.9489 89.3393 55.0592 89.533C55.1148 89.6297 55.1698 89.7256 55.2246 89.8208C55.2801 89.9156 55.3388 90.0074 55.3949 90.0999C55.5079 90.2844 55.6192 90.4661 55.7285 90.6447C55.8402 90.8217 55.9548 90.9927 56.0644 91.1627C56.1758 91.3315 56.2797 91.5012 56.3928 91.6593C56.6166 91.9776 56.8202 92.2924 57.0352 92.5774C57.2462 92.8655 57.4418 93.1449 57.6416 93.3977C57.839 93.6525 58.0174 93.9002 58.1989 94.1195C58.2486 94.1823 58.2972 94.2434 58.345 94.3037C58.9577 93.7111 59.2605 92.7363 59.1725 91.8568C59.0463 90.5947 58.3493 89.4753 57.7572 88.3538C55.0607 83.2471 54.3137 77.1403 55.6999 71.5331C55.7449 75.2257 55.8007 78.9865 56.9571 82.4933C58.0587 85.8338 60.3373 88.9644 63.5673 90.2974C62.6303 91.2216 61.9265 92.3749 61.6015 93.6546C61.2567 95.0122 61.3006 96.4375 61.0652 97.8182C60.591 100.599 59.0228 103.571 60.3766 106.045C61.1937 107.539 62.8542 108.328 64.4086 109.023C66.4207 109.922 68.456 110.828 70.6222 111.234C73.4227 111.758 76.3063 111.42 79.1286 111.028L79.6533 111.326C75.7782 116.504 69.8006 120.071 63.3968 120.991L78.2993 111.235C75.0562 111.445 71.9438 112.954 68.6995 112.764C67.0101 112.666 65.3416 112.105 63.6584 112.282C61.9752 112.459 60.1969 113.783 60.3944 115.463C60.5015 116.374 61.1618 117.293 60.7817 118.127C60.4623 118.828 59.5894 119.038 58.9528 119.472C57.9046 120.186 57.4998 121.557 57.4969 122.825C57.489 126.286 60.2119 129.553 63.6171 130.17C64.9952 130.419 66.414 130.276 67.8076 130.415C70.6146 130.694 73.6873 132.052 76.0624 130.529C77.496 129.61 78.169 127.898 78.7545 126.299C79.5125 124.229 80.2762 122.136 80.5312 119.947C80.8607 117.116 80.3255 114.263 79.7392 111.475L79.777 111.397L79.8908 111.461C79.8559 111.432 79.822 111.404 79.7872 111.375L80.0767 110.772C83.1035 111.926 85.8862 113.697 88.2419 115.921C90.6 118.144 92.5205 120.821 93.8538 123.778L80.3928 112.113C81.4807 115.175 83.7813 117.757 84.4846 120.929C84.8509 122.582 84.7675 124.34 85.397 125.911C86.0264 127.481 87.7852 128.83 89.3479 128.18C90.1944 127.828 90.8987 126.941 91.8049 127.079C92.5664 127.194 93.006 127.976 93.5975 128.47C94.5695 129.283 96.0388 129.292 97.3659 128.924C99.1734 128.421 100.822 127.242 101.943 125.747C102.225 125.372 102.47 124.981 102.676 124.576C102.885 124.17 103.054 123.752 103.178 123.327C103.426 122.48 103.507 121.6 103.382 120.744C103.18 119.358 102.541 118.071 102.222 116.707C101.901 115.334 101.837 113.806 101.553 112.407C101.272 111.007 100.775 109.737 99.6582 108.852C98.3103 107.784 96.4702 107.651 94.7644 107.54C92.5586 107.398 90.3402 107.227 88.1637 107.583C85.3513 108.04 82.7528 109.336 80.231 110.663L79.3668 110.514C79.5996 110.594 79.8305 110.679 80.0606 110.766C79.9368 110.942 79.8106 111.116 79.6821 111.288C74.559 107.063 71.2583 100.694 70.774 94.0683L79.4688 109.608C79.4844 106.358 78.1964 103.149 78.6114 99.9259C78.8275 98.2473 79.5024 96.6214 79.4433 94.9301C79.3843 93.2388 78.1876 91.3733 76.4972 91.4545C75.5817 91.4985 74.6183 92.0937 73.8126 91.657C73.1356 91.29 72.9873 90.4047 72.5989 89.7398C71.9593 88.6448 70.6202 88.1464 69.3551 88.056C67.4269 87.9182 65.5 88.6351 64.0256 89.879C63.812 85.6184 63.5588 81.335 62.5237 77.1994C61.4396 72.868 59.4271 68.6575 56.1256 65.6518C51.5194 61.4582 44.5867 59.6928 41.548 54.2547C37.7282 61.4682 37.2271 70.3565 40.212 77.9516C42.3433 83.3762 46.2274 88.0717 51.0813 91.2892ZM82.4181 22.5253C81.7398 25.817 81.6346 29.4784 82.4146 32.7786C83.1937 36.0783 84.8621 39.007 87.6395 40.8295C88.4391 35.9421 88.7692 31.0076 88.6133 26.104C90.4339 29.7526 90.895 34.0432 89.8904 38.0046C91.06 34.9296 91.6918 31.6827 91.8137 28.4273C91.9336 25.1718 91.5303 21.9089 90.5874 18.7939C93.0851 22.4107 94.041 26.8623 93.634 31.213C93.2209 35.5597 91.4321 39.8267 88.2922 42.9605L87.1052 43.7928C89.11 42.7175 90.8132 41.2615 92.2217 39.5592C92.9305 38.707 93.565 37.793 94.1247 36.8325C94.6842 35.872 95.1821 34.8625 95.598 33.8223C97.2744 29.6562 97.827 24.9755 97.214 20.5964C96.5962 16.2177 95.0495 12.0922 92.9871 8.12241C90.9248 4.15549 88.3475 0.344707 85.6745 -3.32851C87.3807 0.736061 87.038 5.36393 86.0163 9.67082C84.9929 13.9701 83.3229 18.1308 82.4181 22.5253ZM107.812 13.2732C106.823 14.4382 106.055 15.6892 106.025 17.201C105.984 19.024 107.084 20.6124 108.138 22.0494C109.5 23.9089 110.895 25.7783 112.663 27.2363C114.949 29.1212 117.749 30.2376 120.518 31.2772L120.999 32.0515C119.655 28.8237 119.029 25.2846 119.148 21.7562C119.263 18.2275 120.108 14.7053 121.667 11.521C121.522 17.7607 121.472 23.968 121.535 30.1471C123.167 27.1873 123.622 23.6139 125.657 20.9091C126.183 20.2045 126.812 19.5744 127.41 18.9266C128.008 18.2788 128.572 17.6117 128.989 16.8388C129.404 16.0653 129.584 15.1041 129.471 14.2342C129.36 13.3651 128.949 12.5849 128.172 12.1753C127.331 11.7311 126.154 11.7592 125.665 10.9397C125.255 10.2508 125.591 9.37147 125.603 8.56649C125.619 7.23968 124.695 6.07292 123.618 5.31208C122.149 4.27433 120.314 3.85447 118.52 4.02832C116.728 4.20188 114.972 4.96802 113.691 6.29258C112.649 7.36232 111.928 8.70811 110.979 9.86668C110.025 11.0343 108.806 12.1096 107.812 13.2732ZM125.242 24.267C124.222 27.0459 124.105 30.0634 124.067 33.0105L123.507 33.7244C123.694 33.5517 123.885 33.3832 124.078 33.2168C124.178 33.4163 124.275 33.617 124.37 33.8187C121.177 35.1073 117.725 35.7554 114.27 35.7383C110.819 35.7218 107.373 35.0414 104.212 33.6587C110.394 33.4339 116.568 33.2766 122.729 33.1852C119.769 31.565 116.2 31.1675 113.464 29.1853C112.039 28.1517 110.901 26.7128 109.331 25.9216C107.765 25.1308 105.45 25.3184 104.675 26.9593C104.255 27.8472 104.31 29.0503 103.512 29.5994C102.838 30.0605 101.954 29.7662 101.151 29.8089C99.8287 29.8786 98.7017 30.9136 97.9936 32.083C97.021 33.6759 96.6934 35.6102 96.9417 37.4397C97.1952 39.2717 98.0232 40.9971 99.3749 42.1977C100.467 43.1688 101.808 43.7973 102.975 44.6693C105.321 46.4283 107.354 49.2873 110.284 49.1591C112.048 49.0828 113.562 47.8999 114.933 46.779C116.714 45.3295 118.514 43.8772 119.923 42.0788C121.747 39.755 122.828 36.9568 123.86 34.1944L124.39 33.8636C125.801 36.9007 126.614 40.1938 126.814 43.5044C127.018 46.8172 126.61 50.1484 125.566 53.2797C124.829 47.251 124.179 41.1707 123.642 35.0512C122.245 38.1141 122.13 41.6859 120.419 44.5756C119.531 46.0826 118.222 47.3578 117.604 49C116.977 50.6406 117.395 52.9041 119.049 53.4909C119.945 53.8097 121.104 53.6246 121.706 54.357C122.211 54.9715 122.008 55.869 122.126 56.6522C122.318 57.9414 123.415 58.9319 124.599 59.5062C126.214 60.2899 128.092 60.4265 129.826 60.0251C130.693 59.8243 131.524 59.4887 132.269 59.0301C133.016 58.5718 133.681 57.992 134.208 57.2987C135.058 56.1758 135.579 54.8443 136.34 53.6634C137.119 52.4783 138.167 51.3596 138.998 50.1934C139.412 49.6096 139.767 49.0117 140.001 48.3837C140.237 47.7567 140.351 47.0989 140.279 46.3928C140.103 44.6874 138.858 43.2726 137.667 41.9784C136.125 40.3041 134.583 38.6055 132.702 37.3044C130.273 35.6227 127.405 34.6978 124.569 33.8586L124.515 33.7856L124.63 33.7139C124.587 33.7314 124.544 33.7484 124.501 33.7659L124.092 33.205C126.641 31.0199 129.64 29.3946 132.839 28.4134C136.036 27.4302 139.43 27.0902 142.768 27.4442C136.999 29.3831 131.233 31.428 125.472 33.5792C128.806 34.0987 132.294 33.3126 135.53 34.2623C137.216 34.756 138.779 35.6989 140.519 35.9208C142.257 36.1411 144.347 35.2748 144.521 33.5882C144.619 32.6756 144.162 31.6158 144.735 30.8946C145.217 30.2894 146.147 30.3034 146.888 30.041C147.498 29.8251 147.984 29.4106 148.355 28.8963C148.727 28.3827 148.986 27.7704 149.137 27.1561C149.342 26.3177 149.376 25.4477 149.263 24.5902C149.149 23.7323 148.883 22.8848 148.491 22.0943C147.711 20.5152 146.419 19.1582 144.79 18.4015C143.471 17.789 142.012 17.5513 140.649 17.0448C137.903 16.0278 135.173 13.8574 132.392 14.7541C131.55 15.0251 130.852 15.5477 130.24 16.1848C129.628 16.8222 129.095 17.5712 128.602 18.3025C127.317 20.1923 126.027 22.1158 125.242 24.267ZM90.292 74.9861C90.5838 76.4272 90.4923 77.9534 91.0084 79.328C91.5252 80.7021 92.9946 81.9086 94.3245 81.3761C95.0454 81.0903 95.6572 80.3365 96.4218 80.4768C97.0641 80.5955 97.421 81.2878 97.91 81.7319C98.7153 82.4628 99.9184 82.5153 100.956 82.2553C102.371 81.8957 103.61 80.9836 104.476 79.7766C105.342 78.575 105.837 77.0839 105.75 75.5826C105.68 74.3675 105.277 73.1974 105.111 71.9916C104.775 69.5633 105.296 66.6903 103.532 64.994C102.466 63.9694 100.884 63.7575 99.4143 63.5986C97.5121 63.3947 95.5843 63.1977 93.6861 63.4604C91.2316 63.7959 88.9519 64.8858 86.7509 66.006L86.0033 65.8678C86.2043 65.9398 86.4036 66.0159 86.6021 66.0943C86.4929 66.2459 86.3818 66.3959 86.2687 66.5445C81.8777 62.8169 78.9906 57.2867 78.5962 51.5249C81.1374 56.0298 83.6392 60.5498 86.1011 65.082C86.1514 62.2572 85.0612 59.4563 85.4648 56.6576C85.6757 55.2 86.2949 53.796 86.2691 52.3248C86.2439 50.8556 85.2104 49.2153 83.7052 49.2759C82.8901 49.3082 82.0267 49.8168 81.315 49.4357C80.7165 49.1143 80.5927 48.3441 80.2526 47.7647C79.6925 46.81 78.4994 46.3733 77.3686 46.2975C74.2795 46.0849 71.1875 48.2824 70.4489 51.2097C70.1484 52.394 70.1952 53.6327 69.9954 54.8355C69.5903 57.256 68.2438 59.8615 69.4557 61.9946C70.1857 63.2807 71.643 63.9537 73.0014 64.5442C74.7609 65.3127 76.5325 66.0922 78.4125 66.4453C80.843 66.9032 83.341 66.6222 85.7919 66.3126L86.2435 66.5771C84.5381 68.8047 82.4028 70.6858 80.0119 72.1146C77.6209 73.5462 74.9738 74.5263 72.2313 74.9506C76.4578 72.0891 80.7373 69.2607 85.0712 66.4839C82.2562 66.638 79.5562 67.9349 76.7468 67.7767C75.2833 67.6964 73.8319 67.2141 72.3724 67.3831C70.9115 67.5471 69.3843 68.7221 69.578 70.1787C69.6827 70.9684 70.264 71.7603 69.9472 72.489C69.6813 73.1005 68.9328 73.2926 68.3921 73.6793C67.5013 74.3144 67.1782 75.5102 67.1994 76.6115C67.2283 78.1142 67.8422 79.5657 68.8071 80.7043C69.7725 81.8419 71.0886 82.6676 72.5361 82.9231C73.7072 83.1261 74.9083 83.0002 76.0894 83.1128C78.4724 83.3507 81.069 84.532 83.0743 83.2287C84.2854 82.4371 84.8603 80.9621 85.3644 79.5764C86.0166 77.7832 86.6833 75.9776 86.92 74.0772C87.2263 71.6219 86.7963 69.1363 86.3166 66.7073L86.3501 66.6394L86.448 66.6969C86.418 66.6714 86.3888 66.6465 86.359 66.6212L86.6163 66.1C89.2283 67.138 91.6059 68.7237 93.5897 70.7055C95.5741 72.6853 97.1646 75.0596 98.2195 77.6652C94.4954 74.1668 90.714 70.7008 86.8755 67.2686C87.7861 69.9417 89.7327 72.2189 90.292 74.9861ZM107.011 54.7816C107.191 53.2871 106.772 51.7676 105.937 50.5145C105.102 49.262 103.85 48.2723 102.377 47.85C101.184 47.5044 99.9164 47.5026 98.6967 47.2587C96.2426 46.771 93.6329 45.34 91.3914 46.4751C90.0394 47.1577 89.3011 48.5914 88.6545 49.9328C87.8169 51.6671 86.9819 53.4282 86.5924 55.306C86.0892 57.734 86.3494 60.2433 86.6558 62.7004L86.2693 63.3582C90.0023 58.8451 95.7677 56.0167 101.681 55.803C97.0367 58.16 92.4383 60.5598 87.8882 63.014C90.7152 63.0696 93.5349 62.0082 96.331 62.4488C97.7859 62.6762 99.1793 63.308 100.648 63.3071C102.117 63.3058 103.776 62.3304 103.766 60.8606C103.761 60.0639 103.275 59.2072 103.685 58.5222C104.03 57.9469 104.81 57.8468 105.406 57.5357C106.388 57.0213 106.879 55.877 107.011 54.7816ZM81.4896 107.2C84.7395 107.215 87.9492 105.926 91.1718 106.34C92.8477 106.554 94.4748 107.227 96.1726 107.137C97.0205 107.094 97.9086 106.755 98.5582 106.214C99.2091 105.674 99.6169 104.93 99.5344 104.089C99.4429 103.178 98.8218 102.239 99.1977 101.419C99.5091 100.728 100.336 100.542 100.923 100.114C101.408 99.7649 101.726 99.2424 101.916 98.6572C102.103 98.0676 102.16 97.4118 102.125 96.7825C102.029 95.0658 101.312 93.4005 100.331 92.0662C99.8331 91.3962 99.2682 90.8099 98.6485 90.3382C98.3413 90.1038 98.0127 89.8949 97.6819 89.7242C97.3441 89.5507 97.001 89.4136 96.6417 89.3138C95.4854 88.9921 94.2574 89.0425 93.0068 88.8074C91.7505 88.5707 90.3972 88.0528 89.036 87.7672C88.8654 87.7315 88.6963 87.6993 88.5263 87.6718C88.3542 87.6445 88.183 87.6217 88.0126 87.6045C87.6733 87.5699 87.3318 87.5583 86.997 87.5763C86.3269 87.6124 85.6772 87.7685 85.0584 88.1071C83.5646 88.9246 82.7747 90.5854 82.0797 92.1401C81.1801 94.1524 80.2731 96.188 79.8671 98.3544C79.3422 101.155 79.6784 104.039 80.07 106.861L79.6364 107.623C81.749 105.001 84.419 102.844 87.4004 101.28C88.8894 100.498 90.4689 99.8657 92.0454 99.3973C93.623 98.9277 95.2078 98.6167 96.7753 98.4596C94.4066 99.9596 91.8568 101.4 89.2609 102.85L81.4896 107.2ZM16.2464 135.57C18.1349 135.662 19.9916 135.4 21.8103 134.967C23.6284 134.533 25.4122 133.929 27.1732 133.314L28.2711 133.686C27.779 133.427 27.292 133.15 26.8107 132.855C26.3311 132.56 25.8718 132.243 25.4113 131.911C24.4853 131.249 23.6237 130.512 22.7858 129.719C22.3656 129.322 21.9742 128.909 21.5807 128.483C21.1896 128.056 20.8053 127.617 20.4472 127.164C20.0852 126.712 19.7325 126.247 19.3911 125.771C19.0587 125.296 18.7369 124.81 18.4261 124.313C17.1965 122.33 16.1875 120.192 15.4499 117.992C14.7104 115.792 14.2234 113.527 14.0013 111.262C15.0026 112.997 16.005 114.727 17.0475 116.457C17.5598 117.318 18.0957 118.183 18.6206 119.038L19.4265 120.321C19.6963 120.747 19.962 121.171 20.2405 121.596L21.0665 122.862C21.341 123.282 21.629 123.701 21.9091 124.118C22.4658 124.952 23.0519 125.778 23.6276 126.594C24.8005 128.226 25.9929 129.822 27.2477 131.359C27.0473 130.292 26.789 129.239 26.4753 128.198C26.329 127.675 26.1716 127.154 26.0107 126.633C25.8466 126.113 25.702 125.59 25.5489 125.068C24.9538 122.98 24.475 120.869 24.611 118.727C24.7484 116.495 25.5303 114.334 25.3874 112.132C25.2402 109.933 23.6352 107.526 21.4236 107.661C20.2258 107.736 18.9771 108.542 17.9131 107.979C17.0188 107.505 16.805 106.332 16.2875 105.461C15.4315 104.022 13.6752 103.389 12.0164 103.282C9.7548 103.138 7.50276 103.894 5.68281 105.243C5.22785 105.581 4.79987 105.955 4.40549 106.361C4.01238 106.773 3.65316 107.217 3.33432 107.69C2.69437 108.629 2.22485 109.705 1.96894 110.852C1.86523 111.316 1.79926 111.798 1.74867 112.278C1.70012 112.761 1.66417 113.238 1.64341 113.734C1.59862 114.722 1.56722 115.707 1.46303 116.707C1.23637 118.699 0.705901 120.845 0.494943 122.962C0.304472 125.096 0.431249 127.207 1.5704 129.1C2.93251 131.376 5.31978 132.447 7.52699 133.3C7.88471 133.437 8.24285 133.573 8.59967 133.71C8.96151 133.845 9.3235 133.978 9.68547 134.105C10.4095 134.36 11.1339 134.596 11.8585 134.801C12.5793 135.005 13.3178 135.181 14.0494 135.313C14.7822 135.445 15.5145 135.534 16.2464 135.57ZM61.3492 154.798C61.5046 154.518 61.649 154.226 61.7819 153.923C62.0476 153.317 62.2667 152.666 62.4333 151.98C62.4756 151.806 62.5124 151.637 62.5453 151.468C62.5786 151.298 62.6085 151.126 62.635 150.952C62.6879 150.605 62.7271 150.25 62.752 149.889C62.7765 149.53 62.7879 149.158 62.7822 148.793C62.7753 148.436 62.7536 148.075 62.7165 147.71C62.6866 147.415 62.6478 147.119 62.6021 146.824C62.5565 146.528 62.504 146.229 62.4451 145.951C62.3281 145.384 62.1909 144.818 62.0476 144.251L61.9394 143.827L61.8308 143.42C61.7593 143.148 61.6878 142.877 61.6164 142.605C61.4768 142.064 61.3437 141.505 61.2386 140.991C61.1316 140.463 61.0435 139.922 60.9651 139.374L60.9102 138.972L60.8598 138.576L60.7642 137.779C60.7031 137.257 60.6419 136.735 60.5808 136.213C60.519 135.707 60.4475 135.2 60.3631 134.711C60.2853 134.24 60.1912 133.778 60.0714 133.331C60.0415 133.22 60.01 133.109 59.9768 132.999C59.9435 132.889 59.9078 132.779 59.8747 132.679C59.8063 132.475 59.7304 132.275 59.6458 132.08C59.5613 131.885 59.4681 131.695 59.3651 131.51C59.3136 131.418 59.2597 131.327 59.2032 131.238L59.1165 131.105L59.0299 130.982C58.7943 130.657 58.5147 130.358 58.1821 130.087C57.7743 129.751 57.346 129.529 56.8741 129.346C56.4044 129.165 55.8965 129.033 55.3743 128.943C54.3448 128.783 53.2292 128.755 52.1495 128.729C50.7674 128.713 49.379 128.689 47.97 128.708C46.5785 128.742 45.176 128.826 43.7595 129.034C41.927 129.303 40.1334 129.782 38.3704 130.39C36.6063 130.997 34.8735 131.735 33.1687 132.496L33.0593 132.471L33.1138 132.312C33.0855 132.364 33.058 132.413 33.0298 132.465L32.1879 132.273C32.2776 131.761 32.3819 131.255 32.5005 130.757C32.6262 130.255 32.7711 129.758 32.9271 129.27C33.2324 128.296 33.63 127.336 34.064 126.418C34.2791 125.96 34.5233 125.501 34.7728 125.056C35.0237 124.61 35.2868 124.173 35.5618 123.746C36.1201 122.887 36.7317 122.061 37.3824 121.278C38.0412 120.49 38.7471 119.738 39.4888 119.031C40.2306 118.325 41.0244 117.647 41.8447 117.021C42.2558 116.707 42.6754 116.405 43.1031 116.113C43.5312 115.821 43.9708 115.536 44.4159 115.264C45.307 114.719 46.2279 114.221 47.1749 113.768C42.3232 119.263 37.7058 124.965 33.8245 131.513C35.6518 130.422 37.2557 129.046 38.9409 127.76C40.6174 126.475 42.337 125.305 44.3262 124.536C45.3594 124.137 46.4419 123.853 47.5064 123.534C48.5711 123.216 49.6178 122.863 50.587 122.351C51.0716 122.095 51.5316 121.775 51.9342 121.421C52.3382 121.064 52.6787 120.685 52.9389 120.281C53.4594 119.469 53.6106 118.646 53.142 117.916C53.0134 117.721 52.842 117.541 52.6586 117.365C52.4763 117.187 52.286 117.005 52.1128 116.823C51.9401 116.639 51.7866 116.45 51.6837 116.246C51.5805 116.044 51.5282 115.826 51.5625 115.577C51.618 115.162 51.8937 114.81 52.2323 114.478C52.571 114.145 52.9714 113.834 53.282 113.482C53.5367 113.195 53.7259 112.885 53.8586 112.562C53.9918 112.238 54.0658 111.909 54.0991 111.556C54.1636 110.856 54.0345 110.155 53.8003 109.475C53.7195 109.247 53.6256 109.023 53.5194 108.804C53.4663 108.695 53.4102 108.587 53.351 108.48C53.2924 108.371 53.2311 108.262 53.1668 108.155C52.9098 107.726 52.6069 107.319 52.2648 106.937C51.9235 106.551 51.5453 106.179 51.1335 105.844C50.722 105.506 50.2777 105.201 49.81 104.915C48.8738 104.348 47.8346 103.926 46.7493 103.664C45.6642 103.401 44.5315 103.315 43.4061 103.444C41.5843 103.652 39.856 104.351 38.0559 104.701C36.243 105.054 34.2467 105.101 32.4016 105.403C30.5579 105.704 28.8597 106.266 27.6617 107.658C26.2096 109.343 26.0328 111.732 25.9535 113.95C25.8525 116.818 25.817 119.745 26.5502 122.546C26.6698 122.997 26.8052 123.443 26.9567 123.882C27.1151 124.319 27.2881 124.751 27.4733 125.176C27.5662 125.389 27.661 125.6 27.7606 125.809C27.8633 126.018 27.9688 126.225 28.0768 126.43C28.2929 126.841 28.5189 127.246 28.7532 127.645C28.9963 128.041 29.2472 128.432 29.5039 128.817C29.6338 129.009 29.7635 129.2 29.893 129.391C30.027 129.579 30.1651 129.766 30.3025 129.952C30.578 130.323 30.857 130.689 31.1376 131.05C31.4232 131.41 31.7187 131.761 32.0089 132.11C32.0199 132.483 32.0213 132.86 32.0417 133.233C32.0753 132.921 32.1316 132.605 32.1841 132.295C32.4399 132.401 32.6935 132.509 32.945 132.62C32.4464 133.56 31.9025 134.495 31.3243 135.416C30.7548 136.334 30.1436 137.237 29.4944 138.121C28.209 139.874 26.7651 141.55 25.1909 143.055C22.0396 146.087 18.3214 148.497 14.2321 149.988C19.6087 144.269 25.0205 138.491 30.8555 133.362C28.7779 133.804 26.7947 134.649 24.8076 135.443C22.8188 136.232 20.8256 136.969 18.6789 137.06C17.5608 137.106 16.4177 136.969 15.2791 136.867C14.1426 136.765 13.0246 136.701 11.9331 136.916C10.8437 137.131 9.78658 137.791 9.09323 138.749C8.75161 139.23 8.50747 139.786 8.39433 140.394C8.33802 140.698 8.31503 141.014 8.33018 141.34C8.3377 141.503 8.35488 141.669 8.38211 141.836C8.41099 142.001 8.45101 142.167 8.50136 142.334C8.61054 142.697 8.7661 143.056 8.93441 143.412C9.10274 143.765 9.28364 144.128 9.44444 144.455C9.76586 145.124 10.0046 145.789 9.89769 146.468C9.71571 147.573 8.64867 148.066 7.96832 148.85C7.68847 149.173 7.47595 149.551 7.3221 149.967C7.16656 150.375 7.06673 150.807 7.01712 151.264C6.9669 151.719 6.96705 152.197 7.00457 152.668C7.03714 153.122 7.10908 153.577 7.21159 154.018C7.24658 154.168 7.2849 154.317 7.32655 154.465C7.36793 154.613 7.41432 154.764 7.45829 154.899C7.54873 155.175 7.65191 155.447 7.76683 155.714C7.88175 155.981 8.00845 156.243 8.1462 156.499C8.28261 156.752 8.42047 156.978 8.57382 157.209C8.72592 157.437 8.88822 157.659 9.05999 157.874C9.14564 157.981 9.23473 158.089 9.32401 158.19C9.41076 158.287 9.4998 158.382 9.59104 158.476C9.9554 158.848 10.3576 159.196 10.7844 159.502C11.6099 160.071 12.5745 160.539 13.5615 160.779C14.0614 160.908 14.5814 161 15.1154 161.051C15.6444 161.096 16.1793 161.091 16.7291 161.05C17.617 160.979 18.5081 160.811 19.4012 160.631C20.2933 160.451 21.194 160.264 22.0825 160.147C22.9805 160.032 23.9111 159.992 24.8493 159.969C25.3217 159.958 25.7974 159.948 26.2584 159.938C26.7262 159.925 27.1848 159.905 27.643 159.875C29.4709 159.748 31.2284 159.446 32.6545 158.305C33.0842 157.96 33.4467 157.563 33.7509 157.124C34.0487 156.685 34.2908 156.206 34.493 155.703C34.5941 155.451 34.6853 155.193 34.7686 154.93C34.852 154.667 34.919 154.4 34.9847 154.131C35.1136 153.593 35.2205 153.045 35.3176 152.505C35.8071 149.707 36.1852 146.797 35.8904 143.927C35.5102 140.213 34.0366 136.765 32.7658 133.38L33.0008 132.645C34.92 133.47 36.7272 134.399 38.4722 135.476C39.3326 136.01 40.1909 136.592 41.0047 137.203C41.4163 137.512 41.8246 137.834 42.2215 138.163C42.4208 138.328 42.6156 138.492 42.8124 138.665C43.0097 138.837 43.2047 139.012 43.3977 139.19C43.5906 139.367 43.7814 139.546 43.9698 139.728C44.0633 139.819 44.157 139.911 44.2509 140.002C44.3443 140.097 44.438 140.192 44.5318 140.287C44.9043 140.669 45.2678 141.059 45.6219 141.459C46.3356 142.279 47.0117 143.127 47.6517 144.054C47.8114 144.283 47.9686 144.514 48.1231 144.748C48.2775 144.983 48.4292 145.229 48.5781 145.473C48.7271 145.717 48.8734 145.964 49.0168 146.212C49.1603 146.459 49.301 146.71 49.4371 146.973C49.7102 147.493 49.9716 148.02 50.2206 148.553C50.4655 149.102 50.6974 149.66 50.9161 150.222L49.7963 149.049C49.6109 148.852 49.4222 148.667 49.2344 148.481L48.6712 147.925C47.9232 147.175 47.1679 146.482 46.4187 145.779C44.9169 144.408 43.4167 143.089 41.934 141.834L37.5324 138.107C36.0765 136.872 34.6647 135.634 33.2608 134.346C33.8712 136.326 34.9487 138.152 35.99 139.989C37.0309 141.827 38.0463 143.695 38.5265 145.785C39.027 147.966 38.929 150.283 39.6891 152.388C39.7374 152.52 39.7921 152.65 39.8512 152.779C39.9086 152.909 39.9713 153.038 40.0391 153.165C40.1747 153.419 40.3304 153.665 40.5034 153.898C40.6749 154.133 40.8696 154.352 41.0675 154.56C41.2665 154.768 41.4798 154.959 41.7046 155.13C42.153 155.471 42.6517 155.726 43.1629 155.861C43.672 155.997 44.2046 156.008 44.7339 155.845C45.3075 155.668 45.8469 155.298 46.3889 155.011C46.9312 154.725 47.4766 154.523 48.0704 154.706C48.5694 154.861 48.9505 155.248 49.3 155.704C49.4777 155.928 49.6328 156.186 49.7985 156.433C49.9624 156.682 50.1294 156.927 50.3112 157.15C50.9176 157.874 51.6631 158.386 52.4914 158.689C53.3165 158.994 54.2078 159.105 55.0442 159.059C57.3259 158.938 59.4018 157.725 60.8414 155.621C61.0207 155.36 61.1924 155.081 61.3492 154.798Z" fill="#146D57"/>
</svg>
