<svg width="24" height="24" viewBox="0 0 24 24" fill="none" xmlns="http://www.w3.org/2000/svg">
<g clip-path="url(#clip0_844_299)">
<path d="M0.100313 11.8527C0.0996563 13.9417 0.649687 15.981 1.69537 17.7786L0 23.9207L6.33478 22.2726C8.08022 23.2168 10.0454 23.7147 12.0451 23.7154H12.0502C18.636 23.7154 23.9972 18.3975 24 11.8621C24.0011 8.69488 22.7591 5.71656 20.5031 3.47609C18.2468 1.23591 15.2468 0.00130233 12.0502 0C5.46337 0 0.102938 5.31721 0.100313 11.8527ZM3.87291 17.469L3.63637 17.0965C2.64206 15.5277 2.11725 13.7149 2.118 11.8534C2.12006 6.4213 6.57544 2.00186 12.054 2.00186C14.7071 2.00298 17.2005 3.02921 19.0759 4.89116C20.9512 6.7533 21.9831 9.22865 21.9824 11.8614C21.98 17.2935 17.5245 21.7135 12.0502 21.7135H12.0463C10.2638 21.7126 8.51569 21.2376 6.99112 20.34L6.62831 20.1265L2.86913 21.1045L3.87291 17.469Z" fill="#F0A901"/>
<path fill-rule="evenodd" clip-rule="evenodd" d="M2.0527 17.5771C1.04302 15.8417 0.512016 13.8728 0.512578 11.8563H0.512672C0.515297 5.54709 5.6902 0.414062 12.0486 0.414062C15.1347 0.415458 18.0311 1.60718 20.2089 3.76997C22.3871 5.93295 23.586 8.80792 23.5847 11.8653C23.582 18.1748 18.4067 23.3081 12.0491 23.3081H12.044C10.1181 23.308 8.22298 22.8292 6.53152 21.9156L0.416016 23.5066L2.0527 17.5771ZM8.39217 6.38549C8.60489 6.39414 8.8403 6.40409 9.06399 6.89739C9.21652 7.23393 9.47293 7.86074 9.67771 8.36131C9.82936 8.73203 9.95269 9.03351 9.98452 9.09656C10.059 9.24474 10.1089 9.41776 10.0093 9.61553C9.99425 9.64533 9.98038 9.67343 9.96712 9.70028C9.89246 9.85147 9.83757 9.96265 9.71114 10.1096C9.66109 10.1675 9.60934 10.2299 9.5576 10.2924C9.45489 10.4163 9.35224 10.5402 9.26302 10.6285C9.1133 10.7761 8.95777 10.9366 9.13196 11.2328C9.30614 11.5295 9.90539 12.4993 10.793 13.2846C11.7466 14.1281 12.575 14.4849 12.9957 14.6661C13.0783 14.7017 13.1452 14.7305 13.1942 14.7549C13.4927 14.9031 13.667 14.8784 13.8411 14.6804C14.0154 14.4828 14.5872 13.8156 14.7863 13.5194C14.9854 13.2228 15.1845 13.2721 15.4582 13.3709C15.7319 13.4698 17.1998 14.1865 17.4985 14.3347C17.5566 14.3635 17.611 14.3896 17.6614 14.4137C17.8699 14.5135 18.0107 14.581 18.0708 14.6804C18.1455 14.8043 18.1455 15.3972 17.8965 16.0889C17.6478 16.7807 16.4287 17.4479 15.8812 17.4972C15.8286 17.502 15.7763 17.5081 15.7225 17.5144C15.2166 17.5735 14.5781 17.6481 12.2983 16.7561C9.49384 15.6587 7.6446 12.9395 7.2621 12.3771C7.23067 12.3308 7.20914 12.2992 7.1978 12.2842L7.19456 12.2799C7.03385 12.0668 5.97867 10.6676 5.97867 9.22C5.97867 7.85578 6.65439 7.14061 6.9654 6.81145C6.98669 6.78892 7.00626 6.7682 7.0238 6.74921C7.29727 6.45293 7.6208 6.3786 7.81992 6.3786C7.83291 6.3786 7.84589 6.3786 7.85887 6.3786C8.04475 6.37856 8.22936 6.37853 8.39217 6.38549Z" fill="#F0A901"/>
</g>
<defs>
<clipPath id="clip0_844_299">
<rect width="24" height="24" fill="white"/>
</clipPath>
</defs>
</svg>
